<?xml version="1.0" encoding="utf-8"?>
<!-- Generator: Adobe Illustrator 21.0.0, SVG Export Plug-In . SVG Version: 6.00 Build 0)  -->
<svg version="1.1" id="Layer_1" xmlns="http://www.w3.org/2000/svg" xmlns:xlink="http://www.w3.org/1999/xlink" x="0px" y="0px"
	 viewBox="0 0 213.3 23.7" style="enable-background:new 0 0 213.3 23.7;" xml:space="preserve">
<style type="text/css">
	.st0{display:none;}
	.st1{display:inline;}
	.st2{fill:#1C75BC;}
	.st3{font-family:'MyriadPro-Semibold';}
	.st4{font-size:13px;}
	.st5{fill:#00D339;}
	.st6{font-size:20px;}
	.st7{font-size:18px;}
	.st8{fill:#6EC3EA;}
	.st9{fill:#DA6349;}
</style>
<g id="Layer_1_1_" class="st0">
	<g class="st1">
		<g>
			<path class="st2" d="M-1.5-30.6h-12.3V-35h29.9v4.4H3.8v36h-5.3V-30.6z"/>
			<path class="st2" d="M20.1-37.2h5.3V-19h0.1c0.8-1.5,2.2-2.9,3.8-3.8c1.6-0.9,3.4-1.4,5.4-1.4c3.9,0,10.1,2.4,10.1,12.4V5.5h-5.3
				v-16.8c0-4.7-1.7-8.6-6.7-8.6c-3.4,0-6.1,2.4-7.1,5.2c-0.3,0.8-0.4,1.6-0.4,2.5V5.3h-5.2V-37.2L20.1-37.2z"/>
			<path class="st2" d="M56.3-8.1C56.4-1,60.9,2,66.3,2c3.8,0,6.1-0.7,8-1.5l1,3.8c-1.9,0.8-5.1,1.9-9.7,1.9
				c-8.9,0-14.3-5.9-14.3-14.7s5.1-15.7,13.6-15.7c9.5,0,12,8.3,12,13.6c0,1.1-0.1,1.9-0.2,2.5C76.7-8.1,56.3-8.1,56.3-8.1z
				 M71.8-11.9c0.1-3.3-1.4-8.5-7.3-8.5c-5.4,0-7.7,4.9-8.1,8.5H71.8z"/>
			<path class="st2" d="M96.3-34.4c2.3-0.5,5.9-0.9,9.5-0.9c5.2,0,8.6,0.9,11,2.9c2.1,1.6,3.4,4,3.4,7.1c0,4-2.6,7.4-6.8,8.9v0.2
				c3.8,0.9,8.3,4.1,8.3,10.1c0,3.5-1.4,6.2-3.5,8.1c-2.8,2.6-7.3,3.8-13.9,3.8c-3.6,0-6.4-0.2-8.1-0.5L96.3-34.4L96.3-34.4z
				 M101.6-17.9h4.7c5.5,0,8.7-2.9,8.7-6.8c0-4.7-3.5-6.6-8.8-6.6c-2.4,0-3.8,0.2-4.6,0.4C101.6-30.9,101.6-17.9,101.6-17.9z
				 M101.6,1.5c1.1,0.2,2.5,0.2,4.4,0.2c5.4,0,10.4-2,10.4-7.9c0-5.5-4.7-7.8-10.4-7.8h-4.3C101.6-14,101.6,1.5,101.6,1.5z"/>
			<path class="st2" d="M149.1-1.5c0,2.5,0.1,5,0.4,7h-4.7l-0.4-3.7h-0.2c-1.6,2.3-4.7,4.3-8.9,4.3c-5.9,0-8.9-4.1-8.9-8.3
				c0-7,6.2-10.9,17.5-10.8v-0.7c0-2.3-0.7-6.7-6.6-6.7c-2.8,0-5.6,0.8-7.6,2.2l-1.3-3.5c2.4-1.5,5.9-2.5,9.6-2.5
				c8.9,0,11,6.1,11,11.8L149.1-1.5L149.1-1.5z M144-9.4c-5.8-0.1-12.3,0.9-12.3,6.5c0,3.5,2.3,5,4.9,5c3.8,0,6.3-2.4,7.1-4.9
				c0.2-0.6,0.2-1.2,0.2-1.7L144-9.4L144-9.4z"/>
			<path class="st2" d="M157.6-14.6c0-3.4-0.1-6.4-0.2-9.1h4.6l0.2,5.8h0.2c1.3-3.9,4.6-6.4,8.1-6.4c0.5,0,1,0.1,1.4,0.1v5
				c-0.5-0.1-1.1-0.1-1.8-0.1c-3.7,0-6.4,2.8-7.1,6.7c-0.1,0.7-0.2,1.6-0.2,2.5V5.4h-5.3v-20H157.6z"/>
			<path class="st2" d="M185-30.6v7h7.6v4H185v15.7c0,3.6,1,5.6,4,5.6c1.4,0,2.3-0.1,3.1-0.4l0.2,4c-1,0.4-2.6,0.7-4.7,0.7
				c-2.5,0-4.4-0.8-5.7-2.2c-1.4-1.6-2-4.2-2-7.6v-15.8h-4.5v-4h4.5V-29L185-30.6z"/>
			<path class="st2" d="M224.4-9.3c0,10.7-7.5,15.4-14.5,15.4c-7.8,0-13.9-5.8-13.9-14.9c0-9.7,6.4-15.4,14.4-15.4
				C218.8-24.2,224.4-18.2,224.4-9.3z M201.5-9c0,6.4,3.6,11.2,8.8,11.2c5,0,8.8-4.7,8.8-11.3c0-4.9-2.5-11.1-8.7-11.1
				C204.2-20.3,201.5-14.5,201.5-9z"/>
			<path class="st2" d="M231.1-15.8c0-3.1-0.1-5.5-0.2-7.9h4.7l0.3,4.8h0.1c1.4-2.7,4.8-5.4,9.6-5.4c4,0,10.3,2.4,10.3,12.4V5.4
				h-5.3v-16.7c0-4.7-1.7-8.6-6.7-8.6c-3.4,0-6.1,2.5-7.1,5.4c-0.2,0.7-0.4,1.6-0.4,2.5V5.5h-5.3V-15.8L231.1-15.8z"/>
			<path class="st2" d="M308.1,3.6c-2.3,0.9-7,2.2-12.5,2.2c-6.1,0-11.2-1.6-15.1-5.3c-3.5-3.4-5.6-8.8-5.6-15.1
				c0-12.1,8.3-20.9,21.9-20.9c4.7,0,8.4,1,10.1,1.9l-1.3,4.3c-2.2-1-4.9-1.7-8.9-1.7c-9.8,0-16.3,6.1-16.3,16.3
				c0,10.3,6.1,16.3,15.6,16.3c3.4,0,5.8-0.5,7-1.1v-12.1h-8.2v-4.2h13.3V3.6L308.1,3.6z"/>
			<path class="st2" d="M315.9-14.6c0-3.4-0.1-6.4-0.2-9.1h4.6l0.2,5.8h0.2c1.3-3.9,4.6-6.4,8.1-6.4c0.5,0,1,0.1,1.4,0.1v5
				c-0.5-0.1-1.1-0.1-1.8-0.1c-3.7,0-6.4,2.8-7.1,6.7c-0.1,0.7-0.2,1.6-0.2,2.5V5.4h-5.3L315.9-14.6L315.9-14.6z"/>
			<path class="st2" d="M361.2-9.3c0,10.7-7.5,15.4-14.5,15.4c-7.8,0-13.9-5.8-13.9-14.9c0-9.7,6.4-15.4,14.4-15.4
				C355.5-24.2,361.2-18.2,361.2-9.3z M338.2-9c0,6.4,3.6,11.2,8.8,11.2c5,0,8.8-4.7,8.8-11.3c0-4.9-2.5-11.1-8.7-11.1
				C340.9-20.3,338.2-14.5,338.2-9z"/>
			<path class="st2" d="M392.1-2.6c0,3.1,0.1,5.7,0.2,8h-4.7l-0.3-4.7h-0.1c-1.3,2.3-4.4,5.4-9.6,5.4c-4.6,0-10-2.6-10-12.7v-17h5.3
				v16c0,5.5,1.7,9.3,6.5,9.3c3.5,0,6-2.5,7-4.9c0.3-0.7,0.5-1.7,0.5-2.7v-17.7h5.3L392.1-2.6L392.1-2.6z"/>
			<path class="st2" d="M400.9-14.1c0-3.7-0.1-6.7-0.2-9.5h4.7l0.3,5h0.1c2.1-3.5,5.6-5.6,10.3-5.6c7.1,0,12.4,5.9,12.4,14.7
				c0,10.4-6.4,15.6-13.3,15.6c-3.8,0-7.2-1.7-8.9-4.6h-0.2v15.8h-5.2V-14.1z M406.1-6.4c0,0.8,0.1,1.5,0.2,2.2
				c1,3.7,4.1,6.2,7.9,6.2c5.6,0,8.8-4.6,8.8-11.2c0-5.8-3.1-10.7-8.6-10.7c-3.6,0-7,2.5-8,6.5c-0.2,0.7-0.4,1.4-0.4,2.1v4.9H406.1z
				"/>
			<path class="st2" d="M-12.8,11.9c0.6-0.1,1.4-0.2,2.2-0.2c1.5,0,2.6,0.4,3.3,1c0.7,0.7,1.2,1.6,1.2,2.9c0,1.3-0.4,2.4-1.2,3.1
				c-0.8,0.8-2,1.2-3.6,1.2c-0.8,0-1.4,0-1.9-0.1V11.9z M-11.7,19c0.3,0,0.6,0,1.1,0c2.2,0,3.4-1.2,3.4-3.4c0-1.9-1.1-3.1-3.3-3.1
				c-0.5,0-0.9,0-1.2,0.1C-11.7,12.6-11.7,19-11.7,19z"/>
			<path class="st2" d="M-3.7,12.4c0,0.4-0.3,0.6-0.7,0.6S-5,12.7-5,12.4s0.3-0.7,0.7-0.7C-3.9,11.7-3.7,12-3.7,12.4z M-4.8,19.8V14
				h1.1v5.8H-4.8z"/>
			<path class="st2" d="M-1.6,14l1.1,3.3c0.2,0.5,0.3,1,0.5,1.5l0,0c0.1-0.5,0.3-1,0.5-1.5l1.1-3.2h1.1l-2.3,5.8h-1l-2.2-5.8
				L-1.6,14L-1.6,14z"/>
			<path class="st2" d="M4.9,12.4c0,0.4-0.3,0.6-0.7,0.6c-0.4,0-0.6-0.3-0.6-0.6s0.3-0.7,0.7-0.7C4.7,11.7,4.9,12,4.9,12.4z
				 M3.8,19.8V14h1.1v5.8H3.8z"/>
			<path class="st2" d="M6.4,18.8c0.3,0.2,0.9,0.4,1.4,0.4c0.8,0,1.1-0.4,1.1-0.9s-0.3-0.8-1.1-1.1c-1.1-0.4-1.5-0.9-1.5-1.6
				c0-0.9,0.8-1.7,2-1.7c0.6,0,1.1,0.2,1.4,0.4l-0.3,0.8c-0.2-0.1-0.6-0.3-1.2-0.3c-0.6,0-1,0.4-1,0.8c0,0.5,0.3,0.7,1.1,1
				c1,0.4,1.5,0.9,1.5,1.7c0,1-0.8,1.8-2.2,1.8c-0.6,0-1.2-0.2-1.6-0.4L6.4,18.8z"/>
			<path class="st2" d="M16.6,16.9c0,2.1-1.5,3.1-2.9,3.1c-1.6,0-2.8-1.2-2.8-3c0-1.9,1.3-3.1,2.9-3.1
				C15.4,13.9,16.6,15.1,16.6,16.9z M12,16.9c0,1.3,0.7,2.2,1.8,2.2c1,0,1.8-0.9,1.8-2.3c0-1-0.5-2.2-1.7-2.2
				C12.5,14.7,12,15.8,12,16.9z"/>
			<path class="st2" d="M17.9,15.6c0-0.6,0-1.1,0-1.6h0.9l0.1,1l0,0c0.3-0.5,1-1.1,1.9-1.1c0.8,0,2.1,0.5,2.1,2.5v3.5h-1.1v-3.3
				c0-0.9-0.3-1.7-1.3-1.7c-0.7,0-1.2,0.5-1.4,1.1c0,0.1-0.1,0.3-0.1,0.5V20h-1.1V15.6z"/>
			<path class="st2" d="M32.4,16.9c0,2.1-1.5,3.1-2.9,3.1c-1.6,0-2.8-1.2-2.8-3c0-1.9,1.3-3.1,2.9-3.1
				C31.2,13.9,32.4,15.1,32.4,16.9z M27.8,16.9c0,1.3,0.7,2.2,1.8,2.2c1,0,1.8-0.9,1.8-2.3c0-1-0.5-2.2-1.7-2.2
				C28.3,14.7,27.8,15.8,27.8,16.9z"/>
			<path class="st2" d="M33.8,19.8v-5H33V14h0.8v-0.3c0-0.8,0.2-1.6,0.7-2c0.4-0.4,0.9-0.5,1.4-0.5c0.4,0,0.7,0.1,0.9,0.2l-0.1,0.8
				c-0.2-0.1-0.4-0.1-0.7-0.1c-0.9,0-1.1,0.8-1.1,1.7v0.3h1.4v0.8h-1.4v5C34.8,19.8,33.8,19.8,33.8,19.8z"/>
			<path class="st2" d="M45.4,19.6C45,19.8,44.2,20,43.3,20c-2.3,0-4-1.4-4-4.1c0-2.5,1.7-4.2,4.2-4.2c1,0,1.6,0.2,1.9,0.4L45.1,13
				c-0.4-0.2-0.9-0.3-1.6-0.3c-1.9,0-3.2,1.2-3.2,3.3c0,2,1.1,3.2,3.1,3.2c0.6,0,1.3-0.1,1.7-0.3L45.4,19.6z"/>
			<path class="st2" d="M51.8,16.9c0,2.1-1.5,3.1-2.9,3.1c-1.6,0-2.8-1.2-2.8-3c0-1.9,1.3-3.1,2.9-3.1
				C50.7,13.9,51.8,15.1,51.8,16.9z M47.2,16.9c0,1.3,0.7,2.2,1.8,2.2c1,0,1.8-0.9,1.8-2.3c0-1-0.5-2.2-1.7-2.2
				C47.8,14.7,47.2,15.8,47.2,16.9z"/>
			<path class="st2" d="M53.2,15.6c0-0.6,0-1.1,0-1.6h0.9v0.9l0,0c0.3-0.6,0.9-1.1,1.8-1.1c0.8,0,1.4,0.5,1.6,1.2l0,0
				c0.2-0.3,0.4-0.6,0.7-0.8c0.3-0.3,0.7-0.4,1.3-0.4c0.8,0,1.9,0.5,1.9,2.5v3.4h-1v-3.3c0-1.1-0.4-1.8-1.3-1.8
				c-0.6,0-1.1,0.4-1.3,0.9c0,0.2-0.1,0.3-0.1,0.5v3.6h-1v-3.3c0-0.9-0.4-1.6-1.2-1.6c-0.6,0-1.1,0.5-1.3,1.1
				c-0.1,0.1-0.1,0.3-0.1,0.5v3.5h-1L53.2,15.6L53.2,15.6z"/>
			<path class="st2" d="M63.2,15.9c0-0.7,0-1.3,0-1.9h0.9l0.1,1l0,0c0.4-0.7,1.1-1.1,2.1-1.1c1.4,0,2.5,1.2,2.5,2.9
				c0,2.1-1.3,3.1-2.7,3.1c-0.8,0-1.4-0.3-1.8-0.9l0,0v3.2h-1L63.2,15.9L63.2,15.9z M64.2,17.5c0,0.2,0,0.3,0,0.4
				c0.2,0.7,0.8,1.2,1.6,1.2c1.1,0,1.8-0.9,1.8-2.2c0-1.2-0.6-2.1-1.7-2.1c-0.7,0-1.4,0.5-1.6,1.3c0,0.1-0.1,0.3-0.1,0.4
				C64.2,16.5,64.2,17.5,64.2,17.5z"/>
			<path class="st2" d="M74.8,18.2c0,0.6,0,1.1,0,1.6h-0.9l-0.1-0.9l0,0c-0.3,0.5-0.9,1.1-1.9,1.1c-0.9,0-2-0.5-2-2.5v-3.4H71v3.2
				c0,1.1,0.3,1.9,1.3,1.9c0.7,0,1.2-0.5,1.4-1c0.1-0.1,0.1-0.3,0.1-0.5v-3.5h1.1L74.8,18.2L74.8,18.2z"/>
			<path class="st2" d="M77.9,12.6V14h1.5v0.8h-1.5v3.1c0,0.7,0.2,1.1,0.8,1.1c0.3,0,0.5,0,0.6-0.1v0.8c-0.2,0.1-0.5,0.1-0.9,0.1
				c-0.5,0-0.9-0.2-1.1-0.4c-0.3-0.3-0.4-0.8-0.4-1.5v-3.2H76v-0.8h0.9v-1.1L77.9,12.6z"/>
			<path class="st2" d="M84.7,18.4c0,0.5,0,1,0.1,1.4h-0.9l-0.1-0.7l0,0C83.5,19.6,82.9,20,82,20c-1.2,0-1.8-0.8-1.8-1.7
				c0-1.4,1.2-2.2,3.5-2.2V16c0-0.5-0.1-1.3-1.3-1.3c-0.6,0-1.1,0.2-1.5,0.4l-0.2-0.7c0.5-0.3,1.2-0.5,1.9-0.5
				c1.8,0,2.2,1.2,2.2,2.4L84.7,18.4L84.7,18.4z M83.6,16.9c-1.2,0-2.5,0.2-2.5,1.3c0,0.7,0.5,1,1,1c0.8,0,1.3-0.5,1.4-1
				c0-0.1,0-0.2,0-0.3L83.6,16.9L83.6,16.9z"/>
			<path class="st2" d="M87.6,12.6V14h1.5v0.8h-1.5v3.1c0,0.7,0.2,1.1,0.8,1.1c0.3,0,0.5,0,0.6-0.1v0.8c-0.2,0.1-0.5,0.1-0.9,0.1
				c-0.5,0-0.9-0.2-1.1-0.4c-0.3-0.3-0.4-0.8-0.4-1.5v-3.2h-0.9v-0.8h0.9v-1.1L87.6,12.6z"/>
			<path class="st2" d="M91.5,12.4c0,0.4-0.3,0.6-0.7,0.6c-0.4,0-0.6-0.3-0.6-0.6s0.3-0.7,0.7-0.7C91.2,11.7,91.5,12,91.5,12.4z
				 M90.3,19.8V14h1.1v5.8H90.3z"/>
			<path class="st2" d="M98.3,16.9c0,2.1-1.5,3.1-2.9,3.1c-1.6,0-2.8-1.2-2.8-3c0-1.9,1.3-3.1,2.9-3.1
				C97.2,13.9,98.3,15.1,98.3,16.9z M93.8,16.9c0,1.3,0.7,2.2,1.8,2.2c1,0,1.8-0.9,1.8-2.3c0-1-0.5-2.2-1.7-2.2
				C94.3,14.7,93.8,15.8,93.8,16.9z"/>
			<path class="st2" d="M99.7,15.6c0-0.6,0-1.1,0-1.6h0.9l0.1,1l0,0c0.3-0.5,1-1.1,1.9-1.1c0.8,0,2.1,0.5,2.1,2.5v3.5h-1.1v-3.3
				c0-0.9-0.3-1.7-1.3-1.7c-0.7,0-1.2,0.5-1.4,1.1c0,0.1-0.1,0.3-0.1,0.5V20h-1.1V15.6z"/>
			<path class="st2" d="M110.4,18.4c0,0.5,0,1,0.1,1.4h-0.9l-0.1-0.7l0,0c-0.3,0.5-0.9,0.9-1.8,0.9c-1.2,0-1.8-0.8-1.8-1.7
				c0-1.4,1.2-2.2,3.5-2.2V16c0-0.5-0.1-1.3-1.3-1.3c-0.6,0-1.1,0.2-1.5,0.4l-0.2-0.7c0.5-0.3,1.2-0.5,1.9-0.5
				c1.8,0,2.2,1.2,2.2,2.4L110.4,18.4L110.4,18.4z M109.4,16.9c-1.2,0-2.5,0.2-2.5,1.3c0,0.7,0.5,1,1,1c0.8,0,1.3-0.5,1.4-1
				c0-0.1,0-0.2,0-0.3L109.4,16.9L109.4,16.9z"/>
			<path class="st2" d="M112.1,11.3h1.1v8.5h-1.1V11.3z"/>
			<path class="st2" d="M117.5,11.9c0.5-0.1,1.2-0.2,1.9-0.2c1,0,1.7,0.2,2.2,0.6c0.4,0.3,0.7,0.8,0.7,1.4c0,0.8-0.5,1.5-1.4,1.8
				l0,0c0.8,0.2,1.7,0.8,1.7,2c0,0.7-0.3,1.2-0.7,1.6c-0.6,0.5-1.5,0.8-2.8,0.8c-0.7,0-1.3,0-1.6-0.1L117.5,11.9L117.5,11.9z
				 M118.6,15.2h0.9c1.1,0,1.7-0.6,1.7-1.4c0-0.9-0.7-1.3-1.8-1.3c-0.5,0-0.8,0-0.9,0.1v2.6C118.5,15.2,118.6,15.2,118.6,15.2z
				 M118.6,19c0.2,0,0.5,0,0.9,0c1.1,0,2.1-0.4,2.1-1.6c0-1.1-0.9-1.6-2.1-1.6h-0.9V19L118.6,19z"/>
			<path class="st2" d="M125.2,12.4c0,0.4-0.3,0.6-0.7,0.6c-0.4,0-0.6-0.3-0.6-0.6s0.3-0.7,0.7-0.7C124.9,11.7,125.2,12,125.2,12.4z
				 M124,19.8V14h1.1v5.8H124z"/>
			<path class="st2" d="M132.1,16.9c0,2.1-1.5,3.1-2.9,3.1c-1.6,0-2.8-1.2-2.8-3c0-1.9,1.3-3.1,2.9-3.1
				C130.9,13.9,132.1,15.1,132.1,16.9z M127.5,16.9c0,1.3,0.7,2.2,1.8,2.2c1,0,1.8-0.9,1.8-2.3c0-1-0.5-2.2-1.7-2.2
				C128,14.7,127.5,15.8,127.5,16.9z"/>
			<path class="st2" d="M133.4,11.3h1.1v8.5h-1.1V11.3z"/>
			<path class="st2" d="M141.5,16.9c0,2.1-1.5,3.1-2.9,3.1c-1.6,0-2.8-1.2-2.8-3c0-1.9,1.3-3.1,2.9-3.1
				C140.4,13.9,141.5,15.1,141.5,16.9z M136.9,16.9c0,1.3,0.7,2.2,1.8,2.2c1,0,1.8-0.9,1.8-2.3c0-1-0.5-2.2-1.7-2.2
				C137.4,14.7,136.9,15.8,136.9,16.9z"/>
			<path class="st2" d="M147.8,19c0,1.3-0.3,2.1-0.8,2.7c-0.6,0.5-1.4,0.7-2.1,0.7c-0.7,0-1.5-0.2-1.9-0.5l0.3-0.8
				c0.4,0.3,1,0.5,1.7,0.5c1.1,0,1.9-0.6,1.9-2V19l0,0c-0.3,0.5-0.9,1-1.8,1c-1.4,0-2.5-1.2-2.5-2.8c0-2,1.3-3.1,2.6-3.1
				c1,0,1.5,0.5,1.8,1l0,0v-0.9h0.9c0,0.4,0,0.9,0,1.6L147.8,19L147.8,19z M146.7,16.3c0-0.2,0-0.3-0.1-0.5
				c-0.2-0.6-0.7-1.1-1.5-1.1c-1,0-1.7,0.9-1.7,2.2c0,1.1,0.6,2.1,1.7,2.1c0.7,0,1.2-0.4,1.5-1.1c0.1-0.2,0.1-0.4,0.1-0.6V16.3
				L146.7,16.3z"/>
			<path class="st2" d="M149.9,14l1.3,3.4c0.1,0.4,0.3,0.8,0.4,1.2l0,0c0.1-0.3,0.2-0.8,0.4-1.2l1.2-3.4h1.1l-1.6,4.1
				c-0.8,2-1.3,3-2,3.6c-0.5,0.4-1,0.6-1.3,0.7l-0.3-0.9c0.3-0.1,0.6-0.3,0.9-0.5c0.3-0.2,0.6-0.6,0.9-1.2c0-0.1,0.1-0.2,0.1-0.3
				s0-0.1-0.1-0.3l-2.1-5.3L149.9,14L149.9,14z"/>
			<path class="st2" d="M160.2,16.2V17h-3v-0.8H160.2z"/>
			<path class="st2" d="M169.6,19.6c-0.4,0.2-1.2,0.4-2.1,0.4c-2.3,0-4-1.4-4-4.1c0-2.5,1.7-4.2,4.2-4.2c1,0,1.6,0.2,1.9,0.4
				l-0.3,0.9c-0.4-0.2-0.9-0.3-1.6-0.3c-1.9,0-3.2,1.2-3.2,3.3c0,2,1.1,3.2,3.1,3.2c0.6,0,1.3-0.1,1.7-0.3L169.6,19.6z"/>
			<path class="st2" d="M176,16.9c0,2.1-1.5,3.1-2.9,3.1c-1.6,0-2.8-1.2-2.8-3c0-1.9,1.3-3.1,2.9-3.1C174.9,13.9,176,15.1,176,16.9z
				 M171.4,16.9c0,1.3,0.7,2.2,1.8,2.2c1,0,1.8-0.9,1.8-2.3c0-1-0.5-2.2-1.7-2.2C172,14.7,171.4,15.8,171.4,16.9z"/>
			<path class="st2" d="M177.4,11.3h1.1v8.5h-1.1V11.3z"/>
			<path class="st2" d="M180.2,11.3h1.1v8.5h-1.1V11.3z"/>
			<path class="st2" d="M183.6,17.1c0,1.4,0.9,2,2,2c0.8,0,1.2-0.1,1.6-0.3l0.2,0.8c-0.4,0.2-1,0.4-1.9,0.4c-1.8,0-2.9-1.2-2.9-2.9
				s1-3.1,2.7-3.1c1.9,0,2.4,1.7,2.4,2.7c0,0.2,0,0.4,0,0.5L183.6,17.1L183.6,17.1z M186.7,16.4c0-0.7-0.3-1.7-1.5-1.7
				c-1.1,0-1.5,1-1.6,1.7H186.7z"/>
			<path class="st2" d="M194,19c0,1.3-0.3,2.1-0.8,2.7c-0.6,0.5-1.4,0.7-2.1,0.7c-0.7,0-1.5-0.2-1.9-0.5l0.3-0.8
				c0.4,0.3,1,0.5,1.7,0.5c1.1,0,1.9-0.6,1.9-2V19l0,0c-0.3,0.5-0.9,1-1.8,1c-1.4,0-2.5-1.2-2.5-2.8c0-2,1.3-3.1,2.6-3.1
				c1,0,1.5,0.5,1.8,1l0,0v-0.9h0.9c0,0.4,0,0.9,0,1.6L194,19L194,19z M193,16.3c0-0.2,0-0.3-0.1-0.5c-0.2-0.6-0.7-1.1-1.5-1.1
				c-1,0-1.7,0.9-1.7,2.2c0,1.1,0.6,2.1,1.7,2.1c0.7,0,1.2-0.4,1.5-1.1c0.1-0.2,0.1-0.4,0.1-0.6V16.3L193,16.3z"/>
			<path class="st2" d="M196.3,17.1c0,1.4,0.9,2,2,2c0.8,0,1.2-0.1,1.6-0.3l0.2,0.8c-0.4,0.2-1,0.4-1.9,0.4c-1.8,0-2.9-1.2-2.9-2.9
				s1-3.1,2.7-3.1c1.9,0,2.4,1.7,2.4,2.7c0,0.2,0,0.4,0,0.5L196.3,17.1L196.3,17.1z M199.4,16.4c0-0.7-0.3-1.7-1.5-1.7
				c-1.1,0-1.5,1-1.6,1.7H199.4z"/>
			<path class="st2" d="M209.6,16.9c0,2.1-1.5,3.1-2.9,3.1c-1.6,0-2.8-1.2-2.8-3c0-1.9,1.3-3.1,2.9-3.1
				C208.4,13.9,209.6,15.1,209.6,16.9z M205,16.9c0,1.3,0.7,2.2,1.8,2.2c1,0,1.8-0.9,1.8-2.3c0-1-0.5-2.2-1.7-2.2
				C205.5,14.7,205,15.8,205,16.9z"/>
			<path class="st2" d="M211,19.8v-5h-0.8V14h0.8v-0.3c0-0.8,0.2-1.6,0.7-2c0.4-0.4,0.9-0.5,1.4-0.5c0.4,0,0.7,0.1,0.9,0.2l-0.1,0.8
				c-0.2-0.1-0.4-0.1-0.7-0.1c-0.9,0-1.1,0.8-1.1,1.7v0.3h1.4v0.8h-1.4v5C212,19.8,211,19.8,211,19.8z"/>
			<path class="st2" d="M217,11.7h1.1v7.2h3.5v0.9h-4.5v-8.1H217z"/>
			<path class="st2" d="M223.8,12.4c0,0.4-0.3,0.6-0.7,0.6s-0.6-0.3-0.6-0.6s0.3-0.7,0.7-0.7C223.5,11.7,223.8,12,223.8,12.4z
				 M222.6,19.8V14h1.1v5.8H222.6z"/>
			<path class="st2" d="M225.5,19.8v-5h-0.8V14h0.8v-0.3c0-0.8,0.2-1.6,0.7-2c0.4-0.4,0.9-0.5,1.4-0.5c0.4,0,0.7,0.1,0.9,0.2
				l-0.1,0.8c-0.2-0.1-0.4-0.1-0.7-0.1c-0.9,0-1.1,0.8-1.1,1.7v0.3h1.4v0.8h-1.4v5C226.6,19.8,225.5,19.8,225.5,19.8z"/>
			<path class="st2" d="M229.3,17.1c0,1.4,0.9,2,2,2c0.8,0,1.2-0.1,1.6-0.3l0.2,0.8c-0.4,0.2-1,0.4-1.9,0.4c-1.8,0-2.9-1.2-2.9-2.9
				s1-3.1,2.7-3.1c1.9,0,2.4,1.7,2.4,2.7c0,0.2,0,0.4,0,0.5L229.3,17.1L229.3,17.1z M232.4,16.4c0-0.7-0.3-1.7-1.5-1.7
				c-1.1,0-1.5,1-1.6,1.7H232.4z"/>
			<path class="st2" d="M237.2,18.6c0.5,0.3,1.1,0.5,1.9,0.5c1.1,0,1.7-0.6,1.7-1.4c0-0.7-0.4-1.2-1.5-1.6c-1.3-0.5-2.1-1.2-2.1-2.3
				c0-1.3,1-2.2,2.6-2.2c0.8,0,1.4,0.2,1.8,0.4l-0.3,0.9c-0.3-0.2-0.8-0.4-1.5-0.4c-1.1,0-1.5,0.7-1.5,1.2c0,0.8,0.5,1.1,1.6,1.6
				c1.4,0.5,2.1,1.2,2.1,2.4s-0.9,2.3-2.8,2.3c-0.8,0-1.6-0.2-2.1-0.5L237.2,18.6z"/>
			<path class="st2" d="M247.4,19.6c-0.3,0.1-0.9,0.3-1.7,0.3c-1.8,0-2.9-1.2-2.9-3s1.2-3.1,3.1-3.1c0.6,0,1.2,0.2,1.5,0.3l-0.2,0.8
				c-0.3-0.1-0.6-0.3-1.2-0.3c-1.3,0-2.1,1-2.1,2.2c0,1.3,0.9,2.2,2,2.2c0.6,0,1-0.1,1.3-0.3L247.4,19.6z"/>
			<path class="st2" d="M249.9,12.4c0,0.4-0.3,0.6-0.7,0.6s-0.6-0.3-0.6-0.6s0.3-0.7,0.7-0.7C249.6,11.7,249.9,12,249.9,12.4z
				 M248.7,19.8V14h1.1v5.8H248.7z"/>
			<path class="st2" d="M252.1,17.1c0,1.4,0.9,2,2,2c0.8,0,1.2-0.1,1.6-0.3l0.2,0.8c-0.4,0.2-1,0.4-1.9,0.4c-1.8,0-2.9-1.2-2.9-2.9
				s1-3.1,2.7-3.1c1.9,0,2.4,1.7,2.4,2.7c0,0.2,0,0.4,0,0.5L252.1,17.1L252.1,17.1z M255.2,16.4c0-0.7-0.3-1.7-1.5-1.7
				c-1.1,0-1.5,1-1.6,1.7H255.2z"/>
			<path class="st2" d="M257.5,15.6c0-0.6,0-1.1,0-1.6h0.9l0.1,1l0,0c0.3-0.5,1-1.1,1.9-1.1c0.8,0,2.1,0.5,2.1,2.5v3.5h-1.1v-3.3
				c0-0.9-0.3-1.7-1.3-1.7c-0.7,0-1.2,0.5-1.4,1.1c0,0.1-0.1,0.3-0.1,0.5V20h-1.1V15.6L257.5,15.6z"/>
			<path class="st2" d="M268.3,19.6c-0.3,0.1-0.9,0.3-1.7,0.3c-1.8,0-2.9-1.2-2.9-3s1.2-3.1,3.1-3.1c0.6,0,1.2,0.2,1.5,0.3l-0.2,0.8
				c-0.3-0.1-0.6-0.3-1.2-0.3c-1.3,0-2.1,1-2.1,2.2c0,1.3,0.9,2.2,2,2.2c0.6,0,1-0.1,1.3-0.3L268.3,19.6z"/>
			<path class="st2" d="M270.1,17.1c0,1.4,0.9,2,2,2c0.8,0,1.2-0.1,1.6-0.3l0.2,0.8c-0.4,0.2-1,0.4-1.9,0.4c-1.8,0-2.9-1.2-2.9-2.9
				s1-3.1,2.7-3.1c1.9,0,2.4,1.7,2.4,2.7c0,0.2,0,0.4,0,0.5L270.1,17.1L270.1,17.1z M273.1,16.4c0-0.7-0.3-1.7-1.5-1.7
				c-1.1,0-1.5,1-1.6,1.7H273.1z"/>
			<path class="st2" d="M275.3,18.8c0.3,0.2,0.9,0.4,1.4,0.4c0.8,0,1.1-0.4,1.1-0.9s-0.3-0.8-1.1-1.1c-1.1-0.4-1.5-0.9-1.5-1.6
				c0-0.9,0.8-1.7,2-1.7c0.6,0,1.1,0.2,1.4,0.4l-0.3,0.8c-0.2-0.1-0.6-0.3-1.2-0.3s-1,0.4-1,0.8c0,0.5,0.3,0.7,1.1,1
				c1,0.4,1.5,0.9,1.5,1.7c0,1-0.8,1.8-2.2,1.8c-0.6,0-1.2-0.2-1.6-0.4L275.3,18.8z"/>
			<path class="st2" d="M285.2,16.2V17h-3v-0.8H285.2z"/>
			<path class="st2" d="M290.1,11.7v4.8c0,1.8,0.8,2.6,1.9,2.6c1.2,0,2-0.8,2-2.6v-4.8h1.1v4.7c0,2.5-1.3,3.5-3.1,3.5
				c-1.7,0-2.9-0.9-2.9-3.5v-4.8L290.1,11.7L290.1,11.7z"/>
			<path class="st2" d="M296.8,15.6c0-0.6,0-1.1,0-1.6h0.9l0.1,1l0,0c0.3-0.5,1-1.1,1.9-1.1c0.8,0,2.1,0.5,2.1,2.5v3.5h-1.1v-3.3
				c0-0.9-0.3-1.7-1.3-1.7c-0.7,0-1.2,0.5-1.4,1.1c0,0.1-0.1,0.3-0.1,0.5V20h-1.1V15.6L296.8,15.6z"/>
			<path class="st2" d="M304.6,12.4c0,0.4-0.3,0.6-0.7,0.6c-0.4,0-0.6-0.3-0.6-0.6s0.3-0.7,0.7-0.7C304.3,11.7,304.6,12,304.6,12.4z
				 M303.4,19.8V14h1.1v5.8H303.4z"/>
			<path class="st2" d="M306.6,14l1.1,3.2c0.2,0.5,0.3,1,0.5,1.5l0,0c0.1-0.5,0.3-1,0.5-1.5l1.1-3.2h1.1l-2.3,5.8h-1l-2.2-5.8H306.6
				z"/>
			<path class="st2" d="M312.5,17.1c0,1.4,0.9,2,2,2c0.8,0,1.2-0.1,1.6-0.3l0.2,0.8c-0.4,0.2-1,0.4-1.9,0.4c-1.8,0-2.9-1.2-2.9-2.9
				s1-3.1,2.7-3.1c1.9,0,2.4,1.7,2.4,2.7c0,0.2,0,0.4,0,0.5L312.5,17.1L312.5,17.1z M315.6,16.4c0-0.7-0.3-1.7-1.5-1.7
				c-1.1,0-1.5,1-1.6,1.7H315.6z"/>
			<path class="st2" d="M317.9,15.8c0-0.7,0-1.3,0-1.8h0.9v1.2l0,0c0.3-0.8,0.9-1.3,1.6-1.3c0.1,0,0.2,0,0.3,0v1c-0.1,0-0.2,0-0.4,0
				c-0.7,0-1.3,0.6-1.4,1.3c0,0.1,0,0.3,0,0.5v3.1h-1.1v-4H317.9z"/>
			<path class="st2" d="M321.7,18.8c0.3,0.2,0.9,0.4,1.4,0.4c0.8,0,1.1-0.4,1.1-0.9s-0.3-0.8-1.1-1.1c-1.1-0.4-1.5-0.9-1.5-1.6
				c0-0.9,0.8-1.7,2-1.7c0.6,0,1.1,0.2,1.4,0.4l-0.3,0.8c-0.2-0.1-0.6-0.3-1.2-0.3s-1,0.4-1,0.8c0,0.5,0.3,0.7,1.1,1
				c1,0.4,1.5,0.9,1.5,1.7c0,1-0.8,1.8-2.2,1.8c-0.6,0-1.2-0.2-1.6-0.4L321.7,18.8z"/>
			<path class="st2" d="M327.7,12.4c0,0.4-0.3,0.6-0.7,0.6c-0.4,0-0.6-0.3-0.6-0.6s0.3-0.7,0.7-0.7C327.5,11.7,327.7,12,327.7,12.4z
				 M326.6,19.8V14h1.1v5.8H326.6z"/>
			<path class="st2" d="M330.6,12.6V14h1.5v0.8h-1.5v3.1c0,0.7,0.2,1.1,0.8,1.1c0.3,0,0.5,0,0.6-0.1v0.8c-0.2,0.1-0.5,0.1-0.9,0.1
				c-0.5,0-0.9-0.2-1.1-0.4c-0.3-0.3-0.4-0.8-0.4-1.5v-3.2h-0.9v-0.8h0.9v-1.1L330.6,12.6z"/>
			<path class="st2" d="M333.8,14l1.3,3.4c0.1,0.4,0.3,0.8,0.4,1.2l0,0c0.1-0.3,0.2-0.8,0.4-1.2l1.2-3.4h1.1l-1.6,4.1
				c-0.8,2-1.3,3-2,3.6c-0.5,0.4-1,0.6-1.3,0.7l-0.3-0.9c0.3-0.1,0.6-0.3,0.9-0.5s0.6-0.6,0.9-1.2c0-0.1,0.1-0.2,0.1-0.3
				s0-0.1-0.1-0.3l-2.1-5.3L333.8,14L333.8,14z"/>
			<path class="st2" d="M346.9,16.9c0,2.1-1.5,3.1-2.9,3.1c-1.6,0-2.8-1.2-2.8-3c0-1.9,1.3-3.1,2.9-3.1
				C345.8,13.9,346.9,15.1,346.9,16.9z M342.3,16.9c0,1.3,0.7,2.2,1.8,2.2c1,0,1.8-0.9,1.8-2.3c0-1-0.5-2.2-1.7-2.2
				C342.9,14.7,342.3,15.8,342.3,16.9z"/>
			<path class="st2" d="M348.3,19.8v-5h-0.8V14h0.8v-0.3c0-0.8,0.2-1.6,0.7-2c0.4-0.4,0.9-0.5,1.4-0.5c0.4,0,0.7,0.1,0.9,0.2
				l-0.1,0.8c-0.2-0.1-0.4-0.1-0.7-0.1c-0.9,0-1.1,0.8-1.1,1.7v0.3h1.4v0.8h-1.4v5C349.4,19.8,348.3,19.8,348.3,19.8z"/>
			<path class="st2" d="M354.3,11.9c0.6-0.1,1.4-0.2,2.2-0.2c1.5,0,2.6,0.4,3.3,1c0.7,0.7,1.2,1.6,1.2,2.9c0,1.3-0.4,2.4-1.2,3.1
				c-0.8,0.8-2,1.2-3.6,1.2c-0.8,0-1.4,0-1.9-0.1V11.9L354.3,11.9z M355.4,19c0.3,0,0.6,0,1.1,0c2.2,0,3.4-1.2,3.4-3.4
				c0-1.9-1.1-3.1-3.3-3.1c-0.5,0-0.9,0-1.2,0.1V19z"/>
			<path class="st2" d="M367.2,18.2c0,0.6,0,1.1,0,1.6h-0.9l-0.1-0.9l0,0c-0.3,0.5-0.9,1.1-1.9,1.1c-0.9,0-2-0.5-2-2.5v-3.4h1.1v3.2
				c0,1.1,0.3,1.9,1.3,1.9c0.7,0,1.2-0.5,1.4-1c0.1-0.1,0.1-0.3,0.1-0.5v-3.5h1.1L367.2,18.2L367.2,18.2z"/>
			<path class="st2" d="M368.9,15.6c0-0.6,0-1.1,0-1.6h0.9l0.1,1l0,0c0.3-0.5,1-1.1,1.9-1.1c0.8,0,2.1,0.5,2.1,2.5v3.5h-1.1v-3.3
				c0-0.9-0.3-1.7-1.3-1.7c-0.7,0-1.2,0.5-1.4,1.1c0,0.1-0.1,0.3-0.1,0.5V20h-1.1V15.6L368.9,15.6z"/>
			<path class="st2" d="M380.6,11.3v7c0,0.5,0,1.1,0,1.5h-0.9v-1l0,0c-0.3,0.6-1,1.1-2,1.1c-1.4,0-2.5-1.2-2.5-3
				c0-1.9,1.2-3.1,2.6-3.1c0.9,0,1.5,0.4,1.8,0.9l0,0v-3.4H380.6z M379.5,16.4c0-0.1,0-0.3,0-0.4c-0.2-0.7-0.7-1.2-1.5-1.2
				c-1.1,0-1.7,1-1.7,2.2s0.6,2.1,1.7,2.1c0.7,0,1.4-0.5,1.5-1.3c0-0.1,0-0.3,0-0.5V16.4L379.5,16.4z"/>
			<path class="st2" d="M382.9,17.1c0,1.4,0.9,2,2,2c0.8,0,1.2-0.1,1.6-0.3l0.2,0.8c-0.4,0.2-1,0.4-1.9,0.4c-1.8,0-2.9-1.2-2.9-2.9
				s1-3.1,2.7-3.1c1.9,0,2.4,1.7,2.4,2.7c0,0.2,0,0.4,0,0.5L382.9,17.1L382.9,17.1z M386,16.4c0-0.7-0.3-1.7-1.5-1.7
				c-1.1,0-1.5,1-1.6,1.7H386z"/>
			<path class="st2" d="M389,17.1c0,1.4,0.9,2,2,2c0.8,0,1.2-0.1,1.6-0.3l0.2,0.8c-0.4,0.2-1,0.4-1.9,0.4c-1.8,0-2.9-1.2-2.9-2.9
				s1-3.1,2.7-3.1c1.9,0,2.4,1.7,2.4,2.7c0,0.2,0,0.4,0,0.5L389,17.1L389,17.1z M392.1,16.4c0-0.7-0.3-1.7-1.5-1.7
				c-1.1,0-1.5,1-1.6,1.7H392.1z"/>
		</g>
	</g>
</g>
<text transform="matrix(1 0 0 1 198.4862 11.4136)" class="st3 st4">1.1</text>
<text transform="matrix(1 0 0 1 0 21.4448)"><tspan x="0" y="0" class="st5 st3 st6">A</tspan><tspan x="12.7" y="0" class="st3 st7">mino </tspan><tspan x="56.8" y="0" class="st8 st3 st6">A</tspan><tspan x="69.5" y="0" class="st3 st7">cid </tspan><tspan x="96.4" y="0" class="st9 st3 st6">Con</tspan><tspan x="130.8" y="0" class="st3 st7">servation</tspan></text>
</svg>
