<?xml version="1.0" encoding="utf-8"?>
<!-- Generator: Adobe Illustrator 15.1.0, SVG Export Plug-In . SVG Version: 6.00 Build 0)  -->
<!DOCTYPE svg PUBLIC "-//W3C//DTD SVG 1.1//EN" "http://www.w3.org/Graphics/SVG/1.1/DTD/svg11.dtd">
<svg version="1.1" id="Layer_1" xmlns="http://www.w3.org/2000/svg" xmlns:xlink="http://www.w3.org/1999/xlink" x="0px" y="0px"
	 width="356.589px" height="398.449px" viewBox="0 0 356.589 398.449" enable-background="new 0 0 356.589 398.449"
	 xml:space="preserve">
<g>
	<path fill="none" stroke="#000000" stroke-width="3" stroke-miterlimit="10" d="M123.57,260.103
		c-11.176-21.831-16.763-47.76-16.763-77.797c0-3.73,0.103-7.384,0.27-10.988c-4.151,0.134-8.696,0.355-13.664,0.671v70.095
		l0.411,62.695c10.552,2.467,21.377,3.7,32.478,3.7c13.383,0,24.781-1.473,34.202-4.412
		C145.364,293.261,133.047,278.615,123.57,260.103z"/>
	<path fill="none" stroke="#000000" stroke-width="3" stroke-miterlimit="10" d="M164.754,55.525
		c-8.979-3.482-20.897-5.228-35.78-5.228c-12.744,0-23.981,1.028-33.711,3.083c-1.233,12.334-1.85,33.85-1.85,64.545v37.001
		c1.803,0.146,3.669,0.27,5.597,0.377c2.968,0.163,6.1,0.277,9.362,0.351c4.066-33.47,16.118-60.98,36.188-82.505
		C150.817,66.44,157.548,60.567,164.754,55.525z"/>
	<path fill="none" stroke="#000000" stroke-width="3" stroke-miterlimit="10" d="M244.086,257.089
		c-2.745,9.182-7.781,18.295-15.108,27.339c-5.486,6.77-11.84,12.809-19.054,18.119c9.989,3.851,20.792,5.783,32.417,5.783
		c8.833,0,17.851-1.092,27.059-3.275c9.203-2.184,16.785-5.26,22.75-9.229c0.958-4.232,1.434-12.768,1.434-25.602v-22.029
		c0-10.449,0.118-9.66-0.945-12.241c-1.062-2.579-3.696-4.395-7.9-5.459c-1.649-0.415-17.314-1.508-36.589-2.7
		c0.017,0.72,0.049,1.43,0.049,2.161C248.198,238.863,246.827,247.907,244.086,257.089z"/>
	<path fill="none" stroke="#000000" stroke-width="3" stroke-miterlimit="10" d="M204.825,236.327c0-3.844-0.219-7.533-0.643-11.077
		c-15.57-0.842-28.464-1.466-32.944-1.552l-1.435-1.787l-0.65-16.039l1.434-1.786l28.436,1.543
		c-2.705-6.227-6.346-11.795-10.95-16.683c-8.346-8.854-23.938-14.4-46.769-16.641c-0.002,0.423-0.013,0.842-0.013,1.267
		c0,24.345,4.094,47.007,12.293,67.975c7.693,19.694,18.538,35.334,32.524,46.92c4.41-4.542,8.017-9.755,10.804-15.653
		C202.183,261.646,204.825,249.483,204.825,236.327z"/>
	<path fill="none" stroke="#000000" stroke-width="3" stroke-miterlimit="10" d="M152.702,109.368
		c-5.445,13.782-8.932,28.674-10.479,44.659c15.016-2.259,26.237-6.746,33.618-13.49c11.101-10.141,16.65-24.05,16.65-41.729
		c0-10.277-2.129-19.014-6.372-26.207c-0.943-1.598-2.014-3.107-3.197-4.54C169.752,77.979,159.668,91.74,152.702,109.368z"/>
	<path fill="#FFFFFF" stroke="#000000" stroke-width="3" stroke-miterlimit="10" d="M169.153,205.872l0.65,16.039l1.435,1.787
		c4.48,0.086,17.374,0.71,32.944,1.552c-0.854-7.151-2.58-13.688-5.16-19.621l-28.436-1.543L169.153,205.872z"/>
	<path fill="#FFFFFF" stroke="#000000" stroke-width="3" stroke-miterlimit="10" d="M334.132,209.097
		c-11.711,0.795-20.591,1.19-26.661,1.19c-10.534,0-24.158-0.326-40.868-0.992l-21.391-1.16c1.792,6.001,2.771,12.555,2.937,19.659
		c19.274,1.192,34.939,2.285,36.589,2.7c4.204,1.064,6.839,2.88,7.9,5.459c1.063,2.581,0.945,1.792,0.945,12.241v22.029
		c0,12.834-0.476,21.369-1.434,25.602c-5.965,3.97-13.547,7.046-22.75,9.229c-9.208,2.184-18.226,3.275-27.059,3.275
		c-11.625,0-22.428-1.933-32.417-5.783c-7.479-2.883-14.502-6.837-21.064-11.881c-0.931-0.716-1.848-1.45-2.752-2.199
		c-13.986-11.586-24.831-27.226-32.524-46.92c-8.199-20.968-12.293-43.63-12.293-67.975c0-0.425,0.011-0.844,0.013-1.267
		c-7.733-0.759-16.295-1.14-25.69-1.14c-2.619,0-5.473,0.053-8.537,0.151c-0.167,3.604-0.27,7.258-0.27,10.988
		c0,30.037,5.586,55.966,16.763,77.797c9.478,18.513,21.794,33.158,36.935,43.964c2.713,1.937,5.507,3.765,8.402,5.453
		c4.911,2.865,9.978,5.354,15.193,7.481c15.014,6.122,31.287,9.19,48.823,9.19c30.754,0,60.714-6.946,89.875-20.839l0.96-1.986
		c-1.175-13.494-1.757-25.998-1.757-37.509c0-10.188,0.24-18.821,0.718-25.9c0.48-7.073,0.878-11.013,1.195-11.809
		c0.318-0.793,1.44-1.914,3.354-3.374l7.823-5.755l0.636-2.381v-5.953L334.132,209.097z"/>
	<path fill="#FFFFFF" stroke="#000000" stroke-width="3" stroke-miterlimit="10" d="M323.436,51.517
		c-23.733-12.57-50.502-18.854-80.295-18.854c-16.157,0-31.091,2.15-44.807,6.436c-12.15,3.797-23.346,9.27-33.58,16.428
		c-7.206,5.042-13.938,10.915-20.193,17.624c-20.07,21.524-32.123,49.035-36.188,82.505c2.664,0.061,5.41,0.095,8.268,0.095
		c9.504,0,18.016-0.583,25.583-1.722c1.547-15.985,5.033-30.877,10.479-44.659c6.967-17.628,17.051-31.39,30.221-41.307
		c1.213-0.913,2.441-1.806,3.705-2.653c9.789-6.558,20.538-10.965,32.231-13.246c6.229-1.215,12.721-1.837,19.489-1.837
		c9.154,0,17.721,0.964,25.705,2.878c7.98,1.918,15.936,4.962,23.864,9.129c7.928,4.168,12.852,7.216,14.766,9.129
		c1.915,1.92,3.06,3.475,3.433,4.664c0.372,1.191,0.719,5.231,1.037,12.107l0.799,21.037l1.276,1.588h7.345l1.277-1.389
		c2.555-28.312,4.788-46.904,6.705-55.77L323.436,51.517z"/>
	<path fill="#1C75BC" stroke="#000000" stroke-width="3" stroke-miterlimit="10" d="M248.149,227.794
		c-0.165-7.104-1.145-13.658-2.937-19.659c-0.852-2.85-1.862-5.59-3.079-8.19c-4.042-8.634-9.558-15.657-16.547-21.07
		s-15.283-9.421-24.872-12.025c-9.593-2.603-21.789-4.591-36.59-5.961c24.667-5.618,42.479-14.937,53.445-27.956
		c10.963-13.019,16.444-27.133,16.444-42.345c0-11.923-3.288-22.577-9.866-31.964c-1.632-2.328-3.396-4.481-5.289-6.461
		c-11.693,2.281-22.442,6.688-32.231,13.246c-1.264,0.848-2.492,1.74-3.705,2.653c1.184,1.433,2.254,2.942,3.197,4.54
		c4.243,7.193,6.372,15.93,6.372,26.207c0,17.679-5.55,31.588-16.65,41.729c-7.381,6.744-18.603,11.231-33.618,13.49
		c-7.566,1.139-16.078,1.722-25.583,1.722c-2.858,0-5.604-0.034-8.268-0.095c-3.263-0.073-6.394-0.188-9.362-0.351
		c-1.928-0.107-3.794-0.231-5.597-0.377v-37.001c0-30.695,0.617-52.211,1.85-64.545c9.73-2.055,20.967-3.083,33.711-3.083
		c14.883,0,26.802,1.745,35.78,5.228c10.234-7.158,21.43-12.631,33.58-16.428c-0.099-0.034-0.194-0.072-0.293-0.105
		c-10.826-3.699-25.488-5.55-43.989-5.55c-4.801,0-12.539,0.137-23.229,0.411c-33.167,1.096-52.143,1.645-56.939,1.645
		c-12.745,0-30.834-0.549-54.267-1.645l-1.645,1.439V45.57l1.645,1.439l15.623,1.232c4.796,0.549,8.188,1.199,10.175,1.953
		c1.983,0.754,3.524,1.678,4.625,2.774c1.096,1.097,1.88,3.015,2.364,5.756c0.479,2.741,0.852,7.298,1.13,13.67
		c0.274,6.372,0.411,14.629,0.411,24.769l0.206,46.662v75.44c0,12.059-0.381,29.531-1.13,52.417
		c-0.754,22.885-1.747,35.014-2.981,36.384c-1.233,1.37-5.829,3.837-13.772,7.4l-1.645,2.055v6.783l1.645,1.646
		c13.567-1.097,25.005-1.646,34.328-1.646c1.508,0,11.375,0.206,29.601,0.617c16.444,0.686,26.311,1.028,29.6,1.028
		c16.166,0,29.704-1.439,40.599-4.317c4.612-1.218,9.18-2.775,13.705-4.633c-5.216-2.127-10.282-4.616-15.193-7.481
		c-2.896-1.688-5.689-3.517-8.402-5.453c-9.421,2.939-20.819,4.412-34.202,4.412c-11.101,0-21.926-1.233-32.478-3.7l-0.411-62.695
		v-70.095c4.967-0.315,9.513-0.537,13.664-0.671c3.063-0.099,5.918-0.151,8.537-0.151c9.395,0,17.957,0.381,25.69,1.14
		c22.831,2.24,38.423,7.786,46.769,16.641c4.604,4.888,8.245,10.456,10.95,16.683c2.58,5.934,4.306,12.47,5.16,19.621
		c0.424,3.544,0.643,7.233,0.643,11.077c0,13.156-2.642,25.318-7.913,36.486c-2.787,5.898-6.394,11.111-10.804,15.653
		c0.904,0.749,1.821,1.483,2.752,2.199c6.562,5.044,13.586,8.998,21.064,11.881c7.214-5.311,13.567-11.35,19.054-18.119
		c7.327-9.044,12.363-18.157,15.108-27.339c2.74-9.182,4.111-18.226,4.111-27.134C248.198,229.224,248.166,228.514,248.149,227.794z
		"/>
</g>
<g>
	<path stroke="#000000" stroke-miterlimit="10" d="M21.336,348.7h-7.667v-2.768h18.663v2.768h-7.705v22.439h-3.291V348.7z"/>
	<path stroke="#000000" stroke-miterlimit="10" d="M38.393,345.933v10.547h12.192v-10.547h3.292v25.207h-3.292v-11.818H38.393
		v11.818h-3.291v-25.207H38.393z"/>
	<path stroke="#000000" stroke-miterlimit="10" d="M72.542,359.321h-9.761v9.088h10.92v2.73H59.49v-25.207h13.65v2.73H62.781v7.966
		h9.761V359.321z"/>
	<path fill="#1C75BC" stroke="#1C75BC" stroke-miterlimit="10" d="M85.86,346.307c1.421-0.337,3.703-0.562,5.947-0.562
		c3.253,0,5.348,0.562,6.881,1.833c1.309,0.973,2.132,2.469,2.132,4.45c0,2.469-1.646,4.601-4.264,5.535v0.112
		c2.394,0.562,5.198,2.543,5.198,6.283c0,2.169-0.86,3.853-2.169,5.049c-1.72,1.608-4.562,2.356-8.677,2.356
		c-2.244,0-3.964-0.149-5.049-0.3V346.307z M89.114,356.629h2.955c3.403,0,5.423-1.833,5.423-4.264c0-2.917-2.207-4.114-5.498-4.114
		c-1.496,0-2.356,0.112-2.88,0.225V356.629z M89.114,368.671c0.673,0.112,1.571,0.15,2.73,0.15c3.366,0,6.47-1.234,6.47-4.899
		c0-3.403-2.955-4.862-6.507-4.862h-2.693V368.671z"/>
	<path fill="#1C75BC" stroke="#1C75BC" stroke-miterlimit="10" d="M110.211,363.211l-2.618,7.929h-3.366l8.602-25.207h3.89
		l8.602,25.207h-3.479l-2.692-7.929H110.211z M118.514,360.668l-2.506-7.256c-0.561-1.646-0.935-3.142-1.309-4.6h-0.075
		c-0.374,1.458-0.748,3.029-1.271,4.562l-2.468,7.293H118.514z"/>
	<path fill="#1C75BC" stroke="#1C75BC" stroke-miterlimit="10" d="M129.027,346.27c1.646-0.3,4.039-0.524,6.246-0.524
		c3.479,0,5.76,0.674,7.293,2.058c1.234,1.122,1.982,2.842,1.982,4.824c0,3.291-2.095,5.498-4.712,6.396v0.112
		c1.907,0.673,3.066,2.468,3.665,5.086c0.823,3.516,1.421,5.946,1.945,6.919h-3.366c-0.411-0.748-0.972-2.88-1.646-6.021
		c-0.748-3.478-2.132-4.787-5.086-4.899h-3.066v10.921h-3.254V346.27z M132.281,357.751h3.329c3.478,0,5.685-1.907,5.685-4.787
		c0-3.254-2.356-4.675-5.797-4.675c-1.571,0-2.655,0.112-3.216,0.262V357.751z"/>
	<path fill="#1C75BC" stroke="#1C75BC" stroke-miterlimit="10" d="M154.274,348.7h-7.667v-2.768h18.663v2.768h-7.705v22.439h-3.291
		V348.7z"/>
	<path fill="#1C75BC" stroke="#1C75BC" stroke-miterlimit="10" d="M188.61,358.274c0,8.639-5.273,13.276-11.706,13.276
		c-6.694,0-11.332-5.198-11.332-12.828c0-8.003,4.937-13.239,11.669-13.239C184.159,345.483,188.61,350.757,188.61,358.274z
		 M169.013,358.648c0,5.423,2.917,10.247,8.078,10.247c5.162,0,8.078-4.75,8.078-10.472c0-5.049-2.617-10.285-8.04-10.285
		S169.013,353.15,169.013,358.648z"/>
	<path fill="#1C75BC" stroke="#1C75BC" stroke-miterlimit="10" d="M192.84,371.14v-25.207h3.59l8.041,12.753
		c1.833,2.955,3.329,5.61,4.488,8.19l0.111-0.037c-0.299-3.366-0.373-6.433-0.373-10.359v-10.547h3.066v25.207h-3.291l-8.004-12.791
		c-1.758-2.805-3.439-5.685-4.674-8.414l-0.113,0.037c0.188,3.179,0.225,6.208,0.225,10.396v10.771H192.84z"/>
	<path fill="#5E0615" stroke="#000000" stroke-miterlimit="10" d="M244.606,370.018c-1.459,0.562-4.377,1.384-7.779,1.384
		c-3.814,0-6.957-0.973-9.424-3.328c-2.17-2.095-3.516-5.461-3.516-9.388c0-7.518,5.197-13.015,13.65-13.015
		c2.916,0,5.236,0.636,6.32,1.159l-0.822,2.655c-1.348-0.636-3.029-1.084-5.574-1.084c-6.133,0-10.135,3.814-10.135,10.135
		c0,6.396,3.814,10.173,9.725,10.173c2.131,0,3.59-0.3,4.338-0.674v-7.517h-5.086V357.9h8.303V370.018z"/>
	<path fill="#5E0615" stroke="#000000" stroke-miterlimit="10" d="M249.547,346.27c1.645-0.3,4.039-0.524,6.244-0.524
		c3.479,0,5.76,0.674,7.293,2.058c1.234,1.122,1.982,2.842,1.982,4.824c0,3.291-2.094,5.498-4.713,6.396v0.112
		c1.908,0.673,3.068,2.468,3.666,5.086c0.822,3.516,1.422,5.946,1.945,6.919h-3.367c-0.41-0.748-0.973-2.88-1.645-6.021
		c-0.748-3.478-2.133-4.787-5.086-4.899h-3.068v10.921h-3.252V346.27z M252.799,357.751h3.33c3.477,0,5.684-1.907,5.684-4.787
		c0-3.254-2.355-4.675-5.797-4.675c-1.57,0-2.654,0.112-3.217,0.262V357.751z"/>
	<path fill="#5E0615" stroke="#000000" stroke-miterlimit="10" d="M291.325,358.274c0,8.639-5.273,13.276-11.705,13.276
		c-6.695,0-11.332-5.198-11.332-12.828c0-8.003,4.936-13.239,11.668-13.239C286.874,345.483,291.325,350.757,291.325,358.274z
		 M271.727,358.648c0,5.423,2.918,10.247,8.078,10.247c5.162,0,8.078-4.75,8.078-10.472c0-5.049-2.617-10.285-8.041-10.285
		C274.42,348.139,271.727,353.15,271.727,358.648z"/>
	<path fill="#5E0615" stroke="#000000" stroke-miterlimit="10" d="M298.809,345.933v14.96c0,5.609,2.506,8.003,5.871,8.003
		c3.703,0,6.135-2.468,6.135-8.003v-14.96h3.291v14.735c0,7.741-4.078,10.883-9.537,10.883c-5.162,0-9.051-2.917-9.051-10.771
		v-14.848H298.809z"/>
	<path fill="#5E0615" stroke="#000000" stroke-miterlimit="10" d="M319.756,346.231c1.57-0.262,3.627-0.486,6.246-0.486
		c3.217,0,5.572,0.748,7.068,2.095c1.346,1.197,2.207,3.029,2.207,5.273c0,2.281-0.674,4.076-1.945,5.386
		c-1.758,1.832-4.525,2.768-7.705,2.768c-0.973,0-1.869-0.038-2.617-0.225v10.098h-3.254V346.231z M323.01,358.387
		c0.711,0.187,1.607,0.262,2.693,0.262c3.926,0,6.32-1.945,6.32-5.349c0-3.365-2.395-4.974-5.947-4.974
		c-1.422,0-2.506,0.112-3.066,0.262V358.387z"/>
</g>
</svg>
