<?xml version="1.0" encoding="utf-8"?>
<!-- Generator: Adobe Illustrator 21.0.0, SVG Export Plug-In . SVG Version: 6.00 Build 0)  -->
<svg version="1.1" id="Layer_1" xmlns="http://www.w3.org/2000/svg" xmlns:xlink="http://www.w3.org/1999/xlink" x="0px" y="0px"
	 viewBox="0 0 176.3 46.3" style="enable-background:new 0 0 176.3 46.3;" xml:space="preserve">
<style type="text/css">
	.st0{display:none;}
	.st1{display:inline;}
	.st2{fill:#1C75BC;}
	.st3{font-family:'BookAntiqua';}
	.st4{font-size:36px;}
	.st5{font-size:22px;}
</style>
<g id="Layer_1_1_" class="st0">
	<g class="st1">
		<g>
			<path class="st2" d="M0.4-4.9h-12.3v-4.4h29.9v4.4H5.7v36H0.4V-4.9z"/>
			<path class="st2" d="M22-11.5h5.3V6.7h0.1c0.8-1.5,2.2-2.9,3.8-3.8c1.6-0.9,3.4-1.4,5.4-1.4c3.9,0,10.1,2.4,10.1,12.4v17.3h-5.3
				V14.4c0-4.7-1.7-8.6-6.7-8.6c-3.4,0-6.1,2.4-7.1,5.2c-0.3,0.8-0.4,1.6-0.4,2.5v17.5H22L22-11.5L22-11.5z"/>
			<path class="st2" d="M58.2,17.6c0.1,7.1,4.6,10.1,10,10.1c3.8,0,6.1-0.7,8-1.5l1,3.8c-1.9,0.8-5.1,1.9-9.7,1.9
				c-8.9,0-14.3-5.9-14.3-14.7S58.3,1.5,66.8,1.5c9.5,0,12,8.3,12,13.6c0,1.1-0.1,1.9-0.2,2.5C78.6,17.6,58.2,17.6,58.2,17.6z
				 M73.7,13.8c0.1-3.3-1.4-8.5-7.3-8.5c-5.4,0-7.7,4.9-8.1,8.5H73.7z"/>
			<path class="st2" d="M98.2-8.7c2.3-0.5,5.9-0.9,9.5-0.9c5.2,0,8.6,0.9,11,2.9c2.1,1.6,3.4,4,3.4,7.1c0,4-2.6,7.4-6.8,8.9v0.2
				c3.8,0.9,8.3,4.1,8.3,10.1c0,3.5-1.4,6.2-3.5,8.1c-2.8,2.6-7.3,3.8-13.9,3.8c-3.6,0-6.4-0.2-8.1-0.5L98.2-8.7L98.2-8.7z
				 M103.5,7.8h4.7c5.5,0,8.7-2.9,8.7-6.8c0-4.7-3.5-6.6-8.8-6.6c-2.4,0-3.8,0.2-4.6,0.4C103.5-5.2,103.5,7.8,103.5,7.8z
				 M103.5,27.2c1.1,0.2,2.5,0.2,4.4,0.2c5.4,0,10.4-2,10.4-7.9c0-5.5-4.7-7.8-10.4-7.8h-4.3C103.5,11.7,103.5,27.2,103.5,27.2z"/>
			<path class="st2" d="M151,24.2c0,2.5,0.1,5,0.4,7h-4.7l-0.4-3.7h-0.2c-1.6,2.3-4.7,4.3-8.9,4.3c-5.9,0-8.9-4.1-8.9-8.3
				c0-7,6.2-10.9,17.5-10.8V12c0-2.3-0.7-6.7-6.6-6.7c-2.8,0-5.6,0.8-7.6,2.2L130.3,4c2.4-1.5,5.9-2.5,9.6-2.5c8.9,0,11,6.1,11,11.8
				V24.2z M145.9,16.3c-5.8-0.1-12.3,0.9-12.3,6.5c0,3.5,2.3,5,4.9,5c3.8,0,6.3-2.4,7.1-4.9c0.2-0.6,0.2-1.2,0.2-1.7L145.9,16.3
				L145.9,16.3z"/>
			<path class="st2" d="M159.5,11.1c0-3.4-0.1-6.4-0.2-9.1h4.6l0.2,5.8h0.2c1.3-3.9,4.6-6.4,8.1-6.4c0.5,0,1,0.1,1.4,0.1v5
				c-0.5-0.1-1.1-0.1-1.8-0.1c-3.7,0-6.4,2.8-7.1,6.7c-0.1,0.7-0.2,1.6-0.2,2.5v15.5h-5.3V11.1z"/>
			<path class="st2" d="M186.9-4.9v7h7.6v4h-7.6v15.7c0,3.6,1,5.6,4,5.6c1.4,0,2.3-0.1,3.1-0.4l0.2,4c-1,0.4-2.6,0.7-4.7,0.7
				c-2.5,0-4.4-0.8-5.7-2.2c-1.4-1.6-2-4.2-2-7.6V6.1h-4.5v-4h4.5v-5.4L186.9-4.9z"/>
			<path class="st2" d="M226.3,16.4c0,10.7-7.5,15.4-14.5,15.4c-7.8,0-13.9-5.8-13.9-14.9c0-9.7,6.4-15.4,14.4-15.4
				C220.7,1.5,226.3,7.5,226.3,16.4z M203.4,16.7c0,6.4,3.6,11.2,8.8,11.2c5,0,8.8-4.7,8.8-11.3c0-4.9-2.5-11.1-8.7-11.1
				C206.1,5.4,203.4,11.2,203.4,16.7z"/>
			<path class="st2" d="M233,9.9c0-3.1-0.1-5.5-0.2-7.9h4.7l0.3,4.8h0.1c1.4-2.7,4.8-5.4,9.6-5.4c4,0,10.3,2.4,10.3,12.4v17.3h-5.3
				V14.4c0-4.7-1.7-8.6-6.7-8.6c-3.4,0-6.1,2.5-7.1,5.4c-0.2,0.7-0.4,1.6-0.4,2.5v17.5H233L233,9.9L233,9.9z"/>
			<path class="st2" d="M310,29.3c-2.3,0.9-7,2.2-12.5,2.2c-6.1,0-11.2-1.6-15.1-5.3c-3.5-3.4-5.6-8.8-5.6-15.1
				c0-12.1,8.3-20.9,21.9-20.9c4.7,0,8.4,1,10.1,1.9l-1.3,4.3c-2.2-1-4.9-1.7-8.9-1.7c-9.8,0-16.3,6.1-16.3,16.3
				c0,10.3,6.1,16.3,15.6,16.3c3.4,0,5.8-0.5,7-1.1V14.1h-8.2V9.9H310L310,29.3L310,29.3z"/>
			<path class="st2" d="M317.8,11.1c0-3.4-0.1-6.4-0.2-9.1h4.6l0.2,5.8h0.2c1.3-3.9,4.6-6.4,8.1-6.4c0.5,0,1,0.1,1.4,0.1v5
				c-0.5-0.1-1.1-0.1-1.8-0.1c-3.7,0-6.4,2.8-7.1,6.7c-0.1,0.7-0.2,1.6-0.2,2.5v15.5h-5.3V11.1z"/>
			<path class="st2" d="M363.1,16.4c0,10.7-7.5,15.4-14.5,15.4c-7.8,0-13.9-5.8-13.9-14.9c0-9.7,6.4-15.4,14.4-15.4
				C357.4,1.5,363.1,7.5,363.1,16.4z M340.1,16.7c0,6.4,3.6,11.2,8.8,11.2c5,0,8.8-4.7,8.8-11.3c0-4.9-2.5-11.1-8.7-11.1
				C342.8,5.4,340.1,11.2,340.1,16.7z"/>
			<path class="st2" d="M394,23.1c0,3.1,0.1,5.7,0.2,8h-4.7l-0.3-4.7h-0.1c-1.3,2.3-4.4,5.4-9.6,5.4c-4.6,0-10-2.6-10-12.7v-17h5.3
				v16c0,5.5,1.7,9.3,6.5,9.3c3.5,0,6-2.5,7-4.9c0.3-0.7,0.5-1.7,0.5-2.7V2.1h5.3L394,23.1L394,23.1z"/>
			<path class="st2" d="M402.8,11.6c0-3.7-0.1-6.7-0.2-9.5h4.7l0.3,5h0.1c2.1-3.5,5.6-5.6,10.3-5.6c7.1,0,12.4,5.9,12.4,14.7
				c0,10.4-6.4,15.6-13.3,15.6c-3.8,0-7.2-1.7-8.9-4.6H408V43h-5.2V11.6z M408,19.3c0,0.8,0.1,1.5,0.2,2.2c1,3.7,4.1,6.2,7.9,6.2
				c5.6,0,8.8-4.6,8.8-11.2c0-5.8-3.1-10.7-8.6-10.7c-3.6,0-7,2.5-8,6.5c-0.2,0.7-0.4,1.4-0.4,2.1V19.3z"/>
			<path class="st2" d="M-10.9,37.6c0.6-0.1,1.4-0.2,2.2-0.2c1.5,0,2.6,0.4,3.3,1c0.7,0.7,1.2,1.6,1.2,2.9c0,1.3-0.4,2.4-1.2,3.1
				c-0.8,0.8-2,1.2-3.6,1.2c-0.8,0-1.4,0-1.9-0.1C-10.9,45.5-10.9,37.6-10.9,37.6z M-9.8,44.7c0.3,0,0.6,0,1.1,0
				c2.2,0,3.4-1.2,3.4-3.4c0-1.9-1.1-3.1-3.3-3.1c-0.5,0-0.9,0-1.2,0.1C-9.8,38.3-9.8,44.7-9.8,44.7z"/>
			<path class="st2" d="M-1.8,38.1c0,0.4-0.3,0.6-0.7,0.6c-0.4,0-0.6-0.3-0.6-0.6s0.3-0.7,0.7-0.7C-2,37.4-1.8,37.7-1.8,38.1z
				 M-2.9,45.5v-5.8h1.1v5.8H-2.9z"/>
			<path class="st2" d="M0.3,39.7L1.4,43c0.2,0.5,0.3,1,0.5,1.5h0c0.1-0.5,0.3-1,0.5-1.5l1.1-3.2h1.1l-2.3,5.8h-1l-2.2-5.8H0.3z"/>
			<path class="st2" d="M6.8,38.1c0,0.4-0.3,0.6-0.7,0.6c-0.4,0-0.6-0.3-0.6-0.6s0.3-0.7,0.7-0.7C6.6,37.4,6.8,37.7,6.8,38.1z
				 M5.7,45.5v-5.8h1.1v5.8H5.7z"/>
			<path class="st2" d="M8.3,44.5c0.3,0.2,0.9,0.4,1.4,0.4c0.8,0,1.1-0.4,1.1-0.9c0-0.5-0.3-0.8-1.1-1.1c-1.1-0.4-1.5-0.9-1.5-1.6
				c0-0.9,0.8-1.7,2-1.7c0.6,0,1.1,0.2,1.4,0.4l-0.3,0.8c-0.2-0.1-0.6-0.3-1.2-0.3c-0.6,0-1,0.4-1,0.8c0,0.5,0.3,0.7,1.1,1
				c1,0.4,1.5,0.9,1.5,1.7c0,1-0.8,1.8-2.2,1.8c-0.6,0-1.2-0.2-1.6-0.4L8.3,44.5z"/>
			<path class="st2" d="M18.5,42.6c0,2.1-1.5,3.1-2.9,3.1c-1.6,0-2.8-1.2-2.8-3c0-1.9,1.3-3.1,2.9-3.1
				C17.3,39.6,18.5,40.8,18.5,42.6z M13.9,42.6c0,1.3,0.7,2.2,1.8,2.2c1,0,1.8-0.9,1.8-2.3c0-1-0.5-2.2-1.7-2.2
				C14.4,40.4,13.9,41.5,13.9,42.6z"/>
			<path class="st2" d="M19.8,41.3c0-0.6,0-1.1,0-1.6h0.9l0.1,1h0c0.3-0.5,1-1.1,1.9-1.1c0.8,0,2.1,0.5,2.1,2.5v3.5h-1.1v-3.3
				c0-0.9-0.3-1.7-1.3-1.7c-0.7,0-1.2,0.5-1.4,1.1c0,0.1-0.1,0.3-0.1,0.5v3.5h-1.1V41.3z"/>
			<path class="st2" d="M34.3,42.6c0,2.1-1.5,3.1-2.9,3.1c-1.6,0-2.8-1.2-2.8-3c0-1.9,1.3-3.1,2.9-3.1
				C33.1,39.6,34.3,40.8,34.3,42.6z M29.7,42.6c0,1.3,0.7,2.2,1.8,2.2c1,0,1.8-0.9,1.8-2.3c0-1-0.5-2.2-1.7-2.2
				C30.2,40.4,29.7,41.5,29.7,42.6z"/>
			<path class="st2" d="M35.7,45.5v-5h-0.8v-0.8h0.8v-0.3c0-0.8,0.2-1.6,0.7-2c0.4-0.4,0.9-0.5,1.4-0.5c0.4,0,0.7,0.1,0.9,0.2
				l-0.1,0.8c-0.2-0.1-0.4-0.1-0.7-0.1c-0.9,0-1.1,0.8-1.1,1.7v0.3h1.4v0.8h-1.4v5C36.7,45.5,35.7,45.5,35.7,45.5z"/>
			<path class="st2" d="M47.3,45.3c-0.4,0.2-1.2,0.4-2.1,0.4c-2.3,0-4-1.4-4-4.1c0-2.5,1.7-4.2,4.2-4.2c1,0,1.6,0.2,1.9,0.4
				l-0.3,0.9c-0.4-0.2-0.9-0.3-1.6-0.3c-1.9,0-3.2,1.2-3.2,3.3c0,2,1.1,3.2,3.1,3.2c0.6,0,1.3-0.1,1.7-0.3L47.3,45.3z"/>
			<path class="st2" d="M53.7,42.6c0,2.1-1.5,3.1-2.9,3.1c-1.6,0-2.8-1.2-2.8-3c0-1.9,1.3-3.1,2.9-3.1
				C52.6,39.6,53.7,40.8,53.7,42.6z M49.1,42.6c0,1.3,0.7,2.2,1.8,2.2c1,0,1.8-0.9,1.8-2.3c0-1-0.5-2.2-1.7-2.2
				C49.7,40.4,49.1,41.5,49.1,42.6z"/>
			<path class="st2" d="M55.1,41.3c0-0.6,0-1.1,0-1.6h0.9l0,0.9h0c0.3-0.6,0.9-1.1,1.8-1.1c0.8,0,1.4,0.5,1.6,1.2h0
				c0.2-0.3,0.4-0.6,0.7-0.8c0.3-0.3,0.7-0.4,1.3-0.4c0.8,0,1.9,0.5,1.9,2.5v3.4h-1v-3.3c0-1.1-0.4-1.8-1.3-1.8
				c-0.6,0-1.1,0.4-1.3,0.9c0,0.2-0.1,0.3-0.1,0.5v3.6h-1V42c0-0.9-0.4-1.6-1.2-1.6c-0.6,0-1.1,0.5-1.3,1.1
				c-0.1,0.1-0.1,0.3-0.1,0.5v3.5h-1L55.1,41.3L55.1,41.3z"/>
			<path class="st2" d="M65.1,41.6c0-0.7,0-1.3,0-1.9H66l0.1,1h0c0.4-0.7,1.1-1.1,2.1-1.1c1.4,0,2.5,1.2,2.5,2.9
				c0,2.1-1.3,3.1-2.7,3.1c-0.8,0-1.4-0.3-1.8-0.9h0v3.2h-1L65.1,41.6L65.1,41.6z M66.1,43.2c0,0.2,0,0.3,0,0.4
				c0.2,0.7,0.8,1.2,1.6,1.2c1.1,0,1.8-0.9,1.8-2.2c0-1.2-0.6-2.1-1.7-2.1c-0.7,0-1.4,0.5-1.6,1.3c0,0.1-0.1,0.3-0.1,0.4V43.2z"/>
			<path class="st2" d="M76.7,43.9c0,0.6,0,1.1,0,1.6h-0.9l-0.1-0.9h0c-0.3,0.5-0.9,1.1-1.9,1.1c-0.9,0-2-0.5-2-2.5v-3.4h1.1v3.2
				c0,1.1,0.3,1.9,1.3,1.9c0.7,0,1.2-0.5,1.4-1c0.1-0.1,0.1-0.3,0.1-0.5v-3.5h1.1V43.9z"/>
			<path class="st2" d="M79.8,38.3v1.4h1.5v0.8h-1.5v3.1c0,0.7,0.2,1.1,0.8,1.1c0.3,0,0.5,0,0.6-0.1l0,0.8c-0.2,0.1-0.5,0.1-0.9,0.1
				c-0.5,0-0.9-0.2-1.1-0.4c-0.3-0.3-0.4-0.8-0.4-1.5v-3.2h-0.9v-0.8h0.9v-1.1L79.8,38.3z"/>
			<path class="st2" d="M86.6,44.1c0,0.5,0,1,0.1,1.4h-0.9l-0.1-0.7h0c-0.3,0.5-0.9,0.9-1.8,0.9c-1.2,0-1.8-0.8-1.8-1.7
				c0-1.4,1.2-2.2,3.5-2.2v-0.1c0-0.5-0.1-1.3-1.3-1.3c-0.6,0-1.1,0.2-1.5,0.4l-0.2-0.7c0.5-0.3,1.2-0.5,1.9-0.5
				c1.8,0,2.2,1.2,2.2,2.4L86.6,44.1L86.6,44.1z M85.5,42.6c-1.2,0-2.5,0.2-2.5,1.3c0,0.7,0.5,1,1,1c0.8,0,1.3-0.5,1.4-1
				c0-0.1,0-0.2,0-0.3V42.6z"/>
			<path class="st2" d="M89.5,38.3v1.4H91v0.8h-1.5v3.1c0,0.7,0.2,1.1,0.8,1.1c0.3,0,0.5,0,0.6-0.1l0,0.8c-0.2,0.1-0.5,0.1-0.9,0.1
				c-0.5,0-0.9-0.2-1.1-0.4c-0.3-0.3-0.4-0.8-0.4-1.5v-3.2h-0.9v-0.8h0.9v-1.1L89.5,38.3z"/>
			<path class="st2" d="M93.4,38.1c0,0.4-0.3,0.6-0.7,0.6c-0.4,0-0.6-0.3-0.6-0.6s0.3-0.7,0.7-0.7C93.1,37.4,93.4,37.7,93.4,38.1z
				 M92.2,45.5v-5.8h1.1v5.8H92.2z"/>
			<path class="st2" d="M100.2,42.6c0,2.1-1.5,3.1-2.9,3.1c-1.6,0-2.8-1.2-2.8-3c0-1.9,1.3-3.1,2.9-3.1
				C99.1,39.6,100.2,40.8,100.2,42.6z M95.7,42.6c0,1.3,0.7,2.2,1.8,2.2c1,0,1.8-0.9,1.8-2.3c0-1-0.5-2.2-1.7-2.2
				C96.2,40.4,95.7,41.5,95.7,42.6z"/>
			<path class="st2" d="M101.6,41.3c0-0.6,0-1.1,0-1.6h0.9l0.1,1h0c0.3-0.5,1-1.1,1.9-1.1c0.8,0,2.1,0.5,2.1,2.5v3.5h-1.1v-3.3
				c0-0.9-0.3-1.7-1.3-1.7c-0.7,0-1.2,0.5-1.4,1.1c0,0.1-0.1,0.3-0.1,0.5v3.5h-1.1V41.3z"/>
			<path class="st2" d="M112.3,44.1c0,0.5,0,1,0.1,1.4h-0.9l-0.1-0.7h0c-0.3,0.5-0.9,0.9-1.8,0.9c-1.2,0-1.8-0.8-1.8-1.7
				c0-1.4,1.2-2.2,3.5-2.2v-0.1c0-0.5-0.1-1.3-1.3-1.3c-0.6,0-1.1,0.2-1.5,0.4l-0.2-0.7c0.5-0.3,1.2-0.5,1.9-0.5
				c1.8,0,2.2,1.2,2.2,2.4L112.3,44.1L112.3,44.1z M111.3,42.6c-1.2,0-2.5,0.2-2.5,1.3c0,0.7,0.5,1,1,1c0.8,0,1.3-0.5,1.4-1
				c0-0.1,0-0.2,0-0.3V42.6z"/>
			<path class="st2" d="M114,37h1.1v8.5H114V37z"/>
			<path class="st2" d="M119.4,37.6c0.5-0.1,1.2-0.2,1.9-0.2c1,0,1.7,0.2,2.2,0.6c0.4,0.3,0.7,0.8,0.7,1.4c0,0.8-0.5,1.5-1.4,1.8v0
				c0.8,0.2,1.7,0.8,1.7,2c0,0.7-0.3,1.2-0.7,1.6c-0.6,0.5-1.5,0.8-2.8,0.8c-0.7,0-1.3,0-1.6-0.1L119.4,37.6L119.4,37.6z
				 M120.5,40.9h0.9c1.1,0,1.7-0.6,1.7-1.4c0-0.9-0.7-1.3-1.8-1.3c-0.5,0-0.8,0-0.9,0.1V40.9z M120.5,44.7c0.2,0,0.5,0,0.9,0
				c1.1,0,2.1-0.4,2.1-1.6c0-1.1-0.9-1.6-2.1-1.6h-0.9L120.5,44.7L120.5,44.7z"/>
			<path class="st2" d="M127.1,38.1c0,0.4-0.3,0.6-0.7,0.6c-0.4,0-0.6-0.3-0.6-0.6s0.3-0.7,0.7-0.7
				C126.8,37.4,127.1,37.7,127.1,38.1z M125.9,45.5v-5.8h1.1v5.8H125.9z"/>
			<path class="st2" d="M134,42.6c0,2.1-1.5,3.1-2.9,3.1c-1.6,0-2.8-1.2-2.8-3c0-1.9,1.3-3.1,2.9-3.1C132.8,39.6,134,40.8,134,42.6z
				 M129.4,42.6c0,1.3,0.7,2.2,1.8,2.2c1,0,1.8-0.9,1.8-2.3c0-1-0.5-2.2-1.7-2.2C129.9,40.4,129.4,41.5,129.4,42.6z"/>
			<path class="st2" d="M135.3,37h1.1v8.5h-1.1V37z"/>
			<path class="st2" d="M143.4,42.6c0,2.1-1.5,3.1-2.9,3.1c-1.6,0-2.8-1.2-2.8-3c0-1.9,1.3-3.1,2.9-3.1
				C142.3,39.6,143.4,40.8,143.4,42.6z M138.8,42.6c0,1.3,0.7,2.2,1.8,2.2c1,0,1.8-0.9,1.8-2.3c0-1-0.5-2.2-1.7-2.2
				C139.3,40.4,138.8,41.5,138.8,42.6z"/>
			<path class="st2" d="M149.7,44.7c0,1.3-0.3,2.1-0.8,2.7c-0.6,0.5-1.4,0.7-2.1,0.7c-0.7,0-1.5-0.2-1.9-0.5l0.3-0.8
				c0.4,0.3,1,0.5,1.7,0.5c1.1,0,1.9-0.6,1.9-2v-0.6h0c-0.3,0.5-0.9,1-1.8,1c-1.4,0-2.5-1.2-2.5-2.8c0-2,1.3-3.1,2.6-3.1
				c1,0,1.5,0.5,1.8,1h0l0-0.9h0.9c0,0.4,0,0.9,0,1.6L149.7,44.7L149.7,44.7z M148.6,42c0-0.2,0-0.3-0.1-0.5
				c-0.2-0.6-0.7-1.1-1.5-1.1c-1,0-1.7,0.9-1.7,2.2c0,1.1,0.6,2.1,1.7,2.1c0.7,0,1.2-0.4,1.5-1.1c0.1-0.2,0.1-0.4,0.1-0.6L148.6,42
				L148.6,42z"/>
			<path class="st2" d="M151.8,39.7l1.3,3.4c0.1,0.4,0.3,0.8,0.4,1.2h0c0.1-0.3,0.2-0.8,0.4-1.2l1.2-3.4h1.1l-1.6,4.1
				c-0.8,2-1.3,3-2,3.6c-0.5,0.4-1,0.6-1.3,0.7l-0.3-0.9c0.3-0.1,0.6-0.3,0.9-0.5c0.3-0.2,0.6-0.6,0.9-1.2c0-0.1,0.1-0.2,0.1-0.3
				c0-0.1,0-0.1-0.1-0.3l-2.1-5.3L151.8,39.7L151.8,39.7z"/>
			<path class="st2" d="M162.1,41.9v0.8h-3v-0.8H162.1z"/>
			<path class="st2" d="M171.5,45.3c-0.4,0.2-1.2,0.4-2.1,0.4c-2.3,0-4-1.4-4-4.1c0-2.5,1.7-4.2,4.2-4.2c1,0,1.6,0.2,1.9,0.4
				l-0.3,0.9c-0.4-0.2-0.9-0.3-1.6-0.3c-1.9,0-3.2,1.2-3.2,3.3c0,2,1.1,3.2,3.1,3.2c0.6,0,1.3-0.1,1.7-0.3L171.5,45.3z"/>
			<path class="st2" d="M177.9,42.6c0,2.1-1.5,3.1-2.9,3.1c-1.6,0-2.8-1.2-2.8-3c0-1.9,1.3-3.1,2.9-3.1
				C176.8,39.6,177.9,40.8,177.9,42.6z M173.3,42.6c0,1.3,0.7,2.2,1.8,2.2c1,0,1.8-0.9,1.8-2.3c0-1-0.5-2.2-1.7-2.2
				C173.9,40.4,173.3,41.5,173.3,42.6z"/>
			<path class="st2" d="M179.3,37h1.1v8.5h-1.1V37z"/>
			<path class="st2" d="M182.1,37h1.1v8.5h-1.1V37z"/>
			<path class="st2" d="M185.5,42.8c0,1.4,0.9,2,2,2c0.8,0,1.2-0.1,1.6-0.3l0.2,0.8c-0.4,0.2-1,0.4-1.9,0.4c-1.8,0-2.9-1.2-2.9-2.9
				s1-3.1,2.7-3.1c1.9,0,2.4,1.7,2.4,2.7c0,0.2,0,0.4,0,0.5L185.5,42.8L185.5,42.8z M188.6,42.1c0-0.7-0.3-1.7-1.5-1.7
				c-1.1,0-1.5,1-1.6,1.7H188.6z"/>
			<path class="st2" d="M195.9,44.7c0,1.3-0.3,2.1-0.8,2.7c-0.6,0.5-1.4,0.7-2.1,0.7c-0.7,0-1.5-0.2-1.9-0.5l0.3-0.8
				c0.4,0.3,1,0.5,1.7,0.5c1.1,0,1.9-0.6,1.9-2v-0.6h0c-0.3,0.5-0.9,1-1.8,1c-1.4,0-2.5-1.2-2.5-2.8c0-2,1.3-3.1,2.6-3.1
				c1,0,1.5,0.5,1.8,1h0l0-0.9h0.9c0,0.4,0,0.9,0,1.6L195.9,44.7L195.9,44.7z M194.9,42c0-0.2,0-0.3-0.1-0.5
				c-0.2-0.6-0.7-1.1-1.5-1.1c-1,0-1.7,0.9-1.7,2.2c0,1.1,0.6,2.1,1.7,2.1c0.7,0,1.2-0.4,1.5-1.1c0.1-0.2,0.1-0.4,0.1-0.6L194.9,42
				L194.9,42z"/>
			<path class="st2" d="M198.2,42.8c0,1.4,0.9,2,2,2c0.8,0,1.2-0.1,1.6-0.3l0.2,0.8c-0.4,0.2-1,0.4-1.9,0.4c-1.8,0-2.9-1.2-2.9-2.9
				s1-3.1,2.7-3.1c1.9,0,2.4,1.7,2.4,2.7c0,0.2,0,0.4,0,0.5L198.2,42.8L198.2,42.8z M201.3,42.1c0-0.7-0.3-1.7-1.5-1.7
				c-1.1,0-1.5,1-1.6,1.7H201.3z"/>
			<path class="st2" d="M211.5,42.6c0,2.1-1.5,3.1-2.9,3.1c-1.6,0-2.8-1.2-2.8-3c0-1.9,1.3-3.1,2.9-3.1
				C210.3,39.6,211.5,40.8,211.5,42.6z M206.9,42.6c0,1.3,0.7,2.2,1.8,2.2c1,0,1.8-0.9,1.8-2.3c0-1-0.5-2.2-1.7-2.2
				C207.4,40.4,206.9,41.5,206.9,42.6z"/>
			<path class="st2" d="M212.9,45.5v-5h-0.8v-0.8h0.8v-0.3c0-0.8,0.2-1.6,0.7-2c0.4-0.4,0.9-0.5,1.4-0.5c0.4,0,0.7,0.1,0.9,0.2
				l-0.1,0.8c-0.2-0.1-0.4-0.1-0.7-0.1c-0.9,0-1.1,0.8-1.1,1.7v0.3h1.4v0.8h-1.4v5C213.9,45.5,212.9,45.5,212.9,45.5z"/>
			<path class="st2" d="M218.9,37.4h1.1v7.2h3.5v0.9h-4.5V37.4z"/>
			<path class="st2" d="M225.7,38.1c0,0.4-0.3,0.6-0.7,0.6c-0.4,0-0.6-0.3-0.6-0.6s0.3-0.7,0.7-0.7
				C225.4,37.4,225.7,37.7,225.7,38.1z M224.5,45.5v-5.8h1.1v5.8H224.5z"/>
			<path class="st2" d="M227.4,45.5v-5h-0.8v-0.8h0.8v-0.3c0-0.8,0.2-1.6,0.7-2c0.4-0.4,0.9-0.5,1.4-0.5c0.4,0,0.7,0.1,0.9,0.2
				l-0.1,0.8c-0.2-0.1-0.4-0.1-0.7-0.1c-0.9,0-1.1,0.8-1.1,1.7v0.3h1.4v0.8h-1.4v5C228.5,45.5,227.4,45.5,227.4,45.5z"/>
			<path class="st2" d="M231.2,42.8c0,1.4,0.9,2,2,2c0.8,0,1.2-0.1,1.6-0.3l0.2,0.8c-0.4,0.2-1,0.4-1.9,0.4c-1.8,0-2.9-1.2-2.9-2.9
				s1-3.1,2.7-3.1c1.9,0,2.4,1.7,2.4,2.7c0,0.2,0,0.4,0,0.5L231.2,42.8L231.2,42.8z M234.3,42.1c0-0.7-0.3-1.7-1.5-1.7
				c-1.1,0-1.5,1-1.6,1.7H234.3z"/>
			<path class="st2" d="M239.1,44.3c0.5,0.3,1.1,0.5,1.9,0.5c1.1,0,1.7-0.6,1.7-1.4c0-0.7-0.4-1.2-1.5-1.6c-1.3-0.5-2.1-1.2-2.1-2.3
				c0-1.3,1-2.2,2.6-2.2c0.8,0,1.4,0.2,1.8,0.4l-0.3,0.9c-0.3-0.2-0.8-0.4-1.5-0.4c-1.1,0-1.5,0.7-1.5,1.2c0,0.8,0.5,1.1,1.6,1.6
				c1.4,0.5,2.1,1.2,2.1,2.4c0,1.2-0.9,2.3-2.8,2.3c-0.8,0-1.6-0.2-2.1-0.5L239.1,44.3z"/>
			<path class="st2" d="M249.3,45.3c-0.3,0.1-0.9,0.3-1.7,0.3c-1.8,0-2.9-1.2-2.9-3c0-1.8,1.2-3.1,3.1-3.1c0.6,0,1.2,0.2,1.5,0.3
				l-0.2,0.8c-0.3-0.1-0.6-0.3-1.2-0.3c-1.3,0-2.1,1-2.1,2.2c0,1.3,0.9,2.2,2,2.2c0.6,0,1-0.1,1.3-0.3L249.3,45.3z"/>
			<path class="st2" d="M251.8,38.1c0,0.4-0.3,0.6-0.7,0.6c-0.4,0-0.6-0.3-0.6-0.6s0.3-0.7,0.7-0.7
				C251.5,37.4,251.8,37.7,251.8,38.1z M250.6,45.5v-5.8h1.1v5.8H250.6z"/>
			<path class="st2" d="M254,42.8c0,1.4,0.9,2,2,2c0.8,0,1.2-0.1,1.6-0.3l0.2,0.8c-0.4,0.2-1,0.4-1.9,0.4c-1.8,0-2.9-1.2-2.9-2.9
				s1-3.1,2.7-3.1c1.9,0,2.4,1.7,2.4,2.7c0,0.2,0,0.4,0,0.5L254,42.8L254,42.8z M257.1,42.1c0-0.7-0.3-1.7-1.5-1.7
				c-1.1,0-1.5,1-1.6,1.7H257.1z"/>
			<path class="st2" d="M259.4,41.3c0-0.6,0-1.1,0-1.6h0.9l0.1,1h0c0.3-0.5,1-1.1,1.9-1.1c0.8,0,2.1,0.5,2.1,2.5v3.5h-1.1v-3.3
				c0-0.9-0.3-1.7-1.3-1.7c-0.7,0-1.2,0.5-1.4,1.1c0,0.1-0.1,0.3-0.1,0.5v3.5h-1.1L259.4,41.3L259.4,41.3z"/>
			<path class="st2" d="M270.2,45.3c-0.3,0.1-0.9,0.3-1.7,0.3c-1.8,0-2.9-1.2-2.9-3c0-1.8,1.2-3.1,3.1-3.1c0.6,0,1.2,0.2,1.5,0.3
				l-0.2,0.8c-0.3-0.1-0.6-0.3-1.2-0.3c-1.3,0-2.1,1-2.1,2.2c0,1.3,0.9,2.2,2,2.2c0.6,0,1-0.1,1.3-0.3L270.2,45.3z"/>
			<path class="st2" d="M272,42.8c0,1.4,0.9,2,2,2c0.8,0,1.2-0.1,1.6-0.3l0.2,0.8c-0.4,0.2-1,0.4-1.9,0.4c-1.8,0-2.9-1.2-2.9-2.9
				s1-3.1,2.7-3.1c1.9,0,2.4,1.7,2.4,2.7c0,0.2,0,0.4,0,0.5L272,42.8L272,42.8z M275,42.1c0-0.7-0.3-1.7-1.5-1.7
				c-1.1,0-1.5,1-1.6,1.7H275z"/>
			<path class="st2" d="M277.2,44.5c0.3,0.2,0.9,0.4,1.4,0.4c0.8,0,1.1-0.4,1.1-0.9c0-0.5-0.3-0.8-1.1-1.1c-1.1-0.4-1.5-0.9-1.5-1.6
				c0-0.9,0.8-1.7,2-1.7c0.6,0,1.1,0.2,1.4,0.4l-0.3,0.8c-0.2-0.1-0.6-0.3-1.2-0.3c-0.6,0-1,0.4-1,0.8c0,0.5,0.3,0.7,1.1,1
				c1,0.4,1.5,0.9,1.5,1.7c0,1-0.8,1.8-2.2,1.8c-0.6,0-1.2-0.2-1.6-0.4L277.2,44.5z"/>
			<path class="st2" d="M287.1,41.9v0.8h-3v-0.8H287.1z"/>
			<path class="st2" d="M292,37.4v4.8c0,1.8,0.8,2.6,1.9,2.6c1.2,0,2-0.8,2-2.6v-4.8h1.1v4.7c0,2.5-1.3,3.5-3.1,3.5
				c-1.7,0-2.9-0.9-2.9-3.5v-4.8H292z"/>
			<path class="st2" d="M298.7,41.3c0-0.6,0-1.1,0-1.6h0.9l0.1,1h0c0.3-0.5,1-1.1,1.9-1.1c0.8,0,2.1,0.5,2.1,2.5v3.5h-1.1v-3.3
				c0-0.9-0.3-1.7-1.3-1.7c-0.7,0-1.2,0.5-1.4,1.1c0,0.1-0.1,0.3-0.1,0.5v3.5h-1.1L298.7,41.3L298.7,41.3z"/>
			<path class="st2" d="M306.5,38.1c0,0.4-0.3,0.6-0.7,0.6c-0.4,0-0.6-0.3-0.6-0.6s0.3-0.7,0.7-0.7
				C306.2,37.4,306.5,37.7,306.5,38.1z M305.3,45.5v-5.8h1.1v5.8H305.3z"/>
			<path class="st2" d="M308.5,39.7l1.1,3.2c0.2,0.5,0.3,1,0.5,1.5h0c0.1-0.5,0.3-1,0.5-1.5l1.1-3.2h1.1l-2.3,5.8h-1l-2.2-5.8H308.5
				z"/>
			<path class="st2" d="M314.4,42.8c0,1.4,0.9,2,2,2c0.8,0,1.2-0.1,1.6-0.3l0.2,0.8c-0.4,0.2-1,0.4-1.9,0.4c-1.8,0-2.9-1.2-2.9-2.9
				s1-3.1,2.7-3.1c1.9,0,2.4,1.7,2.4,2.7c0,0.2,0,0.4,0,0.5L314.4,42.8L314.4,42.8z M317.5,42.1c0-0.7-0.3-1.7-1.5-1.7
				c-1.1,0-1.5,1-1.6,1.7H317.5z"/>
			<path class="st2" d="M319.8,41.5c0-0.7,0-1.3,0-1.8h0.9l0,1.2h0c0.3-0.8,0.9-1.3,1.6-1.3c0.1,0,0.2,0,0.3,0v1c-0.1,0-0.2,0-0.4,0
				c-0.7,0-1.3,0.6-1.4,1.3c0,0.1,0,0.3,0,0.5v3.1h-1.1V41.5z"/>
			<path class="st2" d="M323.6,44.5c0.3,0.2,0.9,0.4,1.4,0.4c0.8,0,1.1-0.4,1.1-0.9c0-0.5-0.3-0.8-1.1-1.1c-1.1-0.4-1.5-0.9-1.5-1.6
				c0-0.9,0.8-1.7,2-1.7c0.6,0,1.1,0.2,1.4,0.4l-0.3,0.8c-0.2-0.1-0.6-0.3-1.2-0.3c-0.6,0-1,0.4-1,0.8c0,0.5,0.3,0.7,1.1,1
				c1,0.4,1.5,0.9,1.5,1.7c0,1-0.8,1.8-2.2,1.8c-0.6,0-1.2-0.2-1.6-0.4L323.6,44.5z"/>
			<path class="st2" d="M329.6,38.1c0,0.4-0.3,0.6-0.7,0.6c-0.4,0-0.6-0.3-0.6-0.6s0.3-0.7,0.7-0.7
				C329.4,37.4,329.6,37.7,329.6,38.1z M328.5,45.5v-5.8h1.1v5.8H328.5z"/>
			<path class="st2" d="M332.5,38.3v1.4h1.5v0.8h-1.5v3.1c0,0.7,0.2,1.1,0.8,1.1c0.3,0,0.5,0,0.6-0.1l0,0.8
				c-0.2,0.1-0.5,0.1-0.9,0.1c-0.5,0-0.9-0.2-1.1-0.4c-0.3-0.3-0.4-0.8-0.4-1.5v-3.2h-0.9v-0.8h0.9v-1.1L332.5,38.3z"/>
			<path class="st2" d="M335.7,39.7l1.3,3.4c0.1,0.4,0.3,0.8,0.4,1.2h0c0.1-0.3,0.2-0.8,0.4-1.2l1.2-3.4h1.1l-1.6,4.1
				c-0.8,2-1.3,3-2,3.6c-0.5,0.4-1,0.6-1.3,0.7l-0.3-0.9c0.3-0.1,0.6-0.3,0.9-0.5c0.3-0.2,0.6-0.6,0.9-1.2c0-0.1,0.1-0.2,0.1-0.3
				c0-0.1,0-0.1-0.1-0.3l-2.1-5.3L335.7,39.7L335.7,39.7z"/>
			<path class="st2" d="M348.8,42.6c0,2.1-1.5,3.1-2.9,3.1c-1.6,0-2.8-1.2-2.8-3c0-1.9,1.3-3.1,2.9-3.1
				C347.7,39.6,348.8,40.8,348.8,42.6z M344.2,42.6c0,1.3,0.7,2.2,1.8,2.2c1,0,1.8-0.9,1.8-2.3c0-1-0.5-2.2-1.7-2.2
				C344.8,40.4,344.2,41.5,344.2,42.6z"/>
			<path class="st2" d="M350.2,45.5v-5h-0.8v-0.8h0.8v-0.3c0-0.8,0.2-1.6,0.7-2c0.4-0.4,0.9-0.5,1.4-0.5c0.4,0,0.7,0.1,0.9,0.2
				l-0.1,0.8c-0.2-0.1-0.4-0.1-0.7-0.1c-0.9,0-1.1,0.8-1.1,1.7v0.3h1.4v0.8h-1.4v5C351.3,45.5,350.2,45.5,350.2,45.5z"/>
			<path class="st2" d="M356.2,37.6c0.6-0.1,1.4-0.2,2.2-0.2c1.5,0,2.6,0.4,3.3,1c0.7,0.7,1.2,1.6,1.2,2.9c0,1.3-0.4,2.4-1.2,3.1
				c-0.8,0.8-2,1.2-3.6,1.2c-0.8,0-1.4,0-1.9-0.1L356.2,37.6L356.2,37.6z M357.3,44.7c0.3,0,0.6,0,1.1,0c2.2,0,3.4-1.2,3.4-3.4
				c0-1.9-1.1-3.1-3.3-3.1c-0.5,0-0.9,0-1.2,0.1V44.7z"/>
			<path class="st2" d="M369.1,43.9c0,0.6,0,1.1,0,1.6h-0.9l-0.1-0.9h0c-0.3,0.5-0.9,1.1-1.9,1.1c-0.9,0-2-0.5-2-2.5v-3.4h1.1v3.2
				c0,1.1,0.3,1.9,1.3,1.9c0.7,0,1.2-0.5,1.4-1c0.1-0.1,0.1-0.3,0.1-0.5v-3.5h1.1L369.1,43.9L369.1,43.9z"/>
			<path class="st2" d="M370.8,41.3c0-0.6,0-1.1,0-1.6h0.9l0.1,1h0c0.3-0.5,1-1.1,1.9-1.1c0.8,0,2.1,0.5,2.1,2.5v3.5h-1.1v-3.3
				c0-0.9-0.3-1.7-1.3-1.7c-0.7,0-1.2,0.5-1.4,1.1c0,0.1-0.1,0.3-0.1,0.5v3.5h-1.1L370.8,41.3L370.8,41.3z"/>
			<path class="st2" d="M382.5,37v7c0,0.5,0,1.1,0,1.5h-0.9l0-1h0c-0.3,0.6-1,1.1-2,1.1c-1.4,0-2.5-1.2-2.5-3c0-1.9,1.2-3.1,2.6-3.1
				c0.9,0,1.5,0.4,1.8,0.9h0V37H382.5z M381.4,42.1c0-0.1,0-0.3,0-0.4c-0.2-0.7-0.7-1.2-1.5-1.2c-1.1,0-1.7,1-1.7,2.2
				c0,1.2,0.6,2.1,1.7,2.1c0.7,0,1.4-0.5,1.5-1.3c0-0.1,0-0.3,0-0.5L381.4,42.1L381.4,42.1z"/>
			<path class="st2" d="M384.8,42.8c0,1.4,0.9,2,2,2c0.8,0,1.2-0.1,1.6-0.3l0.2,0.8c-0.4,0.2-1,0.4-1.9,0.4c-1.8,0-2.9-1.2-2.9-2.9
				s1-3.1,2.7-3.1c1.9,0,2.4,1.7,2.4,2.7c0,0.2,0,0.4,0,0.5L384.8,42.8L384.8,42.8z M387.9,42.1c0-0.7-0.3-1.7-1.5-1.7
				c-1.1,0-1.5,1-1.6,1.7H387.9z"/>
			<path class="st2" d="M390.9,42.8c0,1.4,0.9,2,2,2c0.8,0,1.2-0.1,1.6-0.3l0.2,0.8c-0.4,0.2-1,0.4-1.9,0.4c-1.8,0-2.9-1.2-2.9-2.9
				s1-3.1,2.7-3.1c1.9,0,2.4,1.7,2.4,2.7c0,0.2,0,0.4,0,0.5L390.9,42.8L390.9,42.8z M394,42.1c0-0.7-0.3-1.7-1.5-1.7
				c-1.1,0-1.5,1-1.6,1.7H394z"/>
		</g>
	</g>
</g>
<text transform="matrix(1 0 0 1 1.8949 37.4426)" class="st2 st3 st4">JABAWS</text>
<text transform="matrix(1 0 0 1 146.3352 20.1095)" class="st2 st3 st5">2.2</text>
</svg>
