<?xml version="1.0" encoding="utf-8"?>
<!-- Generator: Adobe Illustrator 15.1.0, SVG Export Plug-In . SVG Version: 6.00 Build 0)  -->
<!DOCTYPE svg PUBLIC "-//W3C//DTD SVG 1.1//EN" "http://www.w3.org/Graphics/SVG/1.1/DTD/svg11.dtd">
<svg version="1.1" id="Layer_1" xmlns="http://www.w3.org/2000/svg" xmlns:xlink="http://www.w3.org/1999/xlink" x="0px" y="0px"
	 width="370.967px" height="103.871px" viewBox="0 0 370.967 103.871" enable-background="new 0 0 370.967 103.871"
	 xml:space="preserve">
<rect x="37.498" y="42.194" fill="#0084A9" width="21.511" height="21.51"/>
<polygon fill="#AD208E" points="64.821,9.224 4.522,9.224 4.528,63.701 15.349,63.701 15.349,20.044 75.643,20.044 "/>
<polygon opacity="0.33" points="63.704,10.068 5.31,10.065 5.315,62.485 6.93,62.676 6.93,11.554 65.491,11.362 "/>
<polygon fill="#F78E1E" points="31.986,63.688 31.986,36.682 92.28,36.682 81.916,26.319 21.619,26.319 21.619,63.688 "/>
<polygon fill="#009DDC" points="31.688,96.688 91.987,96.69 91.981,42.212 81.163,42.212 81.163,85.872 20.866,85.868 "/>
<polygon fill="#C1D82F" points="64.525,42.225 64.525,69.231 4.229,69.231 14.591,79.596 74.89,79.596 74.89,42.225 "/>
<polygon opacity="0.2" points="32.823,96.034 91.217,96.034 91.211,43.617 89.596,43.427 89.596,94.548 31.035,94.737 "/>
<polyline opacity="0.15" points="81.323,27.385 22.763,27.385 22.763,63.06 23.906,63.06 23.906,28.531 82.28,28.531 "/>
<polyline opacity="0.15" points="15.608,78.522 74.168,78.522 74.168,42.851 73.025,42.851 73.025,77.378 14.654,77.378 "/>
<polygon opacity="0.25" points="57.962,43.418 38.322,43.418 38.322,62.546 39.348,62.546 39.348,44.614 57.962,44.614 "/>
<polygon opacity="0.25" fill="#FFFFFF" points="40.035,62.546 57.962,62.546 57.962,44.923 56.937,44.923 56.937,61.35 
	40.035,61.35 "/>
<polygon opacity="0.2" fill="#FFFFFF" points="14.527,62.438 14.527,18.989 73.039,18.989 71.062,17.261 12.8,17.261 12.8,62.686 
	"/>
<polygon opacity="0.2" fill="#FFFFFF" points="82.177,43.48 82.177,86.927 23.671,86.927 25.645,88.655 83.907,88.655 
	83.907,43.232 "/>
<polygon opacity="0.25" fill="#FFFFFF" points="65.631,43.183 65.631,70.337 6.137,70.337 7.617,71.326 66.62,71.326 66.62,43.183 
	"/>
<polygon opacity="0.25" fill="#FFFFFF" points="31.256,63.025 31.256,35.871 90.751,35.871 89.271,34.881 30.268,34.881 
	30.268,63.025 "/>
<path fill="#807F83" d="M110.221,79.474v-8.551c2.055,0.822,4.11,1.48,7.563,1.48c5.344,0,8.797-2.796,8.797-10.03V21.677h11.017
	V62.62c0,12.742-7.317,18.58-18.169,18.58C114.578,81.2,112.112,80.46,110.221,79.474z"/>
<path fill="#807F83" d="M141.957,68.539c0-10.03,9.701-13.647,22.034-13.647h5.344v-2.22c0-5.755-1.974-8.632-7.811-8.632
	c-5.18,0-7.729,2.466-8.222,6.742h-9.619c0.822-10.03,8.797-14.223,18.416-14.223c9.619,0,17.184,3.946,17.184,15.703v28.2h-9.784
	v-5.262c-2.795,3.699-6.577,6.084-13.154,6.084C148.452,81.282,141.957,77.5,141.957,68.539z M169.334,65.415V61.14h-5.098
	c-7.563,0-12.414,1.727-12.414,6.988c0,3.617,1.973,6.002,6.906,6.002C164.812,74.13,169.334,70.923,169.334,65.415z"/>
<path fill="#807F83" d="M198.685,37.462h10.688l11.263,32.804l11.1-32.804h9.783L225.981,80.46h-11.593L198.685,37.462z"/>
<path fill="#807F83" d="M245.054,37.462h9.948V80.46h-9.948V37.462z M245.054,80.46V37.462"/>
<path fill="#807F83" d="M260.1,59.413v-0.658c0-13.318,9.126-22.197,21.376-22.197c10.688,0,20.307,6.331,20.307,21.705v2.877
	h-31.488c0.329,8.139,4.439,12.743,11.839,12.743c6.002,0,9.126-2.384,9.866-6.577h9.619c-1.398,9.043-8.715,13.977-19.731,13.977
	C269.226,81.282,260.1,72.979,260.1,59.413z M291.917,54.48c-0.494-7.399-4.275-10.688-10.441-10.688
	c-6.002,0-10.03,4.028-11.017,10.688H291.917z"/>
<path fill="#807F83" d="M301.455,37.462h10.605l8.55,31.077l9.126-31.077h8.304l8.386,31.077l8.962-31.077h9.701L351.605,80.46
	h-10.112l-7.975-28.939l-8.715,28.939h-10.194L301.455,37.462z"/>
<rect x="185.202" y="21.669" fill="#807F83" width="9.948" height="58.791"/>
<rect x="245.083" y="21.626" fill="#807F83" width="9.797" height="9.797"/>
</svg>
