<?xml version="1.0" encoding="utf-8"?>
<!-- Generator: Adobe Illustrator 15.1.0, SVG Export Plug-In . SVG Version: 6.00 Build 0)  -->
<!DOCTYPE svg PUBLIC "-//W3C//DTD SVG 1.1//EN" "http://www.w3.org/Graphics/SVG/1.1/DTD/svg11.dtd">
<svg version="1.1" xmlns="http://www.w3.org/2000/svg" xmlns:xlink="http://www.w3.org/1999/xlink" x="0px" y="0px"
	 width="305.902px" height="260.589px" viewBox="0 0 305.902 260.589" enable-background="new 0 0 305.902 260.589"
	 xml:space="preserve">
<g id="Layer_1" display="none">
	<line display="inline" fill="#FFFFFF" x1="-151.598" y1="-192" x2="-151.598" y2="-192"/>
	<g display="inline">
		<defs>
			<rect id="SVGID_1_" x="-216.598" y="-257" width="725" height="972"/>
		</defs>
		<clipPath id="SVGID_2_">
			<use xlink:href="#SVGID_1_"  overflow="visible"/>
		</clipPath>
		<g clip-path="url(#SVGID_2_)">
			<defs>
				<rect id="SVGID_3_" x="-151.598" y="-192.04" width="594.96" height="842.04"/>
			</defs>
			<clipPath id="SVGID_4_">
				<use xlink:href="#SVGID_3_"  overflow="visible"/>
			</clipPath>
			
				<rect x="-150.688" y="-20.44" clip-path="url(#SVGID_4_)" fill-rule="evenodd" clip-rule="evenodd" fill="#FFFFFF" width="594.37" height="398.95"/>
		</g>
	</g>
	<g display="inline">
		<defs>
			<rect id="SVGID_5_" x="-150.688" y="-20.44" width="594.37" height="398.95"/>
		</defs>
		<clipPath id="SVGID_6_">
			<use xlink:href="#SVGID_5_"  overflow="visible"/>
		</clipPath>
		<g clip-path="url(#SVGID_6_)">
			<defs>
				<rect id="SVGID_7_" x="-216.598" y="-257" width="725" height="972"/>
			</defs>
			<clipPath id="SVGID_8_">
				<use xlink:href="#SVGID_7_"  overflow="visible"/>
			</clipPath>
			<g clip-path="url(#SVGID_8_)">
				<defs>
					<rect id="SVGID_9_" x="-151.598" y="-192.04" width="594.96" height="842.04"/>
				</defs>
				<clipPath id="SVGID_10_">
					<use xlink:href="#SVGID_9_"  overflow="visible"/>
				</clipPath>
				<path clip-path="url(#SVGID_10_)" fill-rule="evenodd" clip-rule="evenodd" fill="#334C99" d="M145.45,151.216l46.966-33.744
					l0.01,15.395c-0.276,11.885-4.275,29.233-14.422,41.69L145.45,151.216"/>
				<path clip-path="url(#SVGID_10_)" fill-rule="evenodd" clip-rule="evenodd" fill="#334C99" d="M145.432,151.21l-47.063-33.838
					l0.009,15.338c0.292,11.979,4.291,29.327,14.437,41.784L145.432,151.21"/>
				<polyline clip-path="url(#SVGID_10_)" fill-rule="evenodd" clip-rule="evenodd" fill="#D8D8D8" points="145.432,151.21 
					98.369,117.481 98.557,117.184 192.182,117.075 192.383,117.476 145.432,151.21 				"/>
				<polyline clip-path="url(#SVGID_10_)" fill-rule="evenodd" clip-rule="evenodd" fill="#E4483C" points="192.43,117.491 
					192.43,75.372 98.369,75.356 98.369,117.481 192.43,117.491 				"/>
				<path clip-path="url(#SVGID_10_)" fill="#D8D8D8" d="M18.479,94.491c4.655-2.799,10.696-1.291,13.493,3.368
					c2.796,4.658,1.289,10.703-3.367,13.501c-4.655,2.799-10.696,1.291-13.492-3.367C12.316,103.334,13.823,97.289,18.479,94.491"/>
				<path clip-path="url(#SVGID_10_)" fill="#D8D8D8" d="M23.51,102.903"/>
				<path clip-path="url(#SVGID_10_)" fill="#D8D8D8" d="M11.858,119.132c4.297-2.583,9.873-1.191,12.455,3.109
					c2.581,4.3,1.19,9.88-3.108,12.463c-4.297,2.583-9.873,1.191-12.455-3.109C6.169,127.295,7.56,121.715,11.858,119.132"/>
				<path clip-path="url(#SVGID_10_)" fill="#D8D8D8" d="M16.51,126.903"/>
				<path clip-path="url(#SVGID_10_)" fill="#D8D8D8" d="M10.308,143.657c3.94-2.368,9.051-1.092,11.417,2.85
					c2.367,3.942,1.091,9.057-2.848,11.425c-3.939,2.368-9.051,1.092-11.417-2.85C5.093,151.14,6.369,146.025,10.308,143.657"/>
				<path clip-path="url(#SVGID_10_)" fill="#D8D8D8" d="M14.582,150.787"/>
				<path clip-path="url(#SVGID_10_)" fill="#D8D8D8" d="M12.615,165.664c3.581-2.152,8.228-0.992,10.379,2.591
					c2.151,3.583,0.992,8.233-2.589,10.386c-3.581,2.153-8.228,0.993-10.379-2.591C7.875,172.467,9.034,167.817,12.615,165.664"/>
				<path clip-path="url(#SVGID_10_)" fill="#D8D8D8" d="M16.51,172.153"/>
				<path clip-path="url(#SVGID_10_)" fill="#D8D8D8" d="M17.994,186.306c3.223-1.938,7.405-0.894,9.341,2.331
					c1.936,3.225,0.893,7.41-2.33,9.347c-3.223,1.938-7.405,0.894-9.341-2.331C13.728,192.428,14.771,188.243,17.994,186.306"/>
				<path clip-path="url(#SVGID_10_)" fill="#D8D8D8" d="M21.51,192.153"/>
				<path clip-path="url(#SVGID_10_)" fill-rule="evenodd" clip-rule="evenodd" fill="#D8D8D8" d="M177.995,174.494l-32.563-23.284
					l-32.617,23.284c8.359,10.889,19.648,19.643,32.705,24.502C158.642,194.113,169.753,185.46,177.995,174.494"/>
				<path clip-path="url(#SVGID_10_)" fill="#D8D8D8" d="M273.527,93.688c7.629,17.057,11.938,35.923,12.103,55.777l15.08-0.011
					l-0.012,1.668l-28.628-0.014c-0.125-18.72-3.987-36.029-11.088-51.789L273.527,93.688z"/>
				<path clip-path="url(#SVGID_10_)" fill="none" stroke="#D8D8D8" stroke-miterlimit="3.864" d="M273.527,93.688
					c7.629,17.057,11.938,35.923,12.103,55.777l15.08-0.011l-0.012,1.668l-28.628-0.014c-0.125-18.72-3.987-36.029-11.088-51.789
					L273.527,93.688z"/>
				<path clip-path="url(#SVGID_10_)" fill-rule="evenodd" clip-rule="evenodd" fill="#334C99" d="M45.92,68.682
					c2.747,2.679,5.013,1.81,7.374-0.824c1.099-1.226,2.093-2.982,1.676-4.661c-0.346-1.434-1.41-2.714-2.636-3.814l-6.393-5.731
					c-1.166-1.045-1.672-0.846-2.771,0.381l-0.309,0.303l-0.603-0.54c0.781-0.75,1.543-1.519,2.263-2.323
					c0.721-0.804,1.402-1.644,2.045-2.482l0.603,0.54l-0.268,0.34c-1.136,1.267-1.297,1.811-0.131,2.856l7.418,6.65
					c1.106,0.992,1.718,2.048,2.142,3.516c0.283,0.979,0.142,2.593-0.266,3.533c-0.423,0.998-1.29,2.288-2.01,3.093
					c-1.641,1.829-3.886,3.768-6.541,3.129c-1.355-0.308-2.079-0.957-3.084-1.858l-7.238-6.488c-1.568-1.406-1.69-1.552-3.521,0.288
					l-0.603-0.541c0.871-0.851,1.758-1.76,2.641-2.745c0.883-0.985,1.69-1.966,2.495-2.985l0.603,0.541
					c-1.629,2.02-1.471,2.126,0.098,3.532L45.92,68.682"/>
				<path clip-path="url(#SVGID_10_)" fill-rule="evenodd" clip-rule="evenodd" fill="#334C99" d="M74.771,46.919l-8.118-10.685
					c-0.948-1.247-1.481-1.146-2.793-0.15l-0.36,0.24l-0.49-0.645c0.909-0.589,1.801-1.199,2.661-1.853
					c0.86-0.653,1.687-1.349,2.477-2.051l0.49,0.645l-0.328,0.283c-1.354,1.029-1.616,1.533-0.668,2.78l9.457,12.448l0.669,0.746
					l-1.927,0.989l-19.972-4.73l7.97,10.491c0.948,1.247,1.503,1.13,2.858,0.101l0.36-0.24l0.49,0.645
					c-0.887,0.573-1.78,1.183-2.64,1.837c-0.86,0.653-1.687,1.349-2.498,2.067l-0.49-0.645l0.327-0.283
					c1.312-0.996,1.552-1.483,0.605-2.73l-8.216-10.815c-0.948-1.247-1.439-1.179-2.659-0.286l-0.301,0.229l-0.49-0.645
					c0.673-0.409,1.307-0.823,1.952-1.313c0.624-0.474,1.193-0.974,1.767-1.512L74.771,46.919"/>
				<path clip-path="url(#SVGID_10_)" fill-rule="evenodd" clip-rule="evenodd" fill="#334C99" d="M85.551,40.071
					c1.019,1.843,1.087,2.022,3.421,0.885l0.392,0.709c-1.174,0.556-2.31,1.123-3.468,1.763c-1.158,0.641-2.242,1.302-3.266,1.961
					l-0.392-0.709c2.203-1.372,2.088-1.525,1.068-3.368l-5.997-10.845c-1.019-1.843-1.087-2.021-3.421-0.885l-0.392-0.709
					c1.103-0.517,2.239-1.084,3.397-1.724c1.158-0.64,2.242-1.301,3.337-2l0.392,0.709c-2.203,1.373-2.088,1.525-1.068,3.368
					L85.551,40.071"/>
				<path clip-path="url(#SVGID_10_)" fill-rule="evenodd" clip-rule="evenodd" fill="#334C99" d="M87.545,24.351
					c-1.089-1.137-0.928-1.317-2.388-0.971l-0.487,0.164l-0.298-0.753c1.134-0.362,2.259-0.749,3.388-1.196
					c1.13-0.447,2.215-0.934,3.29-1.447l0.298,0.753c-2.43,0.904-2.091,1.321-1.716,1.754l2.057,2.409l7.841,8.366l0.049-9.486
					l-0.122-3.465c-0.055-1.604,0.287-3.017-2.686-1.724l-0.299-0.753c0.934-0.283,1.833-0.58,2.761-0.948
					c0.929-0.367,1.788-0.765,2.662-1.199l0.298,0.754c-1.646,0.535-1.329,1.484-1.343,2.767l-0.109,11.978l0.055,5.35l-1.255,0.497
					l-1.198-1.414l-1.783-1.936L87.545,24.351"/>
				<path clip-path="url(#SVGID_10_)" fill-rule="evenodd" clip-rule="evenodd" fill="#334C99" d="M113.675,28.533
					c0.225,0.946,0.401,1.57,0.668,2.228c1.004-0.1,2.343-0.418,3.604-0.717c1.419-0.337,2.851-0.733,4.124-1.451
					c0.037-0.426,0.056-0.93-0.003-1.415l-0.107-1.501l0.867-0.206c0.026,0.577,0.043,1.35,0.242,2.19l0.518,2.181
					c-0.94,0.362-2.707,0.754-4.329,1.167c-1.569,0.289-3.158,0.611-4.76,0.991c-1.602,0.381-3.14,0.802-4.724,1.261l-0.187-0.788
					c1.301-0.364,2.116-1.141,1.698-2.901l-2.864-12.057c-0.486-2.049-0.504-2.24-3.057-1.772l-0.187-0.788
					c1.621-0.302,3.21-0.624,4.838-1.011c1.629-0.386,3.219-0.82,4.777-1.272c1.661-0.367,3.467-0.824,4.392-0.905
					c-0.084,0.936,0.011,1.801,0.184,2.648c0.132,0.552,0.159,1.017,0.29,1.569l-0.815,0.193c-0.269-1.018-0.602-1.716-0.979-2.487
					c-1.354-0.094-2.706,0.171-4.02,0.483c-1.156,0.275-2.391,0.568-3.226,0.905c0.051,0.682,0.168,1.292,0.386,2.212l1.167,4.912
					c5.739-1.308,6.182-1.08,5.597-3.66l0.866-0.206l1.442,6.068l-0.867,0.206c-0.705-2.969-0.852-2.767-6.739-1.147L113.675,28.533
					"/>
				<path clip-path="url(#SVGID_10_)" fill-rule="evenodd" clip-rule="evenodd" fill="#334C99" d="M129.563,13.394
					c-0.151-2.101-0.138-2.291-2.733-2.239l-0.058-0.808c1.514-0.028,3.08-0.087,4.668-0.201c1.589-0.115,3.147-0.281,4.704-0.475
					c3.702-0.456,5.571,1.44,5.734,3.702c0.212,2.935-2.301,4.876-4.876,5.576l6.687,7.53c0.468,0.481,1.045,0.602,1.589,0.644
					l0.059,0.808c-0.599-0.038-1.222-0.048-1.841-0.003c-0.62,0.044-1.208,0.141-1.822,0.267c-0.471-0.535-0.802-0.998-1.212-1.429
					l-7.004-7.779l0.079-0.411c0.839-0.007,1.671-0.094,2.47-0.287c1.861-0.459,3.373-2.029,3.229-4.022
					c-0.21-2.908-2.426-3.615-4.419-3.471c-0.943,0.068-1.956,0.276-2.668,0.544c-0.128,0.469-0.088,1.035-0.027,1.87l0.89,12.36
					c0.152,2.101,0.138,2.291,2.733,2.24l0.059,0.808c-1.299,0.012-2.569,0.049-3.888,0.145c-1.32,0.095-2.581,0.24-3.788,0.408
					l-0.058-0.808c2.576-0.321,2.535-0.508,2.384-2.608L129.563,13.394"/>
				<path clip-path="url(#SVGID_10_)" fill-rule="evenodd" clip-rule="evenodd" fill="#334C99" d="M159.941,14.619
					c0.077-1.023,0.13-1.723-0.106-2.175c-0.641-1.186-2.52-1.762-3.784-1.858c-2.208-0.168-4.209,1.224-4.386,3.539
					c-0.443,5.842,10.64,1.811,10.126,8.568c-0.35,4.604-4.637,6.498-8.647,6.194c-1.616-0.123-3.093-0.641-4.526-1.373
					c0.186-1.015,0.337-2.303,0.444-3.351l0.057-0.754l0.916,0.069l-0.097,1.266c-0.045,0.592-0.03,1.108,0.271,1.428
					c1.005,1.025,2.706,1.452,4.079,1.556c2.423,0.184,4.9-1.063,5.104-3.728c0.495-6.515-10.629-1.241-10.033-9.076
					c0.28-3.688,3.581-5.793,7.054-5.529c1.831,0.139,3.482,0.86,5.129,1.636c-0.112,0.424-0.254,0.847-0.313,1.275
					c-0.115,0.804-0.282,1.577-0.37,2.382L159.941,14.619"/>
				<path clip-path="url(#SVGID_10_)" fill-rule="evenodd" clip-rule="evenodd" fill="#334C99" d="M170.987,27.605
					c-0.404,2.067-0.467,2.247,2.051,2.877l-0.155,0.795c-1.257-0.328-2.491-0.625-3.789-0.879c-1.3-0.254-2.556-0.444-3.764-0.598
					l0.156-0.795c2.57,0.365,2.579,0.174,2.984-1.892l2.378-12.163c0.403-2.067,0.467-2.247-2.052-2.877l0.156-0.795
					c1.177,0.313,2.411,0.609,3.71,0.863c1.298,0.254,2.555,0.445,3.842,0.614l-0.155,0.795c-2.57-0.365-2.579-0.175-2.984,1.892
					L170.987,27.605"/>
				<path clip-path="url(#SVGID_10_)" fill-rule="evenodd" clip-rule="evenodd" fill="#334C99" d="M187.523,20.02
					c0.298-0.982,0.57-1.802,0.748-2.597l-3.989-1.181c-0.547-0.152-0.88-0.178-1.152,0.472c-0.307,0.581-0.681,1.196-0.936,1.879
					l-0.769-0.255c0.16-0.487,0.313-0.948,0.449-1.443c0.272-0.906,0.544-1.811,0.782-2.785c2.409,0.885,4.826,1.744,7.338,2.577
					c2.485,0.824,4.938,1.581,7.448,2.328c-0.391,0.923-0.714,1.811-1.038,2.7c-0.187,0.478-0.34,0.94-0.501,1.426l-0.769-0.255
					c0.204-0.7,0.271-1.417,0.373-2.066c0.169-0.684-0.113-0.862-0.643-1.067l-3.956-1.454c-0.331,0.743-0.603,1.563-0.952,2.529
					l-3.639,10.968c-0.663,1.999-0.748,2.17,1.67,3.114l-0.255,0.769c-1.205-0.485-2.392-0.936-3.648-1.353
					c-1.256-0.416-2.477-0.764-3.655-1.07l0.255-0.769c2.503,0.688,2.537,0.5,3.2-1.499L187.523,20.02"/>
				<path clip-path="url(#SVGID_10_)" fill-rule="evenodd" clip-rule="evenodd" fill="#334C99" d="M238.639,43.826
					c-4.679-4.167-10.445-3.453-14.057,0.707c-4.033,4.649-3.412,10.194,0.728,13.787c4.466,3.875,10.935,3.341,14.74-1.043
					C243.979,52.75,243.002,47.613,238.639,43.826 M226.723,58.009c-4.037-3.504-2.472-8.687,0.626-12.255
					c2.902-3.344,6.654-4.414,10.203-1.335c3.793,3.292,3.271,7.559-0.232,11.596C234.063,59.767,230.324,60.74,226.723,58.009z"/>
				<path clip-path="url(#SVGID_10_)" fill-rule="evenodd" clip-rule="evenodd" fill="#334C99" d="M248.67,58.731
					c1.611-1.357,1.773-1.458,0.207-3.527l0.62-0.522c0.999,1.312,2.001,2.586,3.079,3.866c1.078,1.281,2.181,2.506,3.286,3.693
					c1.074,1.319,2.295,2.727,2.783,3.516c-0.873,0.347-1.604,0.821-2.282,1.356c-0.433,0.366-0.837,0.599-1.27,0.964l-0.54-0.64
					c0.789-0.699,1.263-1.31,1.78-1.993c-0.524-1.253-1.37-2.341-2.239-3.373c-0.766-0.909-1.582-1.88-2.26-2.475
					c-0.403,0.234-0.831,0.523-1.43,1.027l-4.234,3.565c3.75,4.538,3.745,5.036,5.787,3.352l0.574,0.682l-4.771,4.017l-0.573-0.682
					c2.334-1.965,2.088-2.005-2.007-6.534l-4.338,3.652c-1.611,1.356-1.773,1.457-0.207,3.527l-0.619,0.522
					c-0.773-1.044-1.549-2.049-2.401-3.061c-0.852-1.012-1.711-1.948-2.555-2.826l0.619-0.521c1.772,1.896,1.899,1.753,3.511,0.397
					L248.67,58.731"/>
				<path clip-path="url(#SVGID_10_)" fill-rule="evenodd" clip-rule="evenodd" fill="#334C99" d="M55.141,245.857
					c0,1.679-0.663,2.063-2.067,2.333v1.149c1.716-0.115,3.436-0.187,5.195-0.187c1.758,0,3.475,0.071,5.193,0.187
					c9.368,0.624,16.605-5.864,16.605-15.271c0-7.573-5.949-12.056-13.209-11.979c-2.498,0.117-4.996,0.187-7.573,0.187
					c-2.58,0-5.08-0.07-7.576-0.186v1.205c3.081,0.039,3.432,0.272,3.432,3.941V245.857 M58.817,227.393
					c0-1.405,0.039-2.42,0.156-3.318c1.757-0.078,3.474-0.235,5.192-0.235c6.714,0,11.788,3.163,11.788,11.399
					c0,7.144-3.357,12.682-13.311,12.414c-1.405-0.039-2.576-0.117-3.669-0.274c-0.156-1.014-0.156-2.186-0.156-3.318V227.393z"/>
				<path clip-path="url(#SVGID_10_)" fill-rule="evenodd" clip-rule="evenodd" fill="#334C99" d="M92.066,240.352
					c-0.233,5.524,2.887,7.119,7.999,7.119c2.38,0,5.228-0.622,6.633-2.684c1.21-1.751,1.561-4.124,1.561-6.497v-12.372
					c0-2.256-0.702-2.606-3.083-2.606l-0.624-0.04v-1.175c1.561,0.117,3.121,0.175,4.686,0.175c1.563,0,3.122-0.058,4.644-0.176
					v1.176l-0.624,0.04c-2.457,0-3.198,0.35-3.198,2.606v14.356c0,2.14-0.548,3.812-1.723,5.68c-0.78,1.245-2.653,2.652-4.058,3.121
					c-1.483,0.509-3.707,0.822-5.268,0.822c-3.55,0-7.799-0.549-9.662-4.021c-0.971-1.751-0.971-3.151-0.971-5.096v-14.006
					c0-3.034,0.039-3.307-3.705-3.502v-1.175c1.755,0.117,3.588,0.175,5.491,0.175c1.902,0,3.736-0.058,5.609-0.176v1.176
					c-3.746,0.195-3.707,0.468-3.707,3.502V240.352"/>
				<path clip-path="url(#SVGID_10_)" fill-rule="evenodd" clip-rule="evenodd" fill="#334C99" d="M143.471,245.277v-19.356
					c0-2.259-0.703-2.609-3.082-2.609l-0.624-0.04v-1.176c1.56,0.118,3.121,0.196,4.685,0.196c1.563,0,3.123-0.078,4.645-0.196
					v1.176l-0.624,0.04c-2.458,0-3.198,0.35-3.198,2.609v22.551l0.117,1.447l-3.089-0.546l-18.841-22.868v19.005
					c0,2.259,0.742,2.61,3.199,2.61l0.624,0.039v1.175c-1.521-0.117-3.081-0.175-4.645-0.175c-1.563,0-3.123,0.058-4.683,0.175
					v-1.175l0.624-0.039c2.379,0,3.081-0.352,3.081-2.61v-19.589c0-2.259-0.624-2.609-2.808-2.649h-0.546v-1.175
					c1.131,0.117,2.223,0.175,3.393,0.175c1.135,0,2.23-0.058,3.361-0.176L143.471,245.277"/>
				<path clip-path="url(#SVGID_10_)" fill-rule="evenodd" clip-rule="evenodd" fill="#334C99" d="M157.438,245.857
					c0,1.679-0.663,2.063-2.067,2.333v1.149c1.716-0.115,3.436-0.187,5.195-0.187c1.757,0,3.475,0.071,5.192,0.187
					c9.368,0.624,16.604-5.864,16.604-15.271c0-7.573-5.948-12.056-13.209-11.979c-2.498,0.117-4.996,0.187-7.572,0.187
					c-2.58,0-5.08-0.07-7.576-0.186v1.205c3.081,0.039,3.433,0.272,3.433,3.941V245.857 M161.113,227.393
					c0-1.405,0.039-2.42,0.156-3.318c1.757-0.078,3.475-0.235,5.191-0.235c6.715,0,11.789,3.163,11.789,11.399
					c0,7.144-3.356,12.682-13.311,12.414c-1.405-0.039-2.577-0.117-3.67-0.274c-0.156-1.014-0.156-2.186-0.156-3.318V227.393z"/>
				<path clip-path="url(#SVGID_10_)" fill-rule="evenodd" clip-rule="evenodd" fill="#334C99" d="M194.8,243.987
					c0,1.402,0.039,2.338,0.193,3.352c1.442,0.195,3.43,0.195,5.298,0.195c2.104,0,4.246-0.078,6.267-0.663
					c0.19-0.585,0.383-1.286,0.459-1.988l0.345-2.143h1.287c-0.156,0.817-0.39,1.909-0.39,3.157v3.241
					c-1.434,0.195-4.032,0.156-6.448,0.195c-2.298-0.117-4.635-0.175-7.011-0.175c-2.368,0-4.663,0.058-7.042,0.175v-1.174
					c1.949-0.078,3.354-0.899,3.354-3.511v-17.875c0-3.035,0.039-3.309-3.705-3.504v-1.174c2.379,0.117,4.714,0.175,7.121,0.175
					c2.414,0,4.79-0.058,7.128-0.176c2.454,0.039,5.131,0,6.447,0.196c-0.429,1.292-0.585,2.539-0.624,3.783
					c0,0.817-0.117,1.478-0.117,2.294h-1.187c-0.039-1.516-0.273-2.605-0.547-3.811c-1.869-0.583-3.855-0.661-5.804-0.661
					c-1.714,0-3.545,0-4.831,0.195c-0.154,0.972-0.193,1.866-0.193,3.227v7.273c8.491,0.078,9.036,0.546,9.075-3.267h1.286v8.998
					h-1.286c0-4.405-0.271-4.171-9.075-3.859V243.987"/>
				<path clip-path="url(#SVGID_10_)" fill-rule="evenodd" clip-rule="evenodd" fill="#334C99" d="M221.748,243.987
					c0,1.402,0.039,2.338,0.195,3.352c1.442,0.195,3.428,0.195,5.298,0.195c2.104,0,4.246-0.078,6.265-0.663
					c0.192-0.585,0.384-1.286,0.461-1.988l0.345-2.143h1.287c-0.156,0.817-0.391,1.909-0.391,3.157v3.241
					c-1.433,0.195-4.031,0.156-6.447,0.195c-2.299-0.117-4.636-0.175-7.013-0.175c-2.367,0-4.662,0.058-7.041,0.175v-1.174
					c1.95-0.078,3.354-0.899,3.354-3.511v-17.875c0-3.035,0.039-3.309-3.705-3.504v-1.174c2.379,0.117,4.714,0.175,7.121,0.175
					c2.414,0,4.79-0.058,7.127-0.176c2.455,0.039,5.132,0,6.448,0.196c-0.43,1.292-0.585,2.539-0.624,3.783
					c0,0.817-0.117,1.478-0.117,2.294h-1.188c-0.039-1.516-0.271-2.605-0.545-3.811c-1.87-0.583-3.856-0.661-5.804-0.661
					c-1.714,0-3.545,0-4.831,0.195c-0.156,0.972-0.195,1.866-0.195,3.227v7.273c8.493,0.078,9.038,0.546,9.077-3.267h1.285v8.998
					h-1.285c0-4.405-0.272-4.171-9.077-3.859V243.987"/>
				<path clip-path="url(#SVGID_10_)" fill-rule="evenodd" clip-rule="evenodd" fill="#F8F400" d="M145.505,109.428h-0.082
					c-18.294,0-28.101,4.276-28.101,4.276l-14.846-24.01c0,0,7.171-1.129,9.444,8.672c0.245-3.835,2.592-5.344,4.623-4.021
					c4.083,3.438,0.683,7.508,0.683,7.508s-0.447-3.686-2.664-2.021c-1.243,0.901-0.739,2.016-0.739,2.016s0.341,1.157,1.769,2.424
					c1.176,1.09,8.532,0.49,10.57-4.253c0.753-2.733,0.186-5.312-0.963-5.94c-1.149-0.627-1.915,0.332-2.052,0.57
					c-0.138,0.238-0.068,1.157-0.068,1.157s-1.145-0.631-0.928-1.921c0.043-0.26-0.719,0.2-0.868,0.237
					c-0.833,0.208-1.895-0.445-1.895-0.445s0.608-1.074,1.437-1.298c0.148-0.04,1.037-0.009,0.873-0.215
					c-0.816-1.022-0.123-2.13-0.123-2.13s0.386,0.838,0.622,0.979c0.236,0.14,1.371,0.607,2.07-0.5
					c0.699-1.108-0.32-1.982-0.558-2.12c-0.238-0.137-1.157-0.068-1.157-0.068s0.632-1.144,1.921-0.927
					c0.26,0.044-0.198-0.719-0.235-0.868c-0.207-0.833,0.354-1.87,0.354-1.87s1.039,0.654,1.263,1.483
					c0.04,0.148,0.01,1.037,0.216,0.873c1.021-0.817,2.13-0.125,2.13-0.125s-0.838,0.387-0.978,0.623
					c-0.141,0.236-0.607,1.495,0.542,2.123c1.149,0.628,1.915-0.332,2.052-0.569c0.138-0.238,0.068-1.158,0.068-1.158
					s1.145,0.632,0.929,1.921c-0.044,0.26,0.718-0.199,0.867-0.236c0.833-0.208,1.895,0.444,1.895,0.444s-0.612,1.108-1.441,1.331
					c-0.148,0.04-1.037,0.009-0.873,0.215c0.816,1.022,0.123,2.13,0.123,2.13s-0.386-0.837-0.622-0.978
					c-0.236-0.141-1.371-0.607-2.07,0.5s-0.142,3.436,2.119,5.688c3.71,2.864,11.046,0.763,11.437-1.408
					c0.573-1.821,0.27-2.989,0.27-2.989s-0.142-1.215-1.671-1.348c-2.758-0.286-1.245,3.104-1.245,3.104s-5.01-1.74-3.278-6.789
					c1.061-2.179,3.849-2.094,6.033,1.068c-3.095-9.573,3.123-12.332,3.123-12.332h0.003c0,0,6.218,2.759,3.124,12.332
					c2.183-3.162,4.972-3.247,6.032-1.068c1.731,5.049-3.278,6.789-3.278,6.789s1.514-3.39-1.244-3.104
					c-1.528,0.133-1.671,1.348-1.671,1.348s-0.303,1.168,0.27,2.989c0.392,2.171,7.743,4.272,11.454,1.408
					c2.262-2.252,2.802-4.581,2.103-5.688s-1.835-0.641-2.07-0.5c-0.235,0.141-0.622,0.978-0.622,0.978s-0.693-1.108,0.122-2.13
					c0.165-0.206-0.725-0.175-0.873-0.215c-0.829-0.223-1.439-1.331-1.439-1.331s1.061-0.652,1.894-0.444
					c0.149,0.037,0.911,0.496,0.868,0.236c-0.216-1.289,0.928-1.921,0.928-1.921s-0.069,0.92,0.068,1.158
					c0.137,0.237,0.903,1.197,2.052,0.569c1.149-0.627,0.684-1.887,0.543-2.123c-0.141-0.236-0.978-0.623-0.978-0.623
					s1.108-0.692,2.13,0.125c0.205,0.164,0.176-0.725,0.216-0.873c0.224-0.829,1.263-1.483,1.263-1.483s0.562,1.037,0.354,1.87
					c-0.037,0.149-0.496,0.912-0.236,0.868c1.289-0.217,1.922,0.927,1.922,0.927s-0.92-0.069-1.158,0.068
					c-0.236,0.138-1.257,1.012-0.558,2.12c0.699,1.107,1.835,0.64,2.07,0.5c0.235-0.141,0.622-0.979,0.622-0.979
					s0.693,1.108-0.122,2.13c-0.165,0.206,0.725,0.175,0.873,0.215c0.829,0.224,1.436,1.298,1.436,1.298s-1.062,0.653-1.895,0.445
					c-0.149-0.037-0.911-0.497-0.867-0.237c0.216,1.29-0.929,1.921-0.929,1.921s0.069-0.919-0.068-1.157
					c-0.137-0.238-0.903-1.197-2.052-0.57c-1.149,0.628-1.715,3.207-0.962,5.94c2.037,4.743,9.393,5.343,10.568,4.253
					c1.429-1.267,1.771-2.424,1.771-2.424s0.503-1.115-0.739-2.016c-2.218-1.665-2.665,2.021-2.665,2.021s-3.399-4.071,0.685-7.508
					c2.029-1.323,4.377,0.187,4.621,4.021c2.273-9.801,9.444-8.672,9.444-8.672l-14.846,24.01
					C173.643,113.704,163.799,109.428,145.505,109.428"/>
				<path clip-path="url(#SVGID_10_)" fill-rule="evenodd" clip-rule="evenodd" fill="#E4483C" d="M129.306,105.965
					c-0.187-1.062,1.187-2.191,3.069-2.523c1.882-0.331,3.559,0.261,3.746,1.323c0.188,1.061-1.187,2.191-3.069,2.522
					C131.17,107.618,129.493,107.026,129.306,105.965"/>
				<path clip-path="url(#SVGID_10_)" fill-rule="evenodd" clip-rule="evenodd" fill="#E4483C" d="M132.667,105.224"/>
				<path clip-path="url(#SVGID_10_)" fill="none" stroke="#334C99" stroke-width="0.999" d="M132.667,105.224"/>
				<path clip-path="url(#SVGID_10_)" fill-rule="evenodd" clip-rule="evenodd" fill="#E4483C" d="M161.708,105.999
					c0.188-1.062-1.187-2.191-3.068-2.523c-1.882-0.331-3.56,0.261-3.746,1.322c-0.188,1.062,1.187,2.191,3.068,2.523
					C159.844,107.652,161.521,107.06,161.708,105.999"/>
				<path clip-path="url(#SVGID_10_)" fill-rule="evenodd" clip-rule="evenodd" fill="#E4483C" d="M158.253,105.258"/>
				<path clip-path="url(#SVGID_10_)" fill="none" stroke="#334C99" stroke-width="0.999" d="M158.253,105.258"/>
				<polyline clip-path="url(#SVGID_10_)" fill-rule="evenodd" clip-rule="evenodd" fill="#334C99" points="166.743,106.935 
					170.958,106.225 173.841,109.331 169.626,110.04 166.743,106.935 				"/>
				<polyline clip-path="url(#SVGID_10_)" fill-rule="evenodd" clip-rule="evenodd" fill="#334C99" points="124.312,107.024 
					120.097,106.314 117.214,109.419 121.428,110.129 124.312,107.024 				"/>
				
					<rect x="141.413" y="102.609" clip-path="url(#SVGID_10_)" fill-rule="evenodd" clip-rule="evenodd" fill="#334C99" width="8.163" height="3.993"/>
				<path clip-path="url(#SVGID_10_)" fill-rule="evenodd" clip-rule="evenodd" fill="#334C99" d="M145.448,104.465"/>
				<path clip-path="url(#SVGID_10_)" fill="none" stroke="#334C99" stroke-width="0.999" d="M145.448,104.465"/>
				<path clip-path="url(#SVGID_10_)" fill-rule="evenodd" clip-rule="evenodd" fill="#F8F400" d="M115.505,104.373
					c0.503-0.323,0.65-0.992,0.327-1.495c-0.323-0.504-0.992-0.65-1.495-0.328l-3.224,2.067c-0.503,0.323-0.65,0.992-0.327,1.495
					c0.322,0.503,0.992,0.65,1.495,0.327L115.505,104.373"/>
				<path clip-path="url(#SVGID_10_)" fill-rule="evenodd" clip-rule="evenodd" fill="#F8F400" d="M175.464,104.491
					c-0.505-0.322-0.65-0.992-0.327-1.495c0.321-0.503,0.991-0.65,1.495-0.327l3.224,2.067c0.503,0.322,0.648,0.992,0.327,1.495
					c-0.323,0.503-0.992,0.649-1.495,0.327L175.464,104.491"/>
				<path clip-path="url(#SVGID_10_)" fill-rule="evenodd" clip-rule="evenodd" fill="#F8F400" d="M148.581,98.291
					c0.599,0,1.082-0.484,1.083-1.082c0-0.598-0.484-1.082-1.082-1.082l-6.161-0.002c-0.597,0-1.082,0.484-1.082,1.082
					c-0.001,0.598,0.484,1.082,1.081,1.083L148.581,98.291"/>
				<path clip-path="url(#SVGID_10_)" fill-rule="evenodd" clip-rule="evenodd" fill="#334C99" d="M211.916,29.709
					c1.536-1.025,2.967-1.578,0.017-2.93l0.361-0.724c0.834,0.507,1.663,0.966,2.558,1.413c0.895,0.446,1.759,0.832,2.666,1.194
					l-0.362,0.725c-1.499-0.869-2.407-0.08-4.335,1.123c0,0-5.197,3.026-6.3,3.909c-0.604,0.482-0.952,1.06-1.241,1.638
					l-1.612,3.229c-0.938,1.88-1.047,2.037,1.211,3.315l-0.36,0.724c-1.124-0.651-2.24-1.255-3.423-1.845
					c-1.183-0.591-2.336-1.121-3.459-1.591l0.361-0.725c2.379,1.038,2.439,0.857,3.377-1.022l1.77-3.543
					c0.096-0.192,0.241-0.481,0.252-0.807l-0.372-6.507l-0.241-3.347c-0.233-1.631,0.079-1.47-1.153-2.327l-0.446-0.254l0.361-0.724
					c1.026,0.603,2.071,1.17,3.158,1.713c1.087,0.543,2.168,1.037,3.268,1.495l-0.362,0.725c-2.295-1.206-2.321-0.61-2.393-0.043
					l0.056,1.099l0.368,7.845l4.448-2.685L211.916,29.709"/>
			</g>
		</g>
	</g>
</g>
<g id="Layer_1_copy">
	<line fill="#FFFFFF" x1="-151.598" y1="-192" x2="-151.598" y2="-192"/>
	<g>
		<defs>
			<rect id="SVGID_11_" x="-216.598" y="-257" width="725" height="972"/>
		</defs>
		<clipPath id="SVGID_12_">
			<use xlink:href="#SVGID_11_"  overflow="visible"/>
		</clipPath>
		<g clip-path="url(#SVGID_12_)">
			<defs>
				<rect id="SVGID_13_" x="-151.598" y="-192.04" width="594.96" height="842.04"/>
			</defs>
			<clipPath id="SVGID_14_">
				<use xlink:href="#SVGID_13_"  overflow="visible"/>
			</clipPath>
			
				<rect x="-150.688" y="-20.44" clip-path="url(#SVGID_14_)" fill-rule="evenodd" clip-rule="evenodd" fill="none" width="594.37" height="398.95"/>
		</g>
	</g>
	<g>
		<defs>
			<rect id="SVGID_15_" x="-150.688" y="-20.44" width="594.37" height="398.95"/>
		</defs>
		<clipPath id="SVGID_16_">
			<use xlink:href="#SVGID_15_"  overflow="visible"/>
		</clipPath>
		<g clip-path="url(#SVGID_16_)">
			<defs>
				<rect id="SVGID_17_" x="-216.598" y="-257" width="725" height="972"/>
			</defs>
			<clipPath id="SVGID_18_">
				<use xlink:href="#SVGID_17_"  overflow="visible"/>
			</clipPath>
			<g clip-path="url(#SVGID_18_)">
				<defs>
					<rect id="SVGID_19_" x="-151.598" y="-192.04" width="594.96" height="842.04"/>
				</defs>
				<clipPath id="SVGID_20_">
					<use xlink:href="#SVGID_19_"  overflow="visible"/>
				</clipPath>
				<path clip-path="url(#SVGID_20_)" fill-rule="evenodd" clip-rule="evenodd" fill="#334C99" d="M145.45,151.216l46.966-33.744
					l0.01,15.395c-0.276,11.885-4.275,29.233-14.422,41.69L145.45,151.216"/>
				<path clip-path="url(#SVGID_20_)" fill-rule="evenodd" clip-rule="evenodd" fill="#334C99" d="M145.432,151.21l-47.063-33.838
					l0.009,15.338c0.292,11.979,4.291,29.327,14.437,41.784L145.432,151.21"/>
				<polyline clip-path="url(#SVGID_20_)" fill-rule="evenodd" clip-rule="evenodd" fill="#D8D8D8" points="145.432,151.21 
					98.369,117.481 98.557,117.184 192.182,117.075 192.383,117.476 145.432,151.21 				"/>
				<polyline clip-path="url(#SVGID_20_)" fill-rule="evenodd" clip-rule="evenodd" fill="#E4483C" points="192.43,117.491 
					192.43,75.372 98.369,75.356 98.369,117.481 192.43,117.491 				"/>
				<path clip-path="url(#SVGID_20_)" fill="#D8D8D8" d="M18.479,94.491c4.655-2.799,10.696-1.291,13.493,3.368
					c2.796,4.658,1.289,10.703-3.367,13.501c-4.655,2.799-10.696,1.291-13.492-3.367C12.316,103.334,13.823,97.289,18.479,94.491"/>
				<path clip-path="url(#SVGID_20_)" fill="#D8D8D8" d="M23.51,102.903"/>
				<path clip-path="url(#SVGID_20_)" fill="#D8D8D8" d="M11.858,119.132c4.297-2.583,9.873-1.191,12.455,3.109
					c2.581,4.3,1.19,9.88-3.108,12.463c-4.297,2.583-9.873,1.191-12.455-3.109C6.169,127.295,7.56,121.715,11.858,119.132"/>
				<path clip-path="url(#SVGID_20_)" fill="#D8D8D8" d="M16.51,126.903"/>
				<path clip-path="url(#SVGID_20_)" fill="#D8D8D8" d="M10.308,143.657c3.94-2.368,9.051-1.092,11.417,2.85
					c2.367,3.942,1.091,9.057-2.848,11.425c-3.939,2.368-9.051,1.092-11.417-2.85C5.093,151.14,6.369,146.025,10.308,143.657"/>
				<path clip-path="url(#SVGID_20_)" fill="#D8D8D8" d="M14.582,150.787"/>
				<path clip-path="url(#SVGID_20_)" fill="#D8D8D8" d="M12.615,165.664c3.581-2.152,8.228-0.992,10.379,2.591
					c2.151,3.583,0.992,8.233-2.589,10.386c-3.581,2.153-8.228,0.993-10.379-2.591C7.875,172.467,9.034,167.817,12.615,165.664"/>
				<path clip-path="url(#SVGID_20_)" fill="#D8D8D8" d="M16.51,172.153"/>
				<path clip-path="url(#SVGID_20_)" fill="#D8D8D8" d="M17.994,186.306c3.223-1.938,7.405-0.894,9.341,2.331
					c1.936,3.225,0.893,7.41-2.33,9.347c-3.223,1.938-7.405,0.894-9.341-2.331C13.728,192.428,14.771,188.243,17.994,186.306"/>
				<path clip-path="url(#SVGID_20_)" fill="#D8D8D8" d="M21.51,192.153"/>
				<path clip-path="url(#SVGID_20_)" fill-rule="evenodd" clip-rule="evenodd" fill="#D8D8D8" d="M177.995,174.494l-32.563-23.284
					l-32.617,23.284c8.359,10.889,19.648,19.643,32.705,24.502C158.642,194.113,169.753,185.46,177.995,174.494"/>
				<path clip-path="url(#SVGID_20_)" fill="#D8D8D8" d="M273.527,93.688c7.629,17.057,11.938,35.923,12.103,55.777l15.08-0.011
					l-0.012,1.668l-28.628-0.014c-0.125-18.72-3.987-36.029-11.088-51.789L273.527,93.688z"/>
				<path clip-path="url(#SVGID_20_)" fill="none" stroke="#D8D8D8" stroke-miterlimit="3.864" d="M273.527,93.688
					c7.629,17.057,11.938,35.923,12.103,55.777l15.08-0.011l-0.012,1.668l-28.628-0.014c-0.125-18.72-3.987-36.029-11.088-51.789
					L273.527,93.688z"/>
				<path clip-path="url(#SVGID_20_)" fill-rule="evenodd" clip-rule="evenodd" fill="#334C99" d="M45.92,68.682
					c2.747,2.679,5.013,1.81,7.374-0.824c1.099-1.226,2.093-2.982,1.676-4.661c-0.346-1.434-1.41-2.714-2.636-3.814l-6.393-5.731
					c-1.166-1.045-1.672-0.846-2.771,0.381l-0.309,0.303l-0.603-0.54c0.781-0.75,1.543-1.519,2.263-2.323
					c0.721-0.804,1.402-1.644,2.045-2.482l0.603,0.54l-0.268,0.34c-1.136,1.267-1.297,1.811-0.131,2.856l7.418,6.65
					c1.106,0.992,1.718,2.048,2.142,3.516c0.283,0.979,0.142,2.593-0.266,3.533c-0.423,0.998-1.29,2.288-2.01,3.093
					c-1.641,1.829-3.886,3.768-6.541,3.129c-1.355-0.308-2.079-0.957-3.084-1.858l-7.238-6.488c-1.568-1.406-1.69-1.552-3.521,0.288
					l-0.603-0.541c0.871-0.851,1.758-1.76,2.641-2.745c0.883-0.985,1.69-1.966,2.495-2.985l0.603,0.541
					c-1.629,2.02-1.471,2.126,0.098,3.532L45.92,68.682"/>
				<path clip-path="url(#SVGID_20_)" fill-rule="evenodd" clip-rule="evenodd" fill="#334C99" d="M74.771,46.919l-8.118-10.685
					c-0.948-1.247-1.481-1.146-2.793-0.15l-0.36,0.24l-0.49-0.645c0.909-0.589,1.801-1.199,2.661-1.853
					c0.86-0.653,1.687-1.349,2.477-2.051l0.49,0.645l-0.328,0.283c-1.354,1.029-1.616,1.533-0.668,2.78l9.457,12.448l0.669,0.746
					l-1.927,0.989l-19.972-4.73l7.97,10.491c0.948,1.247,1.503,1.13,2.858,0.101l0.36-0.24l0.49,0.645
					c-0.887,0.573-1.78,1.183-2.64,1.837c-0.86,0.653-1.687,1.349-2.498,2.067l-0.49-0.645l0.327-0.283
					c1.312-0.996,1.552-1.483,0.605-2.73l-8.216-10.815c-0.948-1.247-1.439-1.179-2.659-0.286l-0.301,0.229l-0.49-0.645
					c0.673-0.409,1.307-0.823,1.952-1.313c0.624-0.474,1.193-0.974,1.767-1.512L74.771,46.919"/>
				<path clip-path="url(#SVGID_20_)" fill-rule="evenodd" clip-rule="evenodd" fill="#334C99" d="M85.551,40.071
					c1.019,1.843,1.087,2.022,3.421,0.885l0.392,0.709c-1.174,0.556-2.31,1.123-3.468,1.763c-1.158,0.641-2.242,1.302-3.266,1.961
					l-0.392-0.709c2.203-1.372,2.088-1.525,1.068-3.368l-5.997-10.845c-1.019-1.843-1.087-2.021-3.421-0.885l-0.392-0.709
					c1.103-0.517,2.239-1.084,3.397-1.724c1.158-0.64,2.242-1.301,3.337-2l0.392,0.709c-2.203,1.373-2.088,1.525-1.068,3.368
					L85.551,40.071"/>
				<path clip-path="url(#SVGID_20_)" fill-rule="evenodd" clip-rule="evenodd" fill="#334C99" d="M87.545,24.351
					c-1.089-1.137-0.928-1.317-2.388-0.971l-0.487,0.164l-0.298-0.753c1.134-0.362,2.259-0.749,3.388-1.196
					c1.13-0.447,2.215-0.934,3.29-1.447l0.298,0.753c-2.43,0.904-2.091,1.321-1.716,1.754l2.057,2.409l7.841,8.366l0.049-9.486
					l-0.122-3.465c-0.055-1.604,0.287-3.017-2.686-1.724l-0.299-0.753c0.934-0.283,1.833-0.58,2.761-0.948
					c0.929-0.367,1.788-0.765,2.662-1.199l0.298,0.754c-1.646,0.535-1.329,1.484-1.343,2.767l-0.109,11.978l0.055,5.35l-1.255,0.497
					l-1.198-1.414l-1.783-1.936L87.545,24.351"/>
				<path clip-path="url(#SVGID_20_)" fill-rule="evenodd" clip-rule="evenodd" fill="#334C99" d="M113.675,28.533
					c0.225,0.946,0.401,1.57,0.668,2.228c1.004-0.1,2.343-0.418,3.604-0.717c1.419-0.337,2.851-0.733,4.124-1.451
					c0.037-0.426,0.056-0.93-0.003-1.415l-0.107-1.501l0.867-0.206c0.026,0.577,0.043,1.35,0.242,2.19l0.518,2.181
					c-0.94,0.362-2.707,0.754-4.329,1.167c-1.569,0.289-3.158,0.611-4.76,0.991c-1.602,0.381-3.14,0.802-4.724,1.261l-0.187-0.788
					c1.301-0.364,2.116-1.141,1.698-2.901l-2.864-12.057c-0.486-2.049-0.504-2.24-3.057-1.772l-0.187-0.788
					c1.621-0.302,3.21-0.624,4.838-1.011c1.629-0.386,3.219-0.82,4.777-1.272c1.661-0.367,3.467-0.824,4.392-0.905
					c-0.084,0.936,0.011,1.801,0.184,2.648c0.132,0.552,0.159,1.017,0.29,1.569l-0.815,0.193c-0.269-1.018-0.602-1.716-0.979-2.487
					c-1.354-0.094-2.706,0.171-4.02,0.483c-1.156,0.275-2.391,0.568-3.226,0.905c0.051,0.682,0.168,1.292,0.386,2.212l1.167,4.912
					c5.739-1.308,6.182-1.08,5.597-3.66l0.866-0.206l1.442,6.068l-0.867,0.206c-0.705-2.969-0.852-2.767-6.739-1.147L113.675,28.533
					"/>
				<path clip-path="url(#SVGID_20_)" fill-rule="evenodd" clip-rule="evenodd" fill="#334C99" d="M129.563,13.394
					c-0.151-2.101-0.138-2.291-2.733-2.239l-0.058-0.808c1.514-0.028,3.08-0.087,4.668-0.201c1.589-0.115,3.147-0.281,4.704-0.475
					c3.702-0.456,5.571,1.44,5.734,3.702c0.212,2.935-2.301,4.876-4.876,5.576l6.687,7.53c0.468,0.481,1.045,0.602,1.589,0.644
					l0.059,0.808c-0.599-0.038-1.222-0.048-1.841-0.003c-0.62,0.044-1.208,0.141-1.822,0.267c-0.471-0.535-0.802-0.998-1.212-1.429
					l-7.004-7.779l0.079-0.411c0.839-0.007,1.671-0.094,2.47-0.287c1.861-0.459,3.373-2.029,3.229-4.022
					c-0.21-2.908-2.426-3.615-4.419-3.471c-0.943,0.068-1.956,0.276-2.668,0.544c-0.128,0.469-0.088,1.035-0.027,1.87l0.89,12.36
					c0.152,2.101,0.138,2.291,2.733,2.24l0.059,0.808c-1.299,0.012-2.569,0.049-3.888,0.145c-1.32,0.095-2.581,0.24-3.788,0.408
					l-0.058-0.808c2.576-0.321,2.535-0.508,2.384-2.608L129.563,13.394"/>
				<path clip-path="url(#SVGID_20_)" fill-rule="evenodd" clip-rule="evenodd" fill="#334C99" d="M159.941,14.619
					c0.077-1.023,0.13-1.723-0.106-2.175c-0.641-1.186-2.52-1.762-3.784-1.858c-2.208-0.168-4.209,1.224-4.386,3.539
					c-0.443,5.842,10.64,1.811,10.126,8.568c-0.35,4.604-4.637,6.498-8.647,6.194c-1.616-0.123-3.093-0.641-4.526-1.373
					c0.186-1.015,0.337-2.303,0.444-3.351l0.057-0.754l0.916,0.069l-0.097,1.266c-0.045,0.592-0.03,1.108,0.271,1.428
					c1.005,1.025,2.706,1.452,4.079,1.556c2.423,0.184,4.9-1.063,5.104-3.728c0.495-6.515-10.629-1.241-10.033-9.076
					c0.28-3.688,3.581-5.793,7.054-5.529c1.831,0.139,3.482,0.86,5.129,1.636c-0.112,0.424-0.254,0.847-0.313,1.275
					c-0.115,0.804-0.282,1.577-0.37,2.382L159.941,14.619"/>
				<path clip-path="url(#SVGID_20_)" fill-rule="evenodd" clip-rule="evenodd" fill="#334C99" d="M170.987,27.605
					c-0.404,2.067-0.467,2.247,2.051,2.877l-0.155,0.795c-1.257-0.328-2.491-0.625-3.789-0.879c-1.3-0.254-2.556-0.444-3.764-0.598
					l0.156-0.795c2.57,0.365,2.579,0.174,2.984-1.892l2.378-12.163c0.403-2.067,0.467-2.247-2.052-2.877l0.156-0.795
					c1.177,0.313,2.411,0.609,3.71,0.863c1.298,0.254,2.555,0.445,3.842,0.614l-0.155,0.795c-2.57-0.365-2.579-0.175-2.984,1.892
					L170.987,27.605"/>
				<path clip-path="url(#SVGID_20_)" fill-rule="evenodd" clip-rule="evenodd" fill="#334C99" d="M187.523,20.02
					c0.298-0.982,0.57-1.802,0.748-2.597l-3.989-1.181c-0.547-0.152-0.88-0.178-1.152,0.472c-0.307,0.581-0.681,1.196-0.936,1.879
					l-0.769-0.255c0.16-0.487,0.313-0.948,0.449-1.443c0.272-0.906,0.544-1.811,0.782-2.785c2.409,0.885,4.826,1.744,7.338,2.577
					c2.485,0.824,4.938,1.581,7.448,2.328c-0.391,0.923-0.714,1.811-1.038,2.7c-0.187,0.478-0.34,0.94-0.501,1.426l-0.769-0.255
					c0.204-0.7,0.271-1.417,0.373-2.066c0.169-0.684-0.113-0.862-0.643-1.067l-3.956-1.454c-0.331,0.743-0.603,1.563-0.952,2.529
					l-3.639,10.968c-0.663,1.999-0.748,2.17,1.67,3.114l-0.255,0.769c-1.205-0.485-2.392-0.936-3.648-1.353
					c-1.256-0.416-2.477-0.764-3.655-1.07l0.255-0.769c2.503,0.688,2.537,0.5,3.2-1.499L187.523,20.02"/>
				<path clip-path="url(#SVGID_20_)" fill-rule="evenodd" clip-rule="evenodd" fill="#334C99" d="M238.639,43.826
					c-4.679-4.167-10.445-3.453-14.057,0.707c-4.033,4.649-3.412,10.194,0.728,13.787c4.466,3.875,10.935,3.341,14.74-1.043
					C243.979,52.75,243.002,47.613,238.639,43.826 M226.723,58.009c-4.037-3.504-2.472-8.687,0.626-12.255
					c2.902-3.344,6.654-4.414,10.203-1.335c3.793,3.292,3.271,7.559-0.232,11.596C234.063,59.767,230.324,60.74,226.723,58.009z"/>
				<path clip-path="url(#SVGID_20_)" fill-rule="evenodd" clip-rule="evenodd" fill="#334C99" d="M248.67,58.731
					c1.611-1.357,1.773-1.458,0.207-3.527l0.62-0.522c0.999,1.312,2.001,2.586,3.079,3.866c1.078,1.281,2.181,2.506,3.286,3.693
					c1.074,1.319,2.295,2.727,2.783,3.516c-0.873,0.347-1.604,0.821-2.282,1.356c-0.433,0.366-0.837,0.599-1.27,0.964l-0.54-0.64
					c0.789-0.699,1.263-1.31,1.78-1.993c-0.524-1.253-1.37-2.341-2.239-3.373c-0.766-0.909-1.582-1.88-2.26-2.475
					c-0.403,0.234-0.831,0.523-1.43,1.027l-4.234,3.565c3.75,4.538,3.745,5.036,5.787,3.352l0.574,0.682l-4.771,4.017l-0.573-0.682
					c2.334-1.965,2.088-2.005-2.007-6.534l-4.338,3.652c-1.611,1.356-1.773,1.457-0.207,3.527l-0.619,0.522
					c-0.773-1.044-1.549-2.049-2.401-3.061c-0.852-1.012-1.711-1.948-2.555-2.826l0.619-0.521c1.772,1.896,1.899,1.753,3.511,0.397
					L248.67,58.731"/>
				<path clip-path="url(#SVGID_20_)" fill-rule="evenodd" clip-rule="evenodd" fill="#334C99" d="M55.141,245.857
					c0,1.679-0.663,2.063-2.067,2.333v1.149c1.716-0.115,3.436-0.187,5.195-0.187c1.758,0,3.475,0.071,5.193,0.187
					c9.368,0.624,16.605-5.864,16.605-15.271c0-7.573-5.949-12.056-13.209-11.979c-2.498,0.117-4.996,0.187-7.573,0.187
					c-2.58,0-5.08-0.07-7.576-0.186v1.205c3.081,0.039,3.432,0.272,3.432,3.941V245.857 M58.817,227.393
					c0-1.405,0.039-2.42,0.156-3.318c1.757-0.078,3.474-0.235,5.192-0.235c6.714,0,11.788,3.163,11.788,11.399
					c0,7.144-3.357,12.682-13.311,12.414c-1.405-0.039-2.576-0.117-3.669-0.274c-0.156-1.014-0.156-2.186-0.156-3.318V227.393z"/>
				<path clip-path="url(#SVGID_20_)" fill-rule="evenodd" clip-rule="evenodd" fill="#334C99" d="M92.066,240.352
					c-0.233,5.524,2.887,7.119,7.999,7.119c2.38,0,5.228-0.622,6.633-2.684c1.21-1.751,1.561-4.124,1.561-6.497v-12.372
					c0-2.256-0.702-2.606-3.083-2.606l-0.624-0.04v-1.175c1.561,0.117,3.121,0.175,4.686,0.175c1.563,0,3.122-0.058,4.644-0.176
					v1.176l-0.624,0.04c-2.457,0-3.198,0.35-3.198,2.606v14.356c0,2.14-0.548,3.812-1.723,5.68c-0.78,1.245-2.653,2.652-4.058,3.121
					c-1.483,0.509-3.707,0.822-5.268,0.822c-3.55,0-7.799-0.549-9.662-4.021c-0.971-1.751-0.971-3.151-0.971-5.096v-14.006
					c0-3.034,0.039-3.307-3.705-3.502v-1.175c1.755,0.117,3.588,0.175,5.491,0.175c1.902,0,3.736-0.058,5.609-0.176v1.176
					c-3.746,0.195-3.707,0.468-3.707,3.502V240.352"/>
				<path clip-path="url(#SVGID_20_)" fill-rule="evenodd" clip-rule="evenodd" fill="#334C99" d="M143.471,245.277v-19.356
					c0-2.259-0.703-2.609-3.082-2.609l-0.624-0.04v-1.176c1.56,0.118,3.121,0.196,4.685,0.196c1.563,0,3.123-0.078,4.645-0.196
					v1.176l-0.624,0.04c-2.458,0-3.198,0.35-3.198,2.609v22.551l0.117,1.447l-3.089-0.546l-18.841-22.868v19.005
					c0,2.259,0.742,2.61,3.199,2.61l0.624,0.039v1.175c-1.521-0.117-3.081-0.175-4.645-0.175c-1.563,0-3.123,0.058-4.683,0.175
					v-1.175l0.624-0.039c2.379,0,3.081-0.352,3.081-2.61v-19.589c0-2.259-0.624-2.609-2.808-2.649h-0.546v-1.175
					c1.131,0.117,2.223,0.175,3.393,0.175c1.135,0,2.23-0.058,3.361-0.176L143.471,245.277"/>
				<path clip-path="url(#SVGID_20_)" fill-rule="evenodd" clip-rule="evenodd" fill="#334C99" d="M157.438,245.857
					c0,1.679-0.663,2.063-2.067,2.333v1.149c1.716-0.115,3.436-0.187,5.195-0.187c1.757,0,3.475,0.071,5.192,0.187
					c9.368,0.624,16.604-5.864,16.604-15.271c0-7.573-5.948-12.056-13.209-11.979c-2.498,0.117-4.996,0.187-7.572,0.187
					c-2.58,0-5.08-0.07-7.576-0.186v1.205c3.081,0.039,3.433,0.272,3.433,3.941V245.857 M161.113,227.393
					c0-1.405,0.039-2.42,0.156-3.318c1.757-0.078,3.475-0.235,5.191-0.235c6.715,0,11.789,3.163,11.789,11.399
					c0,7.144-3.356,12.682-13.311,12.414c-1.405-0.039-2.577-0.117-3.67-0.274c-0.156-1.014-0.156-2.186-0.156-3.318V227.393z"/>
				<path clip-path="url(#SVGID_20_)" fill-rule="evenodd" clip-rule="evenodd" fill="#334C99" d="M194.8,243.987
					c0,1.402,0.039,2.338,0.193,3.352c1.442,0.195,3.43,0.195,5.298,0.195c2.104,0,4.246-0.078,6.267-0.663
					c0.19-0.585,0.383-1.286,0.459-1.988l0.345-2.143h1.287c-0.156,0.817-0.39,1.909-0.39,3.157v3.241
					c-1.434,0.195-4.032,0.156-6.448,0.195c-2.298-0.117-4.635-0.175-7.011-0.175c-2.368,0-4.663,0.058-7.042,0.175v-1.174
					c1.949-0.078,3.354-0.899,3.354-3.511v-17.875c0-3.035,0.039-3.309-3.705-3.504v-1.174c2.379,0.117,4.714,0.175,7.121,0.175
					c2.414,0,4.79-0.058,7.128-0.176c2.454,0.039,5.131,0,6.447,0.196c-0.429,1.292-0.585,2.539-0.624,3.783
					c0,0.817-0.117,1.478-0.117,2.294h-1.187c-0.039-1.516-0.273-2.605-0.547-3.811c-1.869-0.583-3.855-0.661-5.804-0.661
					c-1.714,0-3.545,0-4.831,0.195c-0.154,0.972-0.193,1.866-0.193,3.227v7.273c8.491,0.078,9.036,0.546,9.075-3.267h1.286v8.998
					h-1.286c0-4.405-0.271-4.171-9.075-3.859V243.987"/>
				<path clip-path="url(#SVGID_20_)" fill-rule="evenodd" clip-rule="evenodd" fill="#334C99" d="M221.748,243.987
					c0,1.402,0.039,2.338,0.195,3.352c1.442,0.195,3.428,0.195,5.298,0.195c2.104,0,4.246-0.078,6.265-0.663
					c0.192-0.585,0.384-1.286,0.461-1.988l0.345-2.143h1.287c-0.156,0.817-0.391,1.909-0.391,3.157v3.241
					c-1.433,0.195-4.031,0.156-6.447,0.195c-2.299-0.117-4.636-0.175-7.013-0.175c-2.367,0-4.662,0.058-7.041,0.175v-1.174
					c1.95-0.078,3.354-0.899,3.354-3.511v-17.875c0-3.035,0.039-3.309-3.705-3.504v-1.174c2.379,0.117,4.714,0.175,7.121,0.175
					c2.414,0,4.79-0.058,7.127-0.176c2.455,0.039,5.132,0,6.448,0.196c-0.43,1.292-0.585,2.539-0.624,3.783
					c0,0.817-0.117,1.478-0.117,2.294h-1.188c-0.039-1.516-0.271-2.605-0.545-3.811c-1.87-0.583-3.856-0.661-5.804-0.661
					c-1.714,0-3.545,0-4.831,0.195c-0.156,0.972-0.195,1.866-0.195,3.227v7.273c8.493,0.078,9.038,0.546,9.077-3.267h1.285v8.998
					h-1.285c0-4.405-0.272-4.171-9.077-3.859V243.987"/>
				<path clip-path="url(#SVGID_20_)" fill-rule="evenodd" clip-rule="evenodd" fill="#F8F400" d="M145.505,109.428h-0.082
					c-18.294,0-28.101,4.276-28.101,4.276l-14.846-24.01c0,0,7.171-1.129,9.444,8.672c0.245-3.835,2.592-5.344,4.623-4.021
					c4.083,3.438,0.683,7.508,0.683,7.508s-0.447-3.686-2.664-2.021c-1.243,0.901-0.739,2.016-0.739,2.016s0.341,1.157,1.769,2.424
					c1.176,1.09,8.532,0.49,10.57-4.253c0.753-2.733,0.186-5.312-0.963-5.94c-1.149-0.627-1.915,0.332-2.052,0.57
					c-0.138,0.238-0.068,1.157-0.068,1.157s-1.145-0.631-0.928-1.921c0.043-0.26-0.719,0.2-0.868,0.237
					c-0.833,0.208-1.895-0.445-1.895-0.445s0.608-1.074,1.437-1.298c0.148-0.04,1.037-0.009,0.873-0.215
					c-0.816-1.022-0.123-2.13-0.123-2.13s0.386,0.838,0.622,0.979c0.236,0.14,1.371,0.607,2.07-0.5
					c0.699-1.108-0.32-1.982-0.558-2.12c-0.238-0.137-1.157-0.068-1.157-0.068s0.632-1.144,1.921-0.927
					c0.26,0.044-0.198-0.719-0.235-0.868c-0.207-0.833,0.354-1.87,0.354-1.87s1.039,0.654,1.263,1.483
					c0.04,0.148,0.01,1.037,0.216,0.873c1.021-0.817,2.13-0.125,2.13-0.125s-0.838,0.387-0.978,0.623
					c-0.141,0.236-0.607,1.495,0.542,2.123c1.149,0.628,1.915-0.332,2.052-0.569c0.138-0.238,0.068-1.158,0.068-1.158
					s1.145,0.632,0.929,1.921c-0.044,0.26,0.718-0.199,0.867-0.236c0.833-0.208,1.895,0.444,1.895,0.444s-0.612,1.108-1.441,1.331
					c-0.148,0.04-1.037,0.009-0.873,0.215c0.816,1.022,0.123,2.13,0.123,2.13s-0.386-0.837-0.622-0.978
					c-0.236-0.141-1.371-0.607-2.07,0.5s-0.142,3.436,2.119,5.688c3.71,2.864,11.046,0.763,11.437-1.408
					c0.573-1.821,0.27-2.989,0.27-2.989s-0.142-1.215-1.671-1.348c-2.758-0.286-1.245,3.104-1.245,3.104s-5.01-1.74-3.278-6.789
					c1.061-2.179,3.849-2.094,6.033,1.068c-3.095-9.573,3.123-12.332,3.123-12.332h0.003c0,0,6.218,2.759,3.124,12.332
					c2.183-3.162,4.972-3.247,6.032-1.068c1.731,5.049-3.278,6.789-3.278,6.789s1.514-3.39-1.244-3.104
					c-1.528,0.133-1.671,1.348-1.671,1.348s-0.303,1.168,0.27,2.989c0.392,2.171,7.743,4.272,11.454,1.408
					c2.262-2.252,2.802-4.581,2.103-5.688s-1.835-0.641-2.07-0.5c-0.235,0.141-0.622,0.978-0.622,0.978s-0.693-1.108,0.122-2.13
					c0.165-0.206-0.725-0.175-0.873-0.215c-0.829-0.223-1.439-1.331-1.439-1.331s1.061-0.652,1.894-0.444
					c0.149,0.037,0.911,0.496,0.868,0.236c-0.216-1.289,0.928-1.921,0.928-1.921s-0.069,0.92,0.068,1.158
					c0.137,0.237,0.903,1.197,2.052,0.569c1.149-0.627,0.684-1.887,0.543-2.123c-0.141-0.236-0.978-0.623-0.978-0.623
					s1.108-0.692,2.13,0.125c0.205,0.164,0.176-0.725,0.216-0.873c0.224-0.829,1.263-1.483,1.263-1.483s0.562,1.037,0.354,1.87
					c-0.037,0.149-0.496,0.912-0.236,0.868c1.289-0.217,1.922,0.927,1.922,0.927s-0.92-0.069-1.158,0.068
					c-0.236,0.138-1.257,1.012-0.558,2.12c0.699,1.107,1.835,0.64,2.07,0.5c0.235-0.141,0.622-0.979,0.622-0.979
					s0.693,1.108-0.122,2.13c-0.165,0.206,0.725,0.175,0.873,0.215c0.829,0.224,1.436,1.298,1.436,1.298s-1.062,0.653-1.895,0.445
					c-0.149-0.037-0.911-0.497-0.867-0.237c0.216,1.29-0.929,1.921-0.929,1.921s0.069-0.919-0.068-1.157
					c-0.137-0.238-0.903-1.197-2.052-0.57c-1.149,0.628-1.715,3.207-0.962,5.94c2.037,4.743,9.393,5.343,10.568,4.253
					c1.429-1.267,1.771-2.424,1.771-2.424s0.503-1.115-0.739-2.016c-2.218-1.665-2.665,2.021-2.665,2.021s-3.399-4.071,0.685-7.508
					c2.029-1.323,4.377,0.187,4.621,4.021c2.273-9.801,9.444-8.672,9.444-8.672l-14.846,24.01
					C173.643,113.704,163.799,109.428,145.505,109.428"/>
				<path clip-path="url(#SVGID_20_)" fill-rule="evenodd" clip-rule="evenodd" fill="#E4483C" d="M129.306,105.965
					c-0.187-1.062,1.187-2.191,3.069-2.523c1.882-0.331,3.559,0.261,3.746,1.323c0.188,1.061-1.187,2.191-3.069,2.522
					C131.17,107.618,129.493,107.026,129.306,105.965"/>
				<path clip-path="url(#SVGID_20_)" fill-rule="evenodd" clip-rule="evenodd" fill="#E4483C" d="M132.667,105.224"/>
				<path clip-path="url(#SVGID_20_)" fill="none" stroke="#334C99" stroke-width="0.999" d="M132.667,105.224"/>
				<path clip-path="url(#SVGID_20_)" fill-rule="evenodd" clip-rule="evenodd" fill="#E4483C" d="M161.708,105.999
					c0.188-1.062-1.187-2.191-3.068-2.523c-1.882-0.331-3.56,0.261-3.746,1.322c-0.188,1.062,1.187,2.191,3.068,2.523
					C159.844,107.652,161.521,107.06,161.708,105.999"/>
				<path clip-path="url(#SVGID_20_)" fill-rule="evenodd" clip-rule="evenodd" fill="#E4483C" d="M158.253,105.258"/>
				<path clip-path="url(#SVGID_20_)" fill="none" stroke="#334C99" stroke-width="0.999" d="M158.253,105.258"/>
				<polyline clip-path="url(#SVGID_20_)" fill-rule="evenodd" clip-rule="evenodd" fill="#334C99" points="166.743,106.935 
					170.958,106.225 173.841,109.331 169.626,110.04 166.743,106.935 				"/>
				<polyline clip-path="url(#SVGID_20_)" fill-rule="evenodd" clip-rule="evenodd" fill="#334C99" points="124.312,107.024 
					120.097,106.314 117.214,109.419 121.428,110.129 124.312,107.024 				"/>
				
					<rect x="141.413" y="102.609" clip-path="url(#SVGID_20_)" fill-rule="evenodd" clip-rule="evenodd" fill="#334C99" width="8.163" height="3.993"/>
				<path clip-path="url(#SVGID_20_)" fill-rule="evenodd" clip-rule="evenodd" fill="#334C99" d="M145.448,104.465"/>
				<path clip-path="url(#SVGID_20_)" fill="none" stroke="#334C99" stroke-width="0.999" d="M145.448,104.465"/>
				<path clip-path="url(#SVGID_20_)" fill-rule="evenodd" clip-rule="evenodd" fill="#F8F400" d="M115.505,104.373
					c0.503-0.323,0.65-0.992,0.327-1.495c-0.323-0.504-0.992-0.65-1.495-0.328l-3.224,2.067c-0.503,0.323-0.65,0.992-0.327,1.495
					c0.322,0.503,0.992,0.65,1.495,0.327L115.505,104.373"/>
				<path clip-path="url(#SVGID_20_)" fill-rule="evenodd" clip-rule="evenodd" fill="#F8F400" d="M175.464,104.491
					c-0.505-0.322-0.65-0.992-0.327-1.495c0.321-0.503,0.991-0.65,1.495-0.327l3.224,2.067c0.503,0.322,0.648,0.992,0.327,1.495
					c-0.323,0.503-0.992,0.649-1.495,0.327L175.464,104.491"/>
				<path clip-path="url(#SVGID_20_)" fill-rule="evenodd" clip-rule="evenodd" fill="#F8F400" d="M148.581,98.291
					c0.599,0,1.082-0.484,1.083-1.082c0-0.598-0.484-1.082-1.082-1.082l-6.161-0.002c-0.597,0-1.082,0.484-1.082,1.082
					c-0.001,0.598,0.484,1.082,1.081,1.083L148.581,98.291"/>
				<path clip-path="url(#SVGID_20_)" fill-rule="evenodd" clip-rule="evenodd" fill="#334C99" d="M211.916,29.709
					c1.536-1.025,2.967-1.578,0.017-2.93l0.361-0.724c0.834,0.507,1.663,0.966,2.558,1.413c0.895,0.446,1.759,0.832,2.666,1.194
					l-0.362,0.725c-1.499-0.869-2.407-0.08-4.335,1.123c0,0-5.197,3.026-6.3,3.909c-0.604,0.482-0.952,1.06-1.241,1.638
					l-1.612,3.229c-0.938,1.88-1.047,2.037,1.211,3.315l-0.36,0.724c-1.124-0.651-2.24-1.255-3.423-1.845
					c-1.183-0.591-2.336-1.121-3.459-1.591l0.361-0.725c2.379,1.038,2.439,0.857,3.377-1.022l1.77-3.543
					c0.096-0.192,0.241-0.481,0.252-0.807l-0.372-6.507l-0.241-3.347c-0.233-1.631,0.079-1.47-1.153-2.327l-0.446-0.254l0.361-0.724
					c1.026,0.603,2.071,1.17,3.158,1.713c1.087,0.543,2.168,1.037,3.268,1.495l-0.362,0.725c-2.295-1.206-2.321-0.61-2.393-0.043
					l0.056,1.099l0.368,7.845l4.448-2.685L211.916,29.709"/>
			</g>
		</g>
	</g>
</g>
<g id="Layer_1_copy_2" display="none">
	<line display="inline" fill="#FFFFFF" x1="-151.598" y1="-192" x2="-151.598" y2="-192"/>
	<g display="inline">
		<defs>
			<rect id="SVGID_21_" x="-216.598" y="-257" width="725" height="972"/>
		</defs>
		<clipPath id="SVGID_22_">
			<use xlink:href="#SVGID_21_"  overflow="visible"/>
		</clipPath>
		<g clip-path="url(#SVGID_22_)">
			<defs>
				<rect id="SVGID_23_" x="-151.598" y="-192.04" width="594.96" height="842.04"/>
			</defs>
			<clipPath id="SVGID_24_">
				<use xlink:href="#SVGID_23_"  overflow="visible"/>
			</clipPath>
			
				<rect x="-150.688" y="-20.44" clip-path="url(#SVGID_24_)" fill-rule="evenodd" clip-rule="evenodd" fill="none" width="594.37" height="398.95"/>
		</g>
	</g>
	<g display="inline">
		<defs>
			<rect id="SVGID_25_" x="-150.688" y="-20.44" width="594.37" height="398.95"/>
		</defs>
		<clipPath id="SVGID_26_">
			<use xlink:href="#SVGID_25_"  overflow="visible"/>
		</clipPath>
		<g clip-path="url(#SVGID_26_)">
			<defs>
				<rect id="SVGID_27_" x="-216.598" y="-257" width="725" height="972"/>
			</defs>
			<clipPath id="SVGID_28_">
				<use xlink:href="#SVGID_27_"  overflow="visible"/>
			</clipPath>
			<g clip-path="url(#SVGID_28_)">
				<defs>
					<rect id="SVGID_29_" x="-151.598" y="-192.04" width="594.96" height="842.04"/>
				</defs>
				<clipPath id="SVGID_30_">
					<use xlink:href="#SVGID_29_"  overflow="visible"/>
				</clipPath>
				<path clip-path="url(#SVGID_30_)" fill-rule="evenodd" clip-rule="evenodd" fill="#334C99" d="M145.45,151.216l46.966-33.744
					l0.01,15.395c-0.276,11.885-4.275,29.233-14.422,41.69L145.45,151.216"/>
				<path clip-path="url(#SVGID_30_)" fill-rule="evenodd" clip-rule="evenodd" fill="#334C99" d="M145.432,151.21l-47.063-33.838
					l0.009,15.338c0.292,11.979,4.291,29.327,14.437,41.784L145.432,151.21"/>
				<polyline clip-path="url(#SVGID_30_)" fill-rule="evenodd" clip-rule="evenodd" fill="#D8D8D8" points="145.432,151.21 
					98.369,117.481 98.557,117.184 192.182,117.075 192.383,117.476 145.432,151.21 				"/>
				<polyline clip-path="url(#SVGID_30_)" fill-rule="evenodd" clip-rule="evenodd" fill="#E4483C" points="192.43,117.491 
					192.43,75.372 98.369,75.356 98.369,117.481 192.43,117.491 				"/>
				<path clip-path="url(#SVGID_30_)" fill="#D8D8D8" d="M18.479,94.491c4.655-2.799,10.696-1.291,13.493,3.368
					c2.796,4.658,1.289,10.703-3.367,13.501c-4.655,2.799-10.696,1.291-13.492-3.367C12.316,103.334,13.823,97.289,18.479,94.491"/>
				<path clip-path="url(#SVGID_30_)" fill="#D8D8D8" d="M23.51,102.903"/>
				<path clip-path="url(#SVGID_30_)" fill="#D8D8D8" d="M11.858,119.132c4.297-2.583,9.873-1.191,12.455,3.109
					c2.581,4.3,1.19,9.88-3.108,12.463c-4.297,2.583-9.873,1.191-12.455-3.109C6.169,127.295,7.56,121.715,11.858,119.132"/>
				<path clip-path="url(#SVGID_30_)" fill="#D8D8D8" d="M16.51,126.903"/>
				<path clip-path="url(#SVGID_30_)" fill="#D8D8D8" d="M10.308,143.657c3.94-2.368,9.051-1.092,11.417,2.85
					c2.367,3.942,1.091,9.057-2.848,11.425c-3.939,2.368-9.051,1.092-11.417-2.85C5.093,151.14,6.369,146.025,10.308,143.657"/>
				<path clip-path="url(#SVGID_30_)" fill="#D8D8D8" d="M14.582,150.787"/>
				<path clip-path="url(#SVGID_30_)" fill="#D8D8D8" d="M12.615,165.664c3.581-2.152,8.228-0.992,10.379,2.591
					c2.151,3.583,0.992,8.233-2.589,10.386c-3.581,2.153-8.228,0.993-10.379-2.591C7.875,172.467,9.034,167.817,12.615,165.664"/>
				<path clip-path="url(#SVGID_30_)" fill="#D8D8D8" d="M16.51,172.153"/>
				<path clip-path="url(#SVGID_30_)" fill="#D8D8D8" d="M17.994,186.306c3.223-1.938,7.405-0.894,9.341,2.331
					c1.936,3.225,0.893,7.41-2.33,9.347c-3.223,1.938-7.405,0.894-9.341-2.331C13.728,192.428,14.771,188.243,17.994,186.306"/>
				<path clip-path="url(#SVGID_30_)" fill="#D8D8D8" d="M21.51,192.153"/>
				<path clip-path="url(#SVGID_30_)" fill-rule="evenodd" clip-rule="evenodd" fill="#D8D8D8" d="M177.995,174.494l-32.563-23.284
					l-32.617,23.284c8.359,10.889,19.648,19.643,32.705,24.502C158.642,194.113,169.753,185.46,177.995,174.494"/>
				<path clip-path="url(#SVGID_30_)" fill="#D8D8D8" d="M273.527,93.688c7.629,17.057,11.938,35.923,12.103,55.777l15.08-0.011
					l-0.012,1.668l-28.628-0.014c-0.125-18.72-3.987-36.029-11.088-51.789L273.527,93.688z"/>
				<path clip-path="url(#SVGID_30_)" fill="none" stroke="#D8D8D8" stroke-miterlimit="3.864" d="M273.527,93.688
					c7.629,17.057,11.938,35.923,12.103,55.777l15.08-0.011l-0.012,1.668l-28.628-0.014c-0.125-18.72-3.987-36.029-11.088-51.789
					L273.527,93.688z"/>
				<path clip-path="url(#SVGID_30_)" fill-rule="evenodd" clip-rule="evenodd" fill="#334C99" d="M45.92,68.682
					c2.747,2.679,5.013,1.81,7.374-0.824c1.099-1.226,2.093-2.982,1.676-4.661c-0.346-1.434-1.41-2.714-2.636-3.814l-6.393-5.731
					c-1.166-1.045-1.672-0.846-2.771,0.381l-0.309,0.303l-0.603-0.54c0.781-0.75,1.543-1.519,2.263-2.323
					c0.721-0.804,1.402-1.644,2.045-2.482l0.603,0.54l-0.268,0.34c-1.136,1.267-1.297,1.811-0.131,2.856l7.418,6.65
					c1.106,0.992,1.718,2.048,2.142,3.516c0.283,0.979,0.142,2.593-0.266,3.533c-0.423,0.998-1.29,2.288-2.01,3.093
					c-1.641,1.829-3.886,3.768-6.541,3.129c-1.355-0.308-2.079-0.957-3.084-1.858l-7.238-6.488c-1.568-1.406-1.69-1.552-3.521,0.288
					l-0.603-0.541c0.871-0.851,1.758-1.76,2.641-2.745c0.883-0.985,1.69-1.966,2.495-2.985l0.603,0.541
					c-1.629,2.02-1.471,2.126,0.098,3.532L45.92,68.682"/>
				<path clip-path="url(#SVGID_30_)" fill-rule="evenodd" clip-rule="evenodd" fill="#334C99" d="M74.771,46.919l-8.118-10.685
					c-0.948-1.247-1.481-1.146-2.793-0.15l-0.36,0.24l-0.49-0.645c0.909-0.589,1.801-1.199,2.661-1.853
					c0.86-0.653,1.687-1.349,2.477-2.051l0.49,0.645l-0.328,0.283c-1.354,1.029-1.616,1.533-0.668,2.78l9.457,12.448l0.669,0.746
					l-1.927,0.989l-19.972-4.73l7.97,10.491c0.948,1.247,1.503,1.13,2.858,0.101l0.36-0.24l0.49,0.645
					c-0.887,0.573-1.78,1.183-2.64,1.837c-0.86,0.653-1.687,1.349-2.498,2.067l-0.49-0.645l0.327-0.283
					c1.312-0.996,1.552-1.483,0.605-2.73l-8.216-10.815c-0.948-1.247-1.439-1.179-2.659-0.286l-0.301,0.229l-0.49-0.645
					c0.673-0.409,1.307-0.823,1.952-1.313c0.624-0.474,1.193-0.974,1.767-1.512L74.771,46.919"/>
				<path clip-path="url(#SVGID_30_)" fill-rule="evenodd" clip-rule="evenodd" fill="#334C99" d="M85.551,40.071
					c1.019,1.843,1.087,2.022,3.421,0.885l0.392,0.709c-1.174,0.556-2.31,1.123-3.468,1.763c-1.158,0.641-2.242,1.302-3.266,1.961
					l-0.392-0.709c2.203-1.372,2.088-1.525,1.068-3.368l-5.997-10.845c-1.019-1.843-1.087-2.021-3.421-0.885l-0.392-0.709
					c1.103-0.517,2.239-1.084,3.397-1.724c1.158-0.64,2.242-1.301,3.337-2l0.392,0.709c-2.203,1.373-2.088,1.525-1.068,3.368
					L85.551,40.071"/>
				<path clip-path="url(#SVGID_30_)" fill-rule="evenodd" clip-rule="evenodd" fill="#334C99" d="M87.545,24.351
					c-1.089-1.137-0.928-1.317-2.388-0.971l-0.487,0.164l-0.298-0.753c1.134-0.362,2.259-0.749,3.388-1.196
					c1.13-0.447,2.215-0.934,3.29-1.447l0.298,0.753c-2.43,0.904-2.091,1.321-1.716,1.754l2.057,2.409l7.841,8.366l0.049-9.486
					l-0.122-3.465c-0.055-1.604,0.287-3.017-2.686-1.724l-0.299-0.753c0.934-0.283,1.833-0.58,2.761-0.948
					c0.929-0.367,1.788-0.765,2.662-1.199l0.298,0.754c-1.646,0.535-1.329,1.484-1.343,2.767l-0.109,11.978l0.055,5.35l-1.255,0.497
					l-1.198-1.414l-1.783-1.936L87.545,24.351"/>
				<path clip-path="url(#SVGID_30_)" fill-rule="evenodd" clip-rule="evenodd" fill="#334C99" d="M113.675,28.533
					c0.225,0.946,0.401,1.57,0.668,2.228c1.004-0.1,2.343-0.418,3.604-0.717c1.419-0.337,2.851-0.733,4.124-1.451
					c0.037-0.426,0.056-0.93-0.003-1.415l-0.107-1.501l0.867-0.206c0.026,0.577,0.043,1.35,0.242,2.19l0.518,2.181
					c-0.94,0.362-2.707,0.754-4.329,1.167c-1.569,0.289-3.158,0.611-4.76,0.991c-1.602,0.381-3.14,0.802-4.724,1.261l-0.187-0.788
					c1.301-0.364,2.116-1.141,1.698-2.901l-2.864-12.057c-0.486-2.049-0.504-2.24-3.057-1.772l-0.187-0.788
					c1.621-0.302,3.21-0.624,4.838-1.011c1.629-0.386,3.219-0.82,4.777-1.272c1.661-0.367,3.467-0.824,4.392-0.905
					c-0.084,0.936,0.011,1.801,0.184,2.648c0.132,0.552,0.159,1.017,0.29,1.569l-0.815,0.193c-0.269-1.018-0.602-1.716-0.979-2.487
					c-1.354-0.094-2.706,0.171-4.02,0.483c-1.156,0.275-2.391,0.568-3.226,0.905c0.051,0.682,0.168,1.292,0.386,2.212l1.167,4.912
					c5.739-1.308,6.182-1.08,5.597-3.66l0.866-0.206l1.442,6.068l-0.867,0.206c-0.705-2.969-0.852-2.767-6.739-1.147L113.675,28.533
					"/>
				<path clip-path="url(#SVGID_30_)" fill-rule="evenodd" clip-rule="evenodd" fill="#334C99" d="M129.563,13.394
					c-0.151-2.101-0.138-2.291-2.733-2.239l-0.058-0.808c1.514-0.028,3.08-0.087,4.668-0.201c1.589-0.115,3.147-0.281,4.704-0.475
					c3.702-0.456,5.571,1.44,5.734,3.702c0.212,2.935-2.301,4.876-4.876,5.576l6.687,7.53c0.468,0.481,1.045,0.602,1.589,0.644
					l0.059,0.808c-0.599-0.038-1.222-0.048-1.841-0.003c-0.62,0.044-1.208,0.141-1.822,0.267c-0.471-0.535-0.802-0.998-1.212-1.429
					l-7.004-7.779l0.079-0.411c0.839-0.007,1.671-0.094,2.47-0.287c1.861-0.459,3.373-2.029,3.229-4.022
					c-0.21-2.908-2.426-3.615-4.419-3.471c-0.943,0.068-1.956,0.276-2.668,0.544c-0.128,0.469-0.088,1.035-0.027,1.87l0.89,12.36
					c0.152,2.101,0.138,2.291,2.733,2.24l0.059,0.808c-1.299,0.012-2.569,0.049-3.888,0.145c-1.32,0.095-2.581,0.24-3.788,0.408
					l-0.058-0.808c2.576-0.321,2.535-0.508,2.384-2.608L129.563,13.394"/>
				<path clip-path="url(#SVGID_30_)" fill-rule="evenodd" clip-rule="evenodd" fill="#334C99" d="M159.941,14.619
					c0.077-1.023,0.13-1.723-0.106-2.175c-0.641-1.186-2.52-1.762-3.784-1.858c-2.208-0.168-4.209,1.224-4.386,3.539
					c-0.443,5.842,10.64,1.811,10.126,8.568c-0.35,4.604-4.637,6.498-8.647,6.194c-1.616-0.123-3.093-0.641-4.526-1.373
					c0.186-1.015,0.337-2.303,0.444-3.351l0.057-0.754l0.916,0.069l-0.097,1.266c-0.045,0.592-0.03,1.108,0.271,1.428
					c1.005,1.025,2.706,1.452,4.079,1.556c2.423,0.184,4.9-1.063,5.104-3.728c0.495-6.515-10.629-1.241-10.033-9.076
					c0.28-3.688,3.581-5.793,7.054-5.529c1.831,0.139,3.482,0.86,5.129,1.636c-0.112,0.424-0.254,0.847-0.313,1.275
					c-0.115,0.804-0.282,1.577-0.37,2.382L159.941,14.619"/>
				<path clip-path="url(#SVGID_30_)" fill-rule="evenodd" clip-rule="evenodd" fill="#334C99" d="M170.987,27.605
					c-0.404,2.067-0.467,2.247,2.051,2.877l-0.155,0.795c-1.257-0.328-2.491-0.625-3.789-0.879c-1.3-0.254-2.556-0.444-3.764-0.598
					l0.156-0.795c2.57,0.365,2.579,0.174,2.984-1.892l2.378-12.163c0.403-2.067,0.467-2.247-2.052-2.877l0.156-0.795
					c1.177,0.313,2.411,0.609,3.71,0.863c1.298,0.254,2.555,0.445,3.842,0.614l-0.155,0.795c-2.57-0.365-2.579-0.175-2.984,1.892
					L170.987,27.605"/>
				<path clip-path="url(#SVGID_30_)" fill-rule="evenodd" clip-rule="evenodd" fill="#334C99" d="M187.523,20.02
					c0.298-0.982,0.57-1.802,0.748-2.597l-3.989-1.181c-0.547-0.152-0.88-0.178-1.152,0.472c-0.307,0.581-0.681,1.196-0.936,1.879
					l-0.769-0.255c0.16-0.487,0.313-0.948,0.449-1.443c0.272-0.906,0.544-1.811,0.782-2.785c2.409,0.885,4.826,1.744,7.338,2.577
					c2.485,0.824,4.938,1.581,7.448,2.328c-0.391,0.923-0.714,1.811-1.038,2.7c-0.187,0.478-0.34,0.94-0.501,1.426l-0.769-0.255
					c0.204-0.7,0.271-1.417,0.373-2.066c0.169-0.684-0.113-0.862-0.643-1.067l-3.956-1.454c-0.331,0.743-0.603,1.563-0.952,2.529
					l-3.639,10.968c-0.663,1.999-0.748,2.17,1.67,3.114l-0.255,0.769c-1.205-0.485-2.392-0.936-3.648-1.353
					c-1.256-0.416-2.477-0.764-3.655-1.07l0.255-0.769c2.503,0.688,2.537,0.5,3.2-1.499L187.523,20.02"/>
				<path clip-path="url(#SVGID_30_)" fill-rule="evenodd" clip-rule="evenodd" fill="#334C99" d="M238.639,43.826
					c-4.679-4.167-10.445-3.453-14.057,0.707c-4.033,4.649-3.412,10.194,0.728,13.787c4.466,3.875,10.935,3.341,14.74-1.043
					C243.979,52.75,243.002,47.613,238.639,43.826 M226.723,58.009c-4.037-3.504-2.472-8.687,0.626-12.255
					c2.902-3.344,6.654-4.414,10.203-1.335c3.793,3.292,3.271,7.559-0.232,11.596C234.063,59.767,230.324,60.74,226.723,58.009z"/>
				<path clip-path="url(#SVGID_30_)" fill-rule="evenodd" clip-rule="evenodd" fill="#334C99" d="M248.67,58.731
					c1.611-1.357,1.773-1.458,0.207-3.527l0.62-0.522c0.999,1.312,2.001,2.586,3.079,3.866c1.078,1.281,2.181,2.506,3.286,3.693
					c1.074,1.319,2.295,2.727,2.783,3.516c-0.873,0.347-1.604,0.821-2.282,1.356c-0.433,0.366-0.837,0.599-1.27,0.964l-0.54-0.64
					c0.789-0.699,1.263-1.31,1.78-1.993c-0.524-1.253-1.37-2.341-2.239-3.373c-0.766-0.909-1.582-1.88-2.26-2.475
					c-0.403,0.234-0.831,0.523-1.43,1.027l-4.234,3.565c3.75,4.538,3.745,5.036,5.787,3.352l0.574,0.682l-4.771,4.017l-0.573-0.682
					c2.334-1.965,2.088-2.005-2.007-6.534l-4.338,3.652c-1.611,1.356-1.773,1.457-0.207,3.527l-0.619,0.522
					c-0.773-1.044-1.549-2.049-2.401-3.061c-0.852-1.012-1.711-1.948-2.555-2.826l0.619-0.521c1.772,1.896,1.899,1.753,3.511,0.397
					L248.67,58.731"/>
				<path clip-path="url(#SVGID_30_)" fill-rule="evenodd" clip-rule="evenodd" fill="#334C99" d="M55.141,245.857
					c0,1.679-0.663,2.063-2.067,2.333v1.149c1.716-0.115,3.436-0.187,5.195-0.187c1.758,0,3.475,0.071,5.193,0.187
					c9.368,0.624,16.605-5.864,16.605-15.271c0-7.573-5.949-12.056-13.209-11.979c-2.498,0.117-4.996,0.187-7.573,0.187
					c-2.58,0-5.08-0.07-7.576-0.186v1.205c3.081,0.039,3.432,0.272,3.432,3.941V245.857 M58.817,227.393
					c0-1.405,0.039-2.42,0.156-3.318c1.757-0.078,3.474-0.235,5.192-0.235c6.714,0,11.788,3.163,11.788,11.399
					c0,7.144-3.357,12.682-13.311,12.414c-1.405-0.039-2.576-0.117-3.669-0.274c-0.156-1.014-0.156-2.186-0.156-3.318V227.393z"/>
				<path clip-path="url(#SVGID_30_)" fill-rule="evenodd" clip-rule="evenodd" fill="#334C99" d="M92.066,240.352
					c-0.233,5.524,2.887,7.119,7.999,7.119c2.38,0,5.228-0.622,6.633-2.684c1.21-1.751,1.561-4.124,1.561-6.497v-12.372
					c0-2.256-0.702-2.606-3.083-2.606l-0.624-0.04v-1.175c1.561,0.117,3.121,0.175,4.686,0.175c1.563,0,3.122-0.058,4.644-0.176
					v1.176l-0.624,0.04c-2.457,0-3.198,0.35-3.198,2.606v14.356c0,2.14-0.548,3.812-1.723,5.68c-0.78,1.245-2.653,2.652-4.058,3.121
					c-1.483,0.509-3.707,0.822-5.268,0.822c-3.55,0-7.799-0.549-9.662-4.021c-0.971-1.751-0.971-3.151-0.971-5.096v-14.006
					c0-3.034,0.039-3.307-3.705-3.502v-1.175c1.755,0.117,3.588,0.175,5.491,0.175c1.902,0,3.736-0.058,5.609-0.176v1.176
					c-3.746,0.195-3.707,0.468-3.707,3.502V240.352"/>
				<path clip-path="url(#SVGID_30_)" fill-rule="evenodd" clip-rule="evenodd" fill="#334C99" d="M143.471,245.277v-19.356
					c0-2.259-0.703-2.609-3.082-2.609l-0.624-0.04v-1.176c1.56,0.118,3.121,0.196,4.685,0.196c1.563,0,3.123-0.078,4.645-0.196
					v1.176l-0.624,0.04c-2.458,0-3.198,0.35-3.198,2.609v22.551l0.117,1.447l-3.089-0.546l-18.841-22.868v19.005
					c0,2.259,0.742,2.61,3.199,2.61l0.624,0.039v1.175c-1.521-0.117-3.081-0.175-4.645-0.175c-1.563,0-3.123,0.058-4.683,0.175
					v-1.175l0.624-0.039c2.379,0,3.081-0.352,3.081-2.61v-19.589c0-2.259-0.624-2.609-2.808-2.649h-0.546v-1.175
					c1.131,0.117,2.223,0.175,3.393,0.175c1.135,0,2.23-0.058,3.361-0.176L143.471,245.277"/>
				<path clip-path="url(#SVGID_30_)" fill-rule="evenodd" clip-rule="evenodd" fill="#334C99" d="M157.438,245.857
					c0,1.679-0.663,2.063-2.067,2.333v1.149c1.716-0.115,3.436-0.187,5.195-0.187c1.757,0,3.475,0.071,5.192,0.187
					c9.368,0.624,16.604-5.864,16.604-15.271c0-7.573-5.948-12.056-13.209-11.979c-2.498,0.117-4.996,0.187-7.572,0.187
					c-2.58,0-5.08-0.07-7.576-0.186v1.205c3.081,0.039,3.433,0.272,3.433,3.941V245.857 M161.113,227.393
					c0-1.405,0.039-2.42,0.156-3.318c1.757-0.078,3.475-0.235,5.191-0.235c6.715,0,11.789,3.163,11.789,11.399
					c0,7.144-3.356,12.682-13.311,12.414c-1.405-0.039-2.577-0.117-3.67-0.274c-0.156-1.014-0.156-2.186-0.156-3.318V227.393z"/>
				<path clip-path="url(#SVGID_30_)" fill-rule="evenodd" clip-rule="evenodd" fill="#334C99" d="M194.8,243.987
					c0,1.402,0.039,2.338,0.193,3.352c1.442,0.195,3.43,0.195,5.298,0.195c2.104,0,4.246-0.078,6.267-0.663
					c0.19-0.585,0.383-1.286,0.459-1.988l0.345-2.143h1.287c-0.156,0.817-0.39,1.909-0.39,3.157v3.241
					c-1.434,0.195-4.032,0.156-6.448,0.195c-2.298-0.117-4.635-0.175-7.011-0.175c-2.368,0-4.663,0.058-7.042,0.175v-1.174
					c1.949-0.078,3.354-0.899,3.354-3.511v-17.875c0-3.035,0.039-3.309-3.705-3.504v-1.174c2.379,0.117,4.714,0.175,7.121,0.175
					c2.414,0,4.79-0.058,7.128-0.176c2.454,0.039,5.131,0,6.447,0.196c-0.429,1.292-0.585,2.539-0.624,3.783
					c0,0.817-0.117,1.478-0.117,2.294h-1.187c-0.039-1.516-0.273-2.605-0.547-3.811c-1.869-0.583-3.855-0.661-5.804-0.661
					c-1.714,0-3.545,0-4.831,0.195c-0.154,0.972-0.193,1.866-0.193,3.227v7.273c8.491,0.078,9.036,0.546,9.075-3.267h1.286v8.998
					h-1.286c0-4.405-0.271-4.171-9.075-3.859V243.987"/>
				<path clip-path="url(#SVGID_30_)" fill-rule="evenodd" clip-rule="evenodd" fill="#334C99" d="M221.748,243.987
					c0,1.402,0.039,2.338,0.195,3.352c1.442,0.195,3.428,0.195,5.298,0.195c2.104,0,4.246-0.078,6.265-0.663
					c0.192-0.585,0.384-1.286,0.461-1.988l0.345-2.143h1.287c-0.156,0.817-0.391,1.909-0.391,3.157v3.241
					c-1.433,0.195-4.031,0.156-6.447,0.195c-2.299-0.117-4.636-0.175-7.013-0.175c-2.367,0-4.662,0.058-7.041,0.175v-1.174
					c1.95-0.078,3.354-0.899,3.354-3.511v-17.875c0-3.035,0.039-3.309-3.705-3.504v-1.174c2.379,0.117,4.714,0.175,7.121,0.175
					c2.414,0,4.79-0.058,7.127-0.176c2.455,0.039,5.132,0,6.448,0.196c-0.43,1.292-0.585,2.539-0.624,3.783
					c0,0.817-0.117,1.478-0.117,2.294h-1.188c-0.039-1.516-0.271-2.605-0.545-3.811c-1.87-0.583-3.856-0.661-5.804-0.661
					c-1.714,0-3.545,0-4.831,0.195c-0.156,0.972-0.195,1.866-0.195,3.227v7.273c8.493,0.078,9.038,0.546,9.077-3.267h1.285v8.998
					h-1.285c0-4.405-0.272-4.171-9.077-3.859V243.987"/>
				<path clip-path="url(#SVGID_30_)" fill-rule="evenodd" clip-rule="evenodd" fill="#F8F400" d="M145.505,109.428h-0.082
					c-18.294,0-28.101,4.276-28.101,4.276l-14.846-24.01c0,0,7.171-1.129,9.444,8.672c0.245-3.835,2.592-5.344,4.623-4.021
					c4.083,3.438,0.683,7.508,0.683,7.508s-0.447-3.686-2.664-2.021c-1.243,0.901-0.739,2.016-0.739,2.016s0.341,1.157,1.769,2.424
					c1.176,1.09,8.532,0.49,10.57-4.253c0.753-2.733,0.186-5.312-0.963-5.94c-1.149-0.627-1.915,0.332-2.052,0.57
					c-0.138,0.238-0.068,1.157-0.068,1.157s-1.145-0.631-0.928-1.921c0.043-0.26-0.719,0.2-0.868,0.237
					c-0.833,0.208-1.895-0.445-1.895-0.445s0.608-1.074,1.437-1.298c0.148-0.04,1.037-0.009,0.873-0.215
					c-0.816-1.022-0.123-2.13-0.123-2.13s0.386,0.838,0.622,0.979c0.236,0.14,1.371,0.607,2.07-0.5
					c0.699-1.108-0.32-1.982-0.558-2.12c-0.238-0.137-1.157-0.068-1.157-0.068s0.632-1.144,1.921-0.927
					c0.26,0.044-0.198-0.719-0.235-0.868c-0.207-0.833,0.354-1.87,0.354-1.87s1.039,0.654,1.263,1.483
					c0.04,0.148,0.01,1.037,0.216,0.873c1.021-0.817,2.13-0.125,2.13-0.125s-0.838,0.387-0.978,0.623
					c-0.141,0.236-0.607,1.495,0.542,2.123c1.149,0.628,1.915-0.332,2.052-0.569c0.138-0.238,0.068-1.158,0.068-1.158
					s1.145,0.632,0.929,1.921c-0.044,0.26,0.718-0.199,0.867-0.236c0.833-0.208,1.895,0.444,1.895,0.444s-0.612,1.108-1.441,1.331
					c-0.148,0.04-1.037,0.009-0.873,0.215c0.816,1.022,0.123,2.13,0.123,2.13s-0.386-0.837-0.622-0.978
					c-0.236-0.141-1.371-0.607-2.07,0.5s-0.142,3.436,2.119,5.688c3.71,2.864,11.046,0.763,11.437-1.408
					c0.573-1.821,0.27-2.989,0.27-2.989s-0.142-1.215-1.671-1.348c-2.758-0.286-1.245,3.104-1.245,3.104s-5.01-1.74-3.278-6.789
					c1.061-2.179,3.849-2.094,6.033,1.068c-3.095-9.573,3.123-12.332,3.123-12.332h0.003c0,0,6.218,2.759,3.124,12.332
					c2.183-3.162,4.972-3.247,6.032-1.068c1.731,5.049-3.278,6.789-3.278,6.789s1.514-3.39-1.244-3.104
					c-1.528,0.133-1.671,1.348-1.671,1.348s-0.303,1.168,0.27,2.989c0.392,2.171,7.743,4.272,11.454,1.408
					c2.262-2.252,2.802-4.581,2.103-5.688s-1.835-0.641-2.07-0.5c-0.235,0.141-0.622,0.978-0.622,0.978s-0.693-1.108,0.122-2.13
					c0.165-0.206-0.725-0.175-0.873-0.215c-0.829-0.223-1.439-1.331-1.439-1.331s1.061-0.652,1.894-0.444
					c0.149,0.037,0.911,0.496,0.868,0.236c-0.216-1.289,0.928-1.921,0.928-1.921s-0.069,0.92,0.068,1.158
					c0.137,0.237,0.903,1.197,2.052,0.569c1.149-0.627,0.684-1.887,0.543-2.123c-0.141-0.236-0.978-0.623-0.978-0.623
					s1.108-0.692,2.13,0.125c0.205,0.164,0.176-0.725,0.216-0.873c0.224-0.829,1.263-1.483,1.263-1.483s0.562,1.037,0.354,1.87
					c-0.037,0.149-0.496,0.912-0.236,0.868c1.289-0.217,1.922,0.927,1.922,0.927s-0.92-0.069-1.158,0.068
					c-0.236,0.138-1.257,1.012-0.558,2.12c0.699,1.107,1.835,0.64,2.07,0.5c0.235-0.141,0.622-0.979,0.622-0.979
					s0.693,1.108-0.122,2.13c-0.165,0.206,0.725,0.175,0.873,0.215c0.829,0.224,1.436,1.298,1.436,1.298s-1.062,0.653-1.895,0.445
					c-0.149-0.037-0.911-0.497-0.867-0.237c0.216,1.29-0.929,1.921-0.929,1.921s0.069-0.919-0.068-1.157
					c-0.137-0.238-0.903-1.197-2.052-0.57c-1.149,0.628-1.715,3.207-0.962,5.94c2.037,4.743,9.393,5.343,10.568,4.253
					c1.429-1.267,1.771-2.424,1.771-2.424s0.503-1.115-0.739-2.016c-2.218-1.665-2.665,2.021-2.665,2.021s-3.399-4.071,0.685-7.508
					c2.029-1.323,4.377,0.187,4.621,4.021c2.273-9.801,9.444-8.672,9.444-8.672l-14.846,24.01
					C173.643,113.704,163.799,109.428,145.505,109.428"/>
				<path clip-path="url(#SVGID_30_)" fill-rule="evenodd" clip-rule="evenodd" fill="#E4483C" d="M129.306,105.965
					c-0.187-1.062,1.187-2.191,3.069-2.523c1.882-0.331,3.559,0.261,3.746,1.323c0.188,1.061-1.187,2.191-3.069,2.522
					C131.17,107.618,129.493,107.026,129.306,105.965"/>
				<path clip-path="url(#SVGID_30_)" fill-rule="evenodd" clip-rule="evenodd" fill="#E4483C" d="M132.667,105.224"/>
				<path clip-path="url(#SVGID_30_)" fill="none" stroke="#334C99" stroke-width="0.999" d="M132.667,105.224"/>
				<path clip-path="url(#SVGID_30_)" fill-rule="evenodd" clip-rule="evenodd" fill="#E4483C" d="M161.708,105.999
					c0.188-1.062-1.187-2.191-3.068-2.523c-1.882-0.331-3.56,0.261-3.746,1.322c-0.188,1.062,1.187,2.191,3.068,2.523
					C159.844,107.652,161.521,107.06,161.708,105.999"/>
				<path clip-path="url(#SVGID_30_)" fill-rule="evenodd" clip-rule="evenodd" fill="#E4483C" d="M158.253,105.258"/>
				<path clip-path="url(#SVGID_30_)" fill="none" stroke="#334C99" stroke-width="0.999" d="M158.253,105.258"/>
				<polyline clip-path="url(#SVGID_30_)" fill-rule="evenodd" clip-rule="evenodd" fill="#334C99" points="166.743,106.935 
					170.958,106.225 173.841,109.331 169.626,110.04 166.743,106.935 				"/>
				<polyline clip-path="url(#SVGID_30_)" fill-rule="evenodd" clip-rule="evenodd" fill="#334C99" points="124.312,107.024 
					120.097,106.314 117.214,109.419 121.428,110.129 124.312,107.024 				"/>
				
					<rect x="141.413" y="102.609" clip-path="url(#SVGID_30_)" fill-rule="evenodd" clip-rule="evenodd" fill="#334C99" width="8.163" height="3.993"/>
				<path clip-path="url(#SVGID_30_)" fill-rule="evenodd" clip-rule="evenodd" fill="#334C99" d="M145.448,104.465"/>
				<path clip-path="url(#SVGID_30_)" fill="none" stroke="#334C99" stroke-width="0.999" d="M145.448,104.465"/>
				<path clip-path="url(#SVGID_30_)" fill-rule="evenodd" clip-rule="evenodd" fill="#F8F400" d="M115.505,104.373
					c0.503-0.323,0.65-0.992,0.327-1.495c-0.323-0.504-0.992-0.65-1.495-0.328l-3.224,2.067c-0.503,0.323-0.65,0.992-0.327,1.495
					c0.322,0.503,0.992,0.65,1.495,0.327L115.505,104.373"/>
				<path clip-path="url(#SVGID_30_)" fill-rule="evenodd" clip-rule="evenodd" fill="#F8F400" d="M175.464,104.491
					c-0.505-0.322-0.65-0.992-0.327-1.495c0.321-0.503,0.991-0.65,1.495-0.327l3.224,2.067c0.503,0.322,0.648,0.992,0.327,1.495
					c-0.323,0.503-0.992,0.649-1.495,0.327L175.464,104.491"/>
				<path clip-path="url(#SVGID_30_)" fill-rule="evenodd" clip-rule="evenodd" fill="#F8F400" d="M148.581,98.291
					c0.599,0,1.082-0.484,1.083-1.082c0-0.598-0.484-1.082-1.082-1.082l-6.161-0.002c-0.597,0-1.082,0.484-1.082,1.082
					c-0.001,0.598,0.484,1.082,1.081,1.083L148.581,98.291"/>
				<path clip-path="url(#SVGID_30_)" fill-rule="evenodd" clip-rule="evenodd" fill="#334C99" d="M211.916,29.709
					c1.536-1.025,2.967-1.578,0.017-2.93l0.361-0.724c0.834,0.507,1.663,0.966,2.558,1.413c0.895,0.446,1.759,0.832,2.666,1.194
					l-0.362,0.725c-1.499-0.869-2.407-0.08-4.335,1.123c0,0-5.197,3.026-6.3,3.909c-0.604,0.482-0.952,1.06-1.241,1.638
					l-1.612,3.229c-0.938,1.88-1.047,2.037,1.211,3.315l-0.36,0.724c-1.124-0.651-2.24-1.255-3.423-1.845
					c-1.183-0.591-2.336-1.121-3.459-1.591l0.361-0.725c2.379,1.038,2.439,0.857,3.377-1.022l1.77-3.543
					c0.096-0.192,0.241-0.481,0.252-0.807l-0.372-6.507l-0.241-3.347c-0.233-1.631,0.079-1.47-1.153-2.327l-0.446-0.254l0.361-0.724
					c1.026,0.603,2.071,1.17,3.158,1.713c1.087,0.543,2.168,1.037,3.268,1.495l-0.362,0.725c-2.295-1.206-2.321-0.61-2.393-0.043
					l0.056,1.099l0.368,7.845l4.448-2.685L211.916,29.709"/>
			</g>
		</g>
	</g>
</g>
</svg>
